<svg xmlns="http://www.w3.org/2000/svg" xmlns:xlink="http://www.w3.org/1999/xlink" version="1.1" width="432" height="648.12" viewBox="0 0 432 648.12">
<defs>
<clipPath id="clip_18">
<path transform="matrix(1,0,0,-1,0,648.12)" d="M.000006437 0H432V648.12H.000006437Z" fill-rule="evenodd"/>
</clipPath>
<path id="font_19_21" d="M.03857422 .16796875 .04248047 .171875H.06640625L.0703125 .16796875C.0719401 .12630208 .07413737 .10083008 .0769043 .091552738 .07967123 .08227539 .08846029 .072509769 .103271488 .06225586 .11808268 .052001954 .13777669 .043619794 .16235352 .037109376 .18693035 .030598959 .2117513 .02734375 .2368164 .02734375 .27132163 .02734375 .30232749 .033691408 .32983399 .04638672 .35734049 .05908203 .3787435 .0777181 .39404298 .10229492 .40934245 .12687175 .4169922 .15445964 .4169922 .1850586 .4169922 .20654297 .41333009 .22526042 .40600587 .24121094 .39868165 .25716148 .38842774 .26993815 .37524415 .27954103 .36206056 .2891439 .34700523 .29630534 .33007813 .3010254 .31315104 .30574546 .2879232 .3108724 .25439454 .31640626 .22184246 .3216146 .19637044 .32633464 .17797852 .3305664 .1595866 .3347982 .14127605 .3413086 .123046878 .35009767 .10481771 .35888673 .08959961 .3700358 .07739258 .38354493 .06518555 .39705406 .055419923 .4136556 .048095704 .4333496 .040771486 .4530436 .037109376 .4741211 .037109376 .49658204 .037109376 .5574544 .05826823 .6073405 .10058594 .64624026 .14290364 .68513998 .19970703 .70458987 .2709961 .70458987 .2993164 .70458987 .33015953 .7010905 .3635254 .6940918 .39689128 .6870931 .4272461 .6767578 .45458985 .66308596L.4580078 .65722659C.45084635 .6272786 .4464518 .58463546 .44482423 .5292969L.4404297 .5253906H.41503907L.4111328 .5288086C.41048179 .5678711 .40950523 .59244796 .40820313 .60253909 .40690104 .6126302 .39208985 .6251628 .36376954 .6401367 .33544923 .65511068 .3046875 .66259768 .27148438 .66259768 .24381511 .66259768 .2179362 .6570638 .19384766 .6459961 .16975911 .6349284 .15152996 .617513 .13916016 .59375 .12679036 .569987 .12060547 .54573568 .12060547 .5209961 .12060547 .50179037 .12434896 .4847819 .13183594 .4699707 .13932292 .45515953 .14900716 .44344078 .16088867 .43481446 .17277019 .42618815 .18660482 .41975913 .20239258 .41552735 .21818035 .41129557 .24707031 .40608726 .2890625 .39990235 .3466797 .3917643 .38859049 .38191734 .41479493 .37036134 .44099937 .35880534 .46199546 .34049479 .4777832 .3154297 .49357096 .2903646 .50146487 .26009117 .50146487 .22460938 .50146487 .15527344 .47322593 .09749349 .41674806 .05126953 .36027018 .0050455729 .29182945-.018066407 .21142578-.018066407 .14404297-.018066407 .08496094-.0060221354 .034179689 .018066407L.03125 .024414063C.034505208 .044921876 .036946615 .09277344 .03857422 .16796875Z"/>
<path id="font_19_142" d="M.43164063 .071777347 .41601563 .036621095C.38216148 .014811198 .3519694 .0006510417 .32543946-.005859375 .29890953-.012369792 .27522788-.015625 .25439454-.015625 .21533203-.015625 .17830403-.007975261 .14331055 .0073242189 .108317058 .022623698 .079833988 .048502607 .057861329 .08496094 .035888673 .12141927 .024902344 .16536458 .024902344 .21679688 .024902344 .25097657 .029134116 .28181968 .037597658 .30932618 .0460612 .33683268 .05493164 .35725913 .064208988 .37060548 .07348633 .3839518 .08919271 .39876304 .111328128 .41503907 .13346355 .4313151 .15690105 .44433595 .18164063 .45410157 .2063802 .4638672 .23307292 .46875 .26171876 .46875 .30078126 .46875 .33520509 .45955406 .36499024 .4411621 .3947754 .42277018 .4156901 .3992513 .42773438 .37060548 .43977867 .34195964 .44580079 .31152345 .44580079 .27929688 .44580079 .26920573 .4453125 .2594401 .44433595 .25L.43896485 .2446289C.41682945 .2397461 .38704429 .23649089 .34960938 .23486328 .31217448 .23323567 .2874349 .23242188 .27539063 .23242188H.118652347C.11930338 .16503906 .13623047 .11539713 .1694336 .083496097 .20263672 .05159505 .24332683 .03564453 .2915039 .03564453 .31429038 .03564453 .33618165 .03955078 .35717774 .04736328 .37817384 .05517578 .40039063 .06608073 .42382813 .080078128L.43164063 .071777347M.118652347 .27148438C.12451172 .2705078 .14705403 .2693685 .1862793 .2680664 .22550456 .2667643 .25455729 .26611329 .2734375 .26611329 .3186849 .26611329 .3461914 .2669271 .35595704 .2685547 .35628257 .2763672 .3564453 .2823893 .3564453 .2866211 .3564453 .3370768 .3461914 .3745931 .3256836 .39916993 .30517579 .42374674 .277181 .43603517 .24169922 .43603517 .20296224 .43603517 .17277019 .42220054 .15112305 .39453126 .1294759 .36686198 .118652347 .32584635 .118652347 .27148438M.2548828 .49609376V.49609376M.24902344-.029296875V-.029296875Z"/>
<path id="font_19_144" d="M.5385742 .43164063 .54248049 .42285157C.5291341 .40234376 .5208333 .3889974 .5175781 .3828125H.4267578C.4358724 .36490885 .4404297 .3461914 .4404297 .32666017 .4404297 .3035482 .43513999 .28108726 .42456056 .25927735 .4139811 .23746746 .3992513 .21891277 .3803711 .20361328 .36149089 .1883138 .3400879 .17610677 .3161621 .16699219 .29223634 .15787761 .26497398 .15332031 .234375 .15332031H.21191406C.19270833 .13802083 .18033855 .12662761 .17480469 .119140628 .16927083 .11165365 .1665039 .104003909 .1665039 .096191409 .1665039 .08186849 .1730957 .071777347 .1862793 .06591797 .19946289 .060058595 .22672527 .057128908 .2680664 .057128908L.3774414 .05859375C.41194663 .05859375 .43839518 .05452474 .4567871 .04638672 .47517906 .0382487 .49007163 .02368164 .50146487 .0026855469 .5128581-.018310547 .5185547-.040527345 .5185547-.063964847 .5185547-.09977213 .5069173-.13549805 .48364259-.17114258 .46036784-.20678711 .4267578-.23388672 .3828125-.2524414 .3388672-.2709961 .2919922-.28027345 .2421875-.28027345 .21386719-.28027345 .18725586-.277181 .16235352-.2709961 .13745117-.2648112 .11564127-.25545249 .09692383-.24291992 .07820638-.23038738 .06315104-.21402996 .051757814-.19384766 .040364583-.17366536 .03466797-.15266927 .03466797-.13085938 .03466797-.1188151 .036458333-.10620117 .040039064-.09301758 .043619794-.079833988 .05045573-.065592449 .060546876-.05029297L.14892578-.0009765625C.12060547 .0078125 .1027832 .016520182 .095458988 .025146485 .088134769 .033772787 .084472659 .044108076 .084472659 .056152345 .084472659 .06852213 .088541667 .08317057 .09667969 .100097659L.17529297 .15673828C.12906902 .16878255 .09790039 .18684896 .08178711 .2109375 .06567383 .23502605 .057617189 .26139323 .057617189 .29003907 .057617189 .31640626 .063313808 .34155274 .07470703 .36547853 .08610026 .3894043 .103271488 .40852867 .1262207 .42285157 .14916992 .43717448 .17488607 .44848634 .20336914 .4567871 .23185222 .4650879 .2578125 .46923829 .28125 .46923829 .3219401 .46923829 .3606771 .4560547 .39746095 .4296875 .45638023 .4296875 .50341799 .43033854 .5385742 .43164063M.14160156 .31835938C.14160156 .2985026 .14550781 .277181 .15332031 .25439454 .16113281 .23160808 .17374675 .21435547 .19116211 .20263672 .20857747 .19091797 .22819011 .1850586 .25 .1850586 .27897135 .1850586 .30395509 .1944987 .32495118 .2133789 .34594728 .23225911 .3564453 .26171876 .3564453 .3017578 .3564453 .33561198 .34684245 .3660482 .32763673 .3930664 .308431 .42008464 .28125 .43359376 .24609375 .43359376 .21647136 .43359376 .19165039 .42390953 .17163086 .40454103 .15161133 .38517253 .14160156 .3564453 .14160156 .31835938M.28466798-.009277344C.23225911-.009277344 .20206706-.009928386 .1940918-.011230469 .18611653-.012532552 .17480469-.018066407 .16015625-.027832032 .14550781-.037597658 .13354492-.05086263 .12426758-.06762695 .114990238-.08439127 .11035156-.1031901 .11035156-.12402344 .11035156-.1608073 .12402344-.1907552 .15136719-.21386719 .17871094-.23697917 .21516927-.24853516 .2607422-.24853516 .29492188-.24853516 .3264974-.2413737 .35546876-.22705078 .3844401-.21272786 .4058431-.19352214 .41967774-.1694336 .43351237-.14534505 .4404297-.12223307 .4404297-.100097659 .4404297-.07796224 .4346517-.059000654 .4230957-.04321289 .4115397-.02742513 .39656578-.017822266 .37817384-.014404297 .3597819-.010986328 .32861329-.009277344 .28466798-.009277344Z"/>
<path id="font_19_155" d="M.1875 .46533204 .19677735 .45898438C.19482422 .44010417 .19335938 .40657554 .19238281 .35839845L.2290039 .40478517C.24104817 .42008464 .25170899 .43188478 .26098634 .44018556 .27026368 .44848634 .28108726 .45491538 .29345704 .45947267 .3058268 .46402995 .31852214 .4663086 .33154298 .4663086 .34586589 .4663086 .359375 .4633789 .3720703 .45751954L.37548829 .4506836C.37027995 .4073893 .36735026 .36930339 .36669923 .33642579H.34472657C.33170573 .3663737 .31070964 .38134767 .28173829 .38134767 .261556 .38134767 .24397786 .3749186 .2290039 .36206056 .21402996 .34920249 .20402019 .3330892 .19897461 .3137207 .19392903 .2943522 .19140625 .26985679 .19140625 .24023438V.18603516C.19140625 .17626953 .1920573 .15234375 .19335938 .11425781 .19466146 .076171878 .19604492 .05419922 .19750977 .048339845 .19897461 .04248047 .20125325 .038167318 .2043457 .03540039 .20743816 .032633466 .21150716 .030761719 .21655274 .029785157 .22159831 .028808594 .24479167 .02718099 .2861328 .024902344L.29052735 .020996094V.00048828127L.2861328-.00390625C.24283855-.0013020834 .19759114 0 .15039063 0 .11295573 0 .07389323-.0013020834 .033203126-.00390625L.028808594 .00048828127V.020996094L.033203126 .024902344C.06477865 .026855469 .082600917 .028320313 .08666992 .029296875 .09073893 .030273438 .094319667 .03230794 .09741211 .03540039 .100504558 .03849284 .102620448 .04321289 .103759769 .049560548 .104899089 .055908204 .10620117 .0769043 .107666019 .11254883 .10913086 .14819336 .10986328 .1751302 .10986328 .19335938V.28955079C.10986328 .30257163 .10921224 .3203125 .107910159 .34277345 .10660807 .36523438 .10555013 .379069 .10473633 .38427735 .10392252 .3894857 .10139974 .39331056 .09716797 .39575196 .092936199 .39819337 .084472659 .39941407 .071777347 .39941407L.030761719 .39990235 .026367188 .4038086V.4248047L.030273438 .42871095C.092447917 .4361979 .14485677 .44840495 .1875 .46533204Z"/>
<path id="font_19_141" d="M.32861329 .6621094V.6826172L.33251954 .6870117C.394694 .69417318 .44710288 .70621749 .4897461 .72314456L.49902345 .71728518C.49544273 .6798503 .49365235 .6048177 .49365235 .4921875V.17236328C.49365235 .13948567 .49422203 .11075846 .49536134 .08618164 .49650065 .061604818 .49853517 .04703776 .50146487 .04248047 .50439456 .037923177 .509196 .034179689 .51586917 .03125 .5225423 .028320313 .5415039 .025553385 .5727539 .022949219L.57714846 .019042969V.00048828127L.5727539-.00390625C.53759768-.0016276041 .5102539-.00048828127 .49072267-.00048828127 .47314454-.00048828127 .44807945-.0016276041 .41552735-.00390625L.41015626 .0014648438C.4111328 .033365888 .4116211 .055664064 .4116211 .068359378 .4116211 .06998698 .41178385 .076171878 .41210938 .08691406 .39420573 .07389323 .3763021 .05940755 .35839845 .04345703 .33203126 .020019532 .31477867 .0053710939 .30664063-.00048828127 .29166667-.007975261 .27034507-.01171875 .24267578-.01171875 .1977539-.01171875 .1595866-.0006510417 .12817383 .021484375 .09676107 .043619794 .07438151 .07185873 .061035158 .10620117 .0476888 .14054363 .041015626 .17578125 .041015626 .21191406 .041015626 .24869792 .04793294 .2840983 .061767579 .31811524 .07560221 .35213218 .09529623 .37695313 .12084961 .39257813 .146403 .40820313 .17423503 .4243978 .2043457 .4411621 .23445638 .45792643 .2643229 .4663086 .2939453 .4663086 .33528648 .4663086 .37467448 .4560547 .41210938 .43554688L.41015626 .5444336C.40950523 .58219406 .40852867 .6084798 .40722657 .623291 .40592448 .63810226 .40429688 .6468913 .40234376 .6496582 .40039063 .6524251 .39705406 .65445968 .39233399 .6557617 .38761393 .6570638 .36783854 .65771487 .3330078 .65771487L.32861329 .6621094M.41210938 .35205079C.3919271 .37483726 .36954753 .3922526 .3449707 .40429688 .3203939 .41634117 .2957357 .42236329 .2709961 .42236329 .24365235 .42236329 .21818035 .41495768 .19458008 .40014649 .17097982 .3853353 .15397136 .36336265 .14355469 .33422853 .13313802 .3050944 .12792969 .2734375 .12792969 .23925781 .12792969 .18229167 .14233399 .13655599 .17114258 .10205078 .19995117 .06754557 .23616536 .05029297 .27978517 .05029297 .3035482 .05029297 .32462565 .05574544 .34301759 .06665039 .36140953 .077555339 .37654624 .092285159 .38842774 .110839847 .40030924 .12939453 .40722657 .14794922 .4091797 .1665039 .4111328 .1850586 .41210938 .21907552 .41210938 .2685547V.35205079Z"/>
<path id="font_19_152" d="M.033203126 .22363281C.033203126 .26236979 .041178388 .2997233 .057128908 .33569337 .07307943 .37166343 .10083008 .40275065 .14038086 .42895509 .17993164 .45515953 .22688802 .46826173 .28125 .46826173 .34960938 .46826173 .40527345 .44669596 .4482422 .40356446 .49121095 .36043296 .5126953 .30501304 .5126953 .23730469 .5126953 .16276042 .4880371 .10139974 .4387207 .053222658 .3894043 .0050455729 .32991538-.019042969 .2602539-.019042969 .21468099-.019042969 .17399089-.006754557 .1381836 .017822266 .102376308 .04239909 .075927738 .07242838 .05883789 .107910159 .041748048 .14339192 .033203126 .18196614 .033203126 .22363281M.12548828 .25732423C.12548828 .2117513 .13134766 .17097982 .1430664 .13500977 .15478516 .09903971 .17333985 .07014974 .19873047 .048339845 .2241211 .026529948 .25309245 .015625 .28564454 .015625 .324056 .015625 .35579429 .0308431 .38085938 .061279298 .40592448 .09171549 .41845704 .13753255 .41845704 .19873047 .41845704 .2680664 .40486656 .32486979 .37768556 .36914063 .35050456 .41341148 .3113607 .43554688 .2602539 .43554688 .2179362 .43554688 .18489583 .4202474 .16113281 .38964845 .1373698 .35904948 .12548828 .3149414 .12548828 .25732423M.2734375 .49609376V.49609376M.26611329-.029296875V-.029296875Z"/>
<path id="font_19_561" d="M0 0Z"/>
<path id="font_19_6" d="M.0146484379 .68652346 .018554688 .6899414C.07486979 .6873372 .11328125 .68603518 .13378906 .68603518L.3623047 .69091799C.42740885 .69091799 .48079429 .68481448 .52246096 .6726074 .5641276 .6604004 .6011556 .6392415 .6335449 .60913088 .66593429 .5790202 .69051107 .5440267 .7072754 .5041504 .72403976 .46427409 .7324219 .42171226 .7324219 .37646485 .7324219 .33251954 .72477218 .2890625 .70947268 .24609375 .69417318 .203125 .67244467 .16463216 .6442871 .13061524 .6161296 .096598308 .58406576 .06917318 .5480957 .048339845 .5121257 .02750651 .47607423 .013590495 .4399414 .006591797 .4038086-.00040690104 .36686198-.00390625 .32910157-.00390625 .30371095-.00390625 .25585938-.0029296876 .18554688-.0009765625 .16243489-.00032552085 .14713542 0 .13964844 0 .1171875 0 .09000651-.0013020834 .05810547-.00390625L.05419922 0V.016113282L.05810547 .020996094C.077311199 .030761719 .08829752 .036865236 .09106445 .03930664 .09383138 .041748048 .09611002 .07023112 .09790039 .12475586 .09969076 .1792806 .10058594 .22086589 .10058594 .24951172V.42871095L.100097659 .5395508C.100097659 .56363937 .09977213 .58325198 .099121097 .5983887 .098470058 .6135254 .09733073 .62434896 .095703128 .6308594 .09407552 .6373698 .09220377 .64192709 .09008789 .64453127 .08797201 .64713546 .08455404 .6493327 .079833988 .65112307 .07511393 .6529134 .06705729 .65445968 .055664064 .6557617L.018554688 .6586914 .0146484379 .6621094V.68652346M.1953125 .049316408C.22851563 .04280599 .2667643 .03955078 .3100586 .03955078 .38590495 .03955078 .4465332 .052246095 .49194337 .07763672 .5373535 .103027347 .57128909 .140625 .59375 .19042969 .61621096 .24023438 .6274414 .29638673 .6274414 .35888673 .6274414 .45100913 .60286459 .52246096 .55371096 .5732422 .5045573 .62402346 .42708335 .64941409 .32128907 .64941409 .27766929 .64941409 .23567708 .6461589 .1953125 .63964846 .19270833 .586263 .19140625 .5260417 .19140625 .45898438V.30566407L.19238281 .16210938C.19238281 .13411458 .19335938 .09651693 .1953125 .049316408Z"/>
<path id="font_19_156" d="M.049316408 .14355469H.0703125L.07470703 .13916016C.07535807 .111816409 .07698568 .088378909 .079589847 .068847659 .08968099 .053548177 .10709635 .041097005 .13183594 .03149414 .15657552 .021891276 .18098958 .017089844 .20507813 .017089844 .23958333 .017089844 .26717124 .026367188 .2878418 .044921876 .30851237 .06347656 .31884767 .08561198 .31884767 .111328128 .31884767 .12532552 .31510417 .13745117 .3076172 .14770508 .30013023 .15795899 .28881837 .16642253 .27368165 .1730957 .25854493 .17976888 .23144531 .18766277 .19238281 .19677735 .15885417 .20458985 .13541667 .21069336 .12207031 .21508789 .10872396 .21948242 .09586588 .22688802 .083496097 .23730469 .071126308 .24772136 .0616862 .26049806 .05517578 .27563478 .048665365 .29077149 .045410158 .30745445 .045410158 .3256836 .045410158 .36930339 .06274414 .40421549 .09741211 .43041993 .13208008 .45662437 .17529297 .46972657 .22705078 .46972657 .24886067 .46972657 .2726237 .46671549 .29833985 .46069337 .324056 .45467124 .34358726 .44889323 .3569336 .44335938L.36132813 .43652345C.35872398 .4235026 .35709635 .3893229 .3564453 .33398438L.35205079 .32958985H.33251954L.328125 .33398438C.3268229 .35384117 .32503257 .36775718 .3227539 .37573243 .32047526 .38370768 .31461589 .39233399 .30517579 .40161134 .2957357 .41088868 .2823893 .41870118 .26513673 .42504884 .24788411 .43139649 .22965496 .4345703 .21044922 .4345703 .19059246 .4345703 .1739095 .43164063 .16040039 .42578126 .14689128 .41992188 .13598633 .41105143 .12768555 .39916993 .119384769 .38728843 .115234378 .37288413 .115234378 .35595704 .115234378 .34358726 .117757167 .33251954 .122802738 .3227539 .12784831 .31298829 .13557942 .3050944 .1459961 .29907228 .15641277 .29305015 .1673177 .28873698 .17871094 .2861328L.2319336 .27246095C.2775065 .26139323 .31013999 .25179038 .32983399 .24365235 .34952799 .23551433 .3647461 .2232259 .37548829 .20678711 .38623048 .19034831 .39160157 .17041016 .39160157 .14697266 .39160157 .10205078 .37304688 .06347656 .3359375 .03125 .29882813-.0009765625 .2511393-.017089844 .1928711-.017089844 .17236328-.017089844 .14689128-.014811198 .11645508-.010253906 .08601888-.0056966149 .060058595-.0006510417 .03857422 .0048828127L.036132814 .011230469 .041015626 .043945314C.04264323 .054036458 .043619794 .064208988 .043945314 .07446289 .044270833 .0847168 .044596357 .106282558 .044921876 .13916016L.049316408 .14355469Z"/>
<path id="font_19_153" d="M.18066406 .4711914 .1899414 .46533204C.1866862 .42822267 .18489583 .39534507 .18457031 .36669923 .22884114 .4070638 .25968424 .4337565 .2770996 .44677735 .29451499 .4597982 .32454429 .4663086 .3671875 .4663086 .39388023 .4663086 .4181315 .46264649 .4399414 .45532228 .4617513 .44799806 .4819336 .43595378 .5004883 .41918946 .51904299 .40242515 .5336914 .38142906 .5444336 .35620118 .5551758 .3309733 .5605469 .3017578 .5605469 .2685547 .5605469 .24511719 .5568034 .22135417 .5493164 .19726563 .5418294 .17317708 .5319824 .1508789 .5197754 .1303711 .50756838 .10986328 .49780274 .09627279 .49047853 .08959961 .4831543 .08292643 .46809898 .072916667 .4453125 .059570314 .4248047 .04720052 .40445964 .033854169 .38427735 .01953125 .37027995 .0094401049 .3605143 .0029296876 .35498048 0 .34944663-.0029296876 .34016929-.005859375 .32714845-.0087890629 .3141276-.01171875 .30029298-.013183594 .28564454-.013183594 .25179038-.013183594 .21809896-.0045572917 .18457031 .0126953129V-.091308597C.18457031-.098470058 .18522136-.12150065 .18652344-.16040039 .18782552-.19930013 .18920899-.2220052 .19067383-.22851563 .19213867-.23502605 .19433594-.2397461 .19726563-.24267578 .20019531-.24560547 .20377605-.24747722 .20800781-.24829102 .21223958-.24910482 .2298177-.25048829 .2607422-.2524414L.26513673-.25634767V-.27685548L.26123048-.28125C.22054036-.27864585 .18147786-.27734376 .14404297-.27734376 .10660807-.27734376 .06754557-.27864585 .026855469-.28125L.022460938-.27685548V-.25634767L.026855469-.2524414C.05810547-.25048829 .07584635-.24902344 .080078128-.24804688 .0843099-.24707031 .08797201-.24503581 .09106445-.24194336 .0941569-.2388509 .09627279-.23388672 .09741211-.22705078 .09855143-.22021485 .099853519-.19840496 .10131836-.1616211 .1027832-.12483724 .103515628-.09716797 .103515628-.07861328V.29541017C.103515628 .31233726 .1027832 .33194987 .10131836 .35424806 .099853519 .37654624 .09863281 .3894857 .09765625 .3930664 .09667969 .39664714 .094319667 .3995768 .09057617 .40185548 .08683268 .40413413 .07845052 .40527345 .06542969 .40527345L.024414063 .40576173 .020019532 .40966798V.43066407L.023925782 .4345703C.08610026 .44205729 .13834636 .4542643 .18066406 .4711914M.18457031 .09667969C.19954427 .08138021 .21809896 .068115238 .24023438 .056884767 .26236979 .045654298 .28678385 .040039064 .31347657 .040039064 .3450521 .040039064 .37296549 .048014326 .3972168 .063964847 .4214681 .07991537 .44026695 .103271488 .45361329 .1340332 .46695964 .16479492 .4736328 .19889324 .4736328 .23632813 .4736328 .26660157 .46769206 .29475913 .45581056 .32080079 .44392906 .34684245 .4255371 .36735026 .40063478 .38232423 .37573243 .3972982 .34928385 .40478517 .32128907 .40478517 .30403648 .40478517 .28727214 .40177409 .2709961 .39575196 .25472007 .38972984 .23950196 .38085938 .2253418 .36914063 .21118164 .35742188 .20100911 .3462728 .19482422 .33569337 .18863933 .32511393 .18538411 .31632487 .1850586 .30932618 .18473308 .30232749 .18457031 .29459635 .18457031 .2861328V.09667969Z"/>
<path id="font_19_157" d="M.022460938 .38330079V.3959961L.025878907 .4008789C.056477865 .41227214 .081217449 .42285157 .100097659 .4326172 .100097659 .5175781 .099121097 .5670573 .09716797 .5810547 .13069661 .59277346 .15820313 .60530599 .1796875 .61865237L.19140625 .6088867C.18815105 .5883789 .1842448 .5288086 .1796875 .43017579 .19596355 .42985026 .21354167 .4296875 .23242188 .4296875 .27083335 .4296875 .29833985 .43066407 .3149414 .4326172L.31835938 .42919923 .30908204 .3881836 .30517579 .38378907C.28857423 .3841146 .27018229 .38427735 .25 .38427735 .23177083 .38427735 .20833333 .3841146 .1796875 .38378907L.17675781 .1850586C.17675781 .13916016 .17781575 .10913086 .17993164 .0949707 .18204753 .08081055 .1879069 .069742839 .19750977 .061767579 .20711263 .053792318 .22135417 .049804689 .24023438 .049804689 .26204429 .049804689 .28222657 .0555013 .30078126 .06689453L.3125 .049316408C.3046875 .04378255 .28597007 .02750651 .25634767 .00048828127 .23942058-.0073242189 .22216797-.011230469 .20458985-.011230469 .13134766-.011230469 .09472656 .024251303 .09472656 .095214847 .09472656 .12125651 .0953776 .14339192 .09667969 .1616211 .09700521 .16715496 .09716797 .17285156 .09716797 .17871094V.38134767H.07714844C.0625 .38134767 .045735677 .38069663 .026855469 .37939454L.022460938 .38330079Z"/>
<clipPath id="clip_20">
<path transform="matrix(1,0,0,-1,0,648.12)" d="M.000006437 0H432V648.12H.000006437Z" fill-rule="evenodd"/>
</clipPath>
<clipPath id="clip_21">
<path transform="matrix(1,0,0,-1,0,648.12)" d="M.000006437 0H432V648.12H.000006437Z" fill-rule="evenodd"/>
</clipPath>
<clipPath id="clip_22">
<path transform="matrix(1,0,0,-1,0,648.12)" d="M.000006437 0H432V648.12H.000006437Z" fill-rule="evenodd"/>
</clipPath>
<path id="font_19_344" d="M.022460938-.0048828127 .016601563 0V.022460938L.18017578 .19580078C.2475586 .26708985 .29117839 .32226563 .31103517 .36132813 .33089195 .40039063 .3408203 .43684898 .3408203 .47070313 .3408203 .5104167 .32877604 .54345706 .3046875 .5698242 .28059898 .5961914 .24804688 .609375 .20703125 .609375 .18066406 .609375 .15771485 .60530599 .1381836 .59716799 .118652347 .58902999 .10555013 .57991537 .09887695 .5698242 .09220377 .5597331 .08251953 .5314128 .06982422 .48486329L.06542969 .48095704H.045410158L.040527345 .48535157C.048014326 .5292969 .053222658 .5727539 .056152345 .61572268 .086751308 .6456706 .11531576 .6647949 .1418457 .6730957 .16837566 .6813965 .1961263 .6855469 .22509766 .6855469 .25960288 .6855469 .29264323 .67903646 .32421876 .6660156 .35579429 .6529948 .3811849 .6319173 .40039063 .6027832 .41959635 .5736491 .42919923 .5398763 .42919923 .50146487 .42919923 .472819 .42358399 .4440918 .41235353 .4152832 .40112306 .3864746 .38468424 .35864259 .3630371 .3317871 .34138999 .30493165 .31184898 .27278648 .27441407 .23535156L.12207031 .080078128H.3149414C.3741862 .080078128 .4235026 .08219401 .46289063 .08642578L.4663086 .08251953C.46435548 .07145182 .4633789 .056966146 .4633789 .0390625 .4633789 .022786459 .46435548 .009928386 .4663086 .00048828127L.46289063-.0048828127C.43945313-.0035807293 .40348307-.0024414063 .35498048-.0014648438 .30647788-.00048828127 .27441407 0 .25878907 0 .22721355 0 .18473308-.00040690104 .13134766-.0012207031 .07796224-.0020345052 .041666669-.0032552083 .022460938-.0048828127Z"/>
<clipPath id="clip_23">
<path transform="matrix(1,0,0,-1,0,648.12)" d="M.000006437 0H432V648.12H.000006437Z" fill-rule="evenodd"/>
</clipPath>
<path id="font_24_3" d="M0 0Z"/>
<clipPath id="clip_25">
<path transform="matrix(1,0,0,-1,0,648.12)" d="M.000006437 0H432V648.12H.000006437Z" fill-rule="evenodd"/>
</clipPath>
<clipPath id="clip_26">
<path transform="matrix(1,0,0,-1,0,648.12)" d="M.000006437 0H432V648.12H.000006437Z" fill-rule="evenodd"/>
</clipPath>
<clipPath id="clip_27">
<path transform="matrix(1,0,0,-1,0,648.12)" d="M.000006437 0H432V648.12H.000006437Z" fill-rule="evenodd"/>
</clipPath>
<clipPath id="clip_28">
<path transform="matrix(1,0,0,-1,0,648.12)" d="M.000006437 0H432V648.12H.000006437Z" fill-rule="evenodd"/>
</clipPath>
<path id="font_29_561" d="M0 0Z"/>
<clipPath id="clip_30">
<path transform="matrix(1,0,0,-1,0,648.12)" d="M.000006437 0H432V648.12H.000006437Z" fill-rule="evenodd"/>
</clipPath>
<clipPath id="clip_31">
<path transform="matrix(1,0,0,-1,0,648.12)" d="M.000006437 0H432V648.12H.000006437Z" fill-rule="evenodd"/>
</clipPath>
<clipPath id="clip_32">
<path transform="matrix(1,0,0,-1,0,648.12)" d="M.000006437 0H432V648.12H.000006437Z" fill-rule="evenodd"/>
</clipPath>
<clipPath id="clip_33">
<path transform="matrix(1,0,0,-1,0,648.12)" d="M.000006437 0H432V648.12H.000006437Z" fill-rule="evenodd"/>
</clipPath>
<clipPath id="clip_34">
<path transform="matrix(1,0,0,-1,0,648.12)" d="M.000006437 0H432V648.12H.000006437Z" fill-rule="evenodd"/>
</clipPath>
<clipPath id="clip_35">
<path transform="matrix(1,0,0,-1,0,648.12)" d="M.000006437 0H432V648.12H.000006437Z" fill-rule="evenodd"/>
</clipPath>
<clipPath id="clip_36">
<path transform="matrix(1,0,0,-1,0,648.12)" d="M.000006437 0H432V648.12H.000006437Z" fill-rule="evenodd"/>
</clipPath>
<clipPath id="clip_37">
<path transform="matrix(1,0,0,-1,0,648.12)" d="M.000006437 0H432V648.12H.000006437Z" fill-rule="evenodd"/>
</clipPath>
<clipPath id="clip_38">
<path transform="matrix(1,0,0,-1,0,648.12)" d="M.000006437 0H432V648.12H.000006437Z" fill-rule="evenodd"/>
</clipPath>
<clipPath id="clip_39">
<path transform="matrix(1,0,0,-1,0,648.12)" d="M.000006437 0H432V648.12H.000006437Z" fill-rule="evenodd"/>
</clipPath>
<clipPath id="clip_40">
<path transform="matrix(1,0,0,-1,0,648.12)" d="M.000006437 0H432V648.12H.000006437Z" fill-rule="evenodd"/>
</clipPath>
<clipPath id="clip_41">
<path transform="matrix(1,0,0,-1,0,648.12)" d="M.000006437 0H432V648.12H.000006437Z" fill-rule="evenodd"/>
</clipPath>
<clipPath id="clip_42">
<path transform="matrix(1,0,0,-1,0,648.12)" d="M.000006437 0H432V648.12H.000006437Z" fill-rule="evenodd"/>
</clipPath>
<clipPath id="clip_43">
<path transform="matrix(1,0,0,-1,0,648.12)" d="M.000006437 0H432V648.12H.000006437Z" fill-rule="evenodd"/>
</clipPath>
<clipPath id="clip_44">
<path transform="matrix(1,0,0,-1,0,648.12)" d="M.000006437 0H432V648.12H.000006437Z" fill-rule="evenodd"/>
</clipPath>
<clipPath id="clip_45">
<path transform="matrix(1,0,0,-1,0,648.12)" d="M.000006437 0H432V648.12H.000006437Z" fill-rule="evenodd"/>
</clipPath>
<clipPath id="clip_46">
<path transform="matrix(1,0,0,-1,0,648.12)" d="M.000006437 0H432V648.12H.000006437Z" fill-rule="evenodd"/>
</clipPath>
<clipPath id="clip_47">
<path transform="matrix(1,0,0,-1,0,648.12)" d="M.000006437 0H432V648.12H.000006437Z" fill-rule="evenodd"/>
</clipPath>
<clipPath id="clip_48">
<path transform="matrix(1,0,0,-1,0,648.12)" d="M.000006437 0H432V648.12H.000006437Z" fill-rule="evenodd"/>
</clipPath>
<clipPath id="clip_49">
<path transform="matrix(1,0,0,-1,0,648.12)" d="M.000006437 0H432V648.12H.000006437Z" fill-rule="evenodd"/>
</clipPath>
<clipPath id="clip_50">
<path transform="matrix(1,0,0,-1,0,648.12)" d="M.000006437 0H432V648.12H.000006437Z" fill-rule="evenodd"/>
</clipPath>
<clipPath id="clip_51">
<path transform="matrix(1,0,0,-1,0,648.12)" d="M.000006437 0H432V648.12H.000006437Z" fill-rule="evenodd"/>
</clipPath>
<path id="font_19_11" d="M.028808594 .6899414 .08984375 .6879883C.12988281 .6866862 .15608724 .68603518 .16845703 .68603518 .17952474 .68603518 .22623699 .6873372 .30859376 .6899414L.3125 .68652346V.6621094L.30859376 .6586914C.2861328 .65804037 .26879884 .6570638 .2565918 .6557617 .24438477 .65445968 .23551433 .65201827 .22998047 .6484375 .22444661 .64485678 .2207845 .6364746 .21899414 .623291 .21720378 .6101074 .2163086 .5917969 .2163086 .5683594L.21533203 .4560547V.22998047L.21582031 .13476563C.21614583 .09798177 .21712239 .07421875 .21875 .06347656 .22037761 .052734376 .22273763 .045572919 .22583008 .041992189 .22892253 .038411458 .23486328 .03540039 .24365235 .032958986 .2524414 .030517579 .27408854 .028645834 .30859376 .02734375L.3125 .024414063V0L.30859376-.00390625C.30696617-.00390625 .2783203-.0029296876 .22265625-.0009765625 .19954427-.00032552085 .18147786 0 .16845703 0 .15836589 0 .111816409-.0013020834 .028808594-.00390625L.024902344 0V.024414063L.028808594 .02734375C.05908203 .028645834 .07926432 .030273438 .08935547 .032226564 .09944662 .034179689 .10620117 .036702474 .10961914 .039794923 .11303711 .04288737 .11580404 .049479169 .11791992 .059570314 .120035808 .06966146 .12125651 .0921224 .12158203 .12695313L.12207031 .22998047V.4560547L.12109375 .55126956C.12076823 .5883789 .11987305 .6123047 .1184082 .6230469 .11694336 .63378909 .11466471 .6409505 .111572269 .64453127 .10847982 .648112 .10253906 .6510417 .09375 .6533203 .08496094 .65559896 .063313808 .65738937 .028808594 .6586914L.024902344 .6621094V.68652346L.028808594 .6899414M.17529297 .7260742V.7260742M.16845703-.029296875V-.029296875Z"/>
<path id="font_19_149" d="M.18261719 .72314456 .19189453 .71728518C.1883138 .6798503 .18652344 .6048177 .18652344 .4921875V.18603516C.18652344 .1788737 .18717449 .1558431 .18847656 .11694336 .18977864 .07804362 .19116211 .055338544 .19262696 .048828126 .1940918 .042317708 .19628906 .037597658 .19921875 .03466797 .20214844 .03173828 .20572917 .029866538 .20996094 .029052735 .2141927 .028238932 .23177083 .026855469 .2626953 .024902344L.26708985 .020996094V.00048828127L.2631836-.00390625C.22249349-.0013020834 .18326824 0 .14550781 0 .108072917 0 .069010417-.0013020834 .028320313-.00390625L.023925782 .00048828127V.020996094L.028320313 .024902344C.059895833 .026855469 .0777181 .028320313 .08178711 .029296875 .08585612 .030273438 .08943685 .03230794 .0925293 .03540039 .09562174 .03849284 .09773763 .04321289 .09887695 .049560548 .10001627 .055908204 .10131836 .0769043 .1027832 .11254883 .10424805 .14819336 .10498047 .1751302 .10498047 .19335938V.44628907L.103027347 .5498047C.10205078 .5859375 .100992839 .6110026 .099853519 .625 .098714198 .6389974 .09716797 .64729818 .095214847 .64990237 .09326172 .65250656 .08984375 .65445968 .08496094 .6557617 .080078128 .6570638 .060384115 .65771487 .025878907 .65771487L.021484375 .6621094V.6826172L.025390625 .6870117C.0875651 .69417318 .13997396 .70621749 .18261719 .72314456Z"/>
<path id="font_19_158" d="M.16894531 .46533204 .17822266 .45898438C.17464192 .41634117 .17285156 .36214195 .17285156 .29638673V.18261719C.17285156 .14095052 .17602539 .111979167 .18237305 .095703128 .1887207 .079427089 .19970703 .066975917 .21533203 .05834961 .23095703 .04972331 .24951172 .045410158 .2709961 .045410158 .29475913 .045410158 .31640626 .050048829 .3359375 .059326173 .35546876 .068603519 .37182618 .08170573 .38500978 .09863281 .39819337 .1155599 .40576173 .12695313 .40771485 .1328125 .40966798 .13867188 .41097007 .15511067 .4116211 .1821289L.41308595 .2368164V.28955079C.41308595 .30257163 .4124349 .3203125 .4111328 .34277345 .40983073 .36523438 .4087728 .379069 .40795899 .38427735 .40714518 .3894857 .4046224 .39331056 .40039063 .39575196 .39615885 .39819337 .3876953 .39941407 .375 .39941407L.33398438 .39990235 .32958985 .4038086V.4248047L.3334961 .42871095C.39567057 .4361979 .44807945 .44840495 .49072267 .46533204L.5 .45898438C.49641929 .41634117 .4946289 .36214195 .4946289 .29638673V.21044922C.4946289 .2055664 .49544273 .16569011 .4970703 .09082031 .49772135 .06315104 .49943034 .04630534 .50219729 .040283204 .5049642 .034261068 .50878909 .030029297 .5136719 .02758789 .5185547 .025146485 .53304037 .023925782 .5571289 .023925782H.5708008L.5751953 .020019532V.00048828127L.57128909-.00390625C.5253906-.0013020834 .4946289 0 .4790039 0 .45914714 0 .4361979-.0011393229 .41015626-.0034179688L.40576173 .00048828127C.40771485 .033691408 .4091797 .061848958 .41015626 .08496094 .38964845 .069010417 .36621095 .0476888 .33984376 .020996094 .3297526 .010904948 .31526695 .0024414063 .29638673-.0043945314 .2775065-.011230469 .25602214-.0146484379 .2319336-.0146484379 .19547527-.0146484379 .16707357-.008870442 .14672852 .0026855469 .12638347 .014241536 .111979167 .030192057 .103515628 .05053711 .095052089 .070882167 .09082031 .10595703 .09082031 .15576172L.091308597 .19433594V.28955079C.091308597 .30257163 .090657558 .3203125 .08935547 .34277345 .08805338 .36523438 .086995448 .379069 .08618164 .38427735 .085367839 .3894857 .082845058 .39331056 .07861328 .39575196 .07438151 .39819337 .06591797 .39941407 .053222658 .39941407L.012207031 .39990235 .0078125 .4038086V.4248047L.01171875 .42871095C.07389323 .4361979 .12630208 .44840495 .16894531 .46533204M.28564454 .49609376V.49609376M.29052735-.029296875V-.029296875Z"/>
<path id="font_19_138" d="M.103515628 .3310547 .084472659 .3359375 .080566409 .3408203V.4013672C.13850911 .44433595 .19482422 .4658203 .24951172 .4658203 .28694663 .4658203 .31803385 .45882163 .34277345 .44482423 .36751304 .4308268 .38541667 .41333009 .39648438 .39233399 .4075521 .3713379 .41308595 .34684245 .41308595 .31884767L.41064454 .22070313V.07519531C.41064454 .055338544 .41202799 .04329427 .41479493 .0390625 .41756187 .03483073 .4207357 .031982423 .4243164 .030517579 .42789714 .029052735 .4345703 .027832032 .44433595 .026855469L.47216798 .024414063 .47607423 .020019532V.00048828127L.47216798-.0034179688C.44840495-.0014648438 .42626954-.00048828127 .40576173-.00048828127 .38623048-.00048828127 .36279298-.0014648438 .33544923-.0034179688L.328125 .0034179688 .33007813 .08203125 .22363281-.0009765625C.20572917-.008463542 .18619792-.012207031 .16503906-.012207031 .13899739-.012207031 .116617839-.007486979 .09790039 .001953125 .079182948 .0113932299 .06486002 .024576823 .05493164 .041503908 .045003255 .05843099 .040039064 .078938808 .040039064 .103027347 .040039064 .1508789 .05501302 .18823242 .08496094 .21508789 .11490885 .24194336 .19661458 .2648112 .33007813 .2836914 .33007813 .3318685 .31933595 .36580406 .29785157 .38549806 .2763672 .40519206 .2475586 .41503907 .21142578 .41503907 .19254558 .41503907 .17537435 .41227214 .15991211 .40673829 .14444988 .40120445 .13557942 .39672853 .13330078 .39331056 .13102214 .38989259 .12223307 .36995445 .106933597 .3334961L.103515628 .3310547M.33007813 .25390626C.2389323 .23860677 .1821289 .22216797 .15966797 .20458985 .13720703 .18701172 .12597656 .15983074 .12597656 .123046878 .12597656 .072265628 .15120442 .046875 .20166016 .046875 .24495442 .046875 .2877604 .0719401 .33007813 .12207031V.25390626M.24707031 .49609376V.49609376M.2368164-.029296875V-.029296875Z"/>
<path id="font_19_179" d="M.26953126-.015136719 .24609375-.06933594C.25683595-.06738281 .2669271-.06640625 .2763672-.06640625 .30273438-.06640625 .32348634-.072753909 .33862306-.08544922 .35375978-.09814453 .36132813-.114746097 .36132813-.1352539 .36132813-.15185547 .3557129-.16707357 .34448243-.1809082 .33325196-.19474285 .3190918-.20458985 .30200196-.21044922 .2849121-.2163086 .26497398-.21923828 .2421875-.21923828 .21061199-.21923828 .18115235-.21451824 .1538086-.20507813L.15185547-.19921875 .16357422-.1743164 .16894531-.171875C.18880208-.17903646 .20898438-.18261719 .22949219-.18261719 .24772136-.18261719 .26114909-.17838542 .2697754-.16992188 .2784017-.16145833 .28271485-.15201824 .28271485-.14160156 .28271485-.13020833 .27815757-.12101237 .26904298-.11401367 .25992839-.10701498 .24788411-.103515628 .23291016-.103515628 .22347005-.103515628 .2133789-.10514323 .20263672-.10839844L.19384766-.1015625 .23339844-.013671875C.17350261-.008463542 .12613933 .014729817 .091308597 .055908204 .056477865 .097086589 .0390625 .14973958 .0390625 .21386719 .0390625 .24446614 .04239909 .27172853 .049072267 .2956543 .05574544 .31958009 .064208988 .33935548 .07446289 .35498048 .0847168 .37060548 .09602865 .38297526 .10839844 .39208985 .12076823 .40120445 .14168294 .41389976 .17114258 .43017579 .20060222 .4464518 .22281902 .45711265 .23779297 .4621582 .25276695 .46720378 .2734375 .46972657 .2998047 .46972657 .3502604 .46972657 .39160157 .4601237 .42382813 .44091798 .41764323 .40413413 .4129232 .3631185 .40966798 .3178711L.40527345 .31396485H.3852539L.38085938 .31835938C.37955729 .34570313 .37776695 .36409507 .37548829 .37353517 .37320964 .38297526 .36027018 .3930664 .33666993 .4038086 .31306968 .41455079 .2879232 .41992188 .26123048 .41992188 .23453777 .41992188 .21077474 .41430665 .1899414 .40307618 .16910808 .3918457 .15340169 .37345378 .14282227 .3479004 .13224285 .32234703 .12695313 .29182945 .12695313 .25634767 .12695313 .22639974 .13118489 .19718425 .13964844 .16870117 .14811199 .1402181 .15926107 .116617839 .1730957 .09790039 .18693035 .079182948 .20524089 .0641276 .22802735 .052734376 .2508138 .041341146 .27620445 .03564453 .30419923 .03564453 .32177735 .03564453 .33894859 .037923177 .3557129 .04248047 .3724772 .04703776 .3917643 .05452474 .41357423 .064941409L.42382813 .052246095 .40429688 .01953125C.36328126-.0029296876 .31835938-.014485677 .26953126-.015136719Z"/>
<path id="font_19_168" d="M.103515628 .3310547 .084472659 .3359375 .080566409 .3408203V.4013672C.13850911 .44433595 .19482422 .4658203 .24951172 .4658203 .28694663 .4658203 .31803385 .45882163 .34277345 .44482423 .36751304 .4308268 .38541667 .41333009 .39648438 .39233399 .4075521 .3713379 .41308595 .34684245 .41308595 .31884767L.41064454 .22070313V.07519531C.41064454 .055338544 .41202799 .04329427 .41479493 .0390625 .41756187 .03483073 .4207357 .031982423 .4243164 .030517579 .42789714 .029052735 .4345703 .027832032 .44433595 .026855469L.47216798 .024414063 .47607423 .020019532V.00048828127L.47216798-.0034179688C.44840495-.0014648438 .42626954-.00048828127 .40576173-.00048828127 .38623048-.00048828127 .36279298-.0014648438 .33544923-.0034179688L.328125 .0034179688 .33007813 .08203125 .22363281-.0009765625C.20572917-.008463542 .18619792-.012207031 .16503906-.012207031 .13899739-.012207031 .116617839-.007486979 .09790039 .001953125 .079182948 .0113932299 .06486002 .024576823 .05493164 .041503908 .045003255 .05843099 .040039064 .078938808 .040039064 .103027347 .040039064 .1508789 .05501302 .18823242 .08496094 .21508789 .11490885 .24194336 .19661458 .2648112 .33007813 .2836914 .33007813 .3318685 .31933595 .36580406 .29785157 .38549806 .2763672 .40519206 .2475586 .41503907 .21142578 .41503907 .19254558 .41503907 .17537435 .41227214 .15991211 .40673829 .14444988 .40120445 .13557942 .39672853 .13330078 .39331056 .13102214 .38989259 .12223307 .36995445 .106933597 .3334961L.103515628 .3310547M.33007813 .25390626C.2389323 .23860677 .1821289 .22216797 .15966797 .20458985 .13720703 .18701172 .12597656 .15983074 .12597656 .123046878 .12597656 .072265628 .15120442 .046875 .20166016 .046875 .24495442 .046875 .2877604 .0719401 .33007813 .12207031V.25390626M.24707031 .49609376V.49609376M.2368164-.029296875V-.029296875M.41064454 .67871096C.4038086 .6484375 .3907064 .6229655 .3713379 .6022949 .3519694 .5816243 .3297526 .57128909 .3046875 .57128909 .28385417 .57128909 .25716148 .57958987 .22460938 .5961914 .1920573 .61279299 .16910808 .62109377 .15576172 .62109377 .1303711 .62109377 .111328128 .60465499 .09863281 .57177737H.07421875L.07128906 .5751953C.07714844 .6035156 .09000651 .62809249 .10986328 .6489258 .12972005 .6697591 .15185547 .6801758 .17626953 .6801758 .19677735 .6801758 .22363281 .671875 .25683595 .65527346 .2903646 .6386719 .3136393 .6303711 .32666017 .6303711 .35107423 .6303711 .3696289 .6476237 .38232423 .6821289H.40771485L.41064454 .67871096Z"/>
<clipPath id="clip_52">
<path transform="matrix(1,0,0,-1,0,648.12)" d="M.000006437 0H432V648.12H.000006437Z" fill-rule="evenodd"/>
</clipPath>
<clipPath id="clip_53">
<path transform="matrix(1,0,0,-1,0,648.12)" d="M.000006437 0H432V648.12H.000006437Z" fill-rule="evenodd"/>
</clipPath>
<path id="font_19_151" d="M.16699219 .46533204 .17626953 .45898438C.1743164 .43717448 .17301433 .40852867 .17236328 .37304688 .19840496 .39453126 .22314453 .41634117 .24658203 .43847657 .25341798 .44466148 .25984703 .44921876 .26586915 .45214845 .27189128 .45507813 .28190104 .45817057 .29589845 .46142579 .30989585 .464681 .32421876 .4663086 .3388672 .4663086 .36360679 .4663086 .38761393 .46126304 .41088868 .45117188 .43416343 .44108073 .45174156 .42911784 .46362306 .4152832 .47550456 .40144859 .48372398 .38509117 .48828126 .36621095 .49283854 .34733073 .4951172 .324056 .4951172 .29638673V.21044922C.4951172 .20491536 .495931 .16438802 .4975586 .08886719 .49820964 .057942708 .5016276 .03955078 .5078125 .033691408 .5139974 .027832032 .5341797 .024902344 .5683594 .024902344L.5722656 .020996094V0L.5683594-.00390625C.52701827-.0013020834 .49902345 0 .484375 0 .47591148 0 .45214845-.0013020834 .41308595-.00390625L.40722657 .0014648438C.41145835 .04378255 .41357423 .098958339 .41357423 .16699219V.23095703C.41357423 .2693685 .41267906 .29703776 .41088868 .31396485 .4090983 .33089195 .40364585 .3462728 .39453126 .36010743 .38541667 .37394206 .37320964 .38468424 .35791017 .39233399 .3426107 .39998374 .3243815 .4038086 .30322267 .4038086 .28629557 .4038086 .2718099 .4020996 .25976563 .39868165 .24772136 .39526368 .23421224 .38826499 .21923828 .37768556 .20426433 .3671061 .19319661 .35717774 .18603516 .3479004 .1788737 .33862306 .17456055 .32999674 .1730957 .32202149 .17163086 .31404624 .17089844 .29703776 .17089844 .2709961V.18603516C.17089844 .1788737 .17154949 .1558431 .17285156 .11694336 .17415364 .07804362 .17553711 .055338544 .17700196 .048828126 .1784668 .042317708 .18066406 .037597658 .18359375 .03466797 .18652344 .03173828 .19010417 .029866538 .19433594 .029052735 .1985677 .028238932 .21614583 .026855469 .24707031 .024902344L.25146485 .020996094V.00048828127L.2475586-.00390625C.20686849-.0013020834 .16764324 0 .12988281 0 .092447917 0 .053385419-.0013020834 .0126953129-.00390625L.008300781 .00048828127V.020996094L.0126953129 .024902344C.044270833 .026855469 .062093099 .028320313 .06616211 .029296875 .07023112 .030273438 .07381185 .03230794 .0769043 .03540039 .07999674 .03849284 .08211263 .04321289 .08325195 .049560548 .08439127 .055908204 .08569336 .0769043 .0871582 .11254883 .08862305 .14819336 .08935547 .1751302 .08935547 .19335938V.28955079C.08935547 .30257163 .08870443 .3203125 .087402347 .34277345 .08610026 .36523438 .08504232 .379069 .084228519 .38427735 .08341471 .3894857 .08089193 .39331056 .076660159 .39575196 .07242838 .39819337 .063964847 .39941407 .05126953 .39941407L.010253906 .39990235 .005859375 .4038086V.4248047L.009765625 .42871095C.0719401 .4361979 .12434896 .44840495 .16699219 .46533204Z"/>
<path id="font_19_16" d="M.032226564-.0034179688 .027832032 .0009765625V.0234375L.032226564 .02734375C.052083333 .027669272 .06795248 .028808594 .079833988 .030761719 .09171549 .032714845 .099365238 .03597005 .1027832 .040527345 .10620117 .045084638 .10847982 .052408857 .10961914 .0625 .11075846 .07259115 .11189779 .0953776 .11303711 .13085938 .11417643 .16634114 .114746097 .19173177 .114746097 .20703125V.6015625C.114746097 .61816409 .11173502 .63045248 .10571289 .63842776 .09969076 .646403 .09147135 .65144857 .08105469 .65356448 .07063802 .65568038 .052897138 .65690109 .027832032 .65722659L.023925782 .6611328V.68408206L.027832032 .68847659C.072753909 .68684896 .10221354 .68603518 .11621094 .68603518 .14908855 .68603518 .17610677 .68684896 .19726563 .68847659L.35302735 .48632813 .58203127 .19921875C.6097005 .16438802 .6378581 .13134766 .6665039 .100097659V.47802735C.6665039 .4897461 .66593429 .5147298 .6647949 .5529785 .6636556 .59122726 .66227218 .6154785 .66064456 .6257324 .6590169 .6359863 .65616866 .6429036 .6520996 .6464844 .6480306 .6500651 .64038088 .6527507 .6291504 .654541 .6179199 .65633139 .60270187 .65738937 .5834961 .65771487L.57958987 .6616211V.68408206L.5834961 .68847659C.6098633 .68684896 .64746096 .68603518 .69628909 .68603518 .74088546 .68603518 .7732747 .68684896 .79345706 .68847659L.79785159 .68408206V.6616211L.7939453 .65771487C.77246096 .65738937 .7558594 .65616866 .7441406 .65405276 .7324219 .6519368 .72509768 .6484375 .72216799 .6435547 .7192383 .6386719 .7172038 .63151046 .71606448 .6220703 .7149251 .6126302 .7137858 .59016928 .7126465 .5546875 .71150717 .51920577 .7109375 .49365235 .7109375 .47802735V.24609375L.7114258 .111816409C.71207687 .067871097 .71272787 .023763022 .7133789-.020507813 .69710287-.014973958 .6689453-.0081380209 .62890627 0L.5942383 .041015626 .49023438 .16796875 .15917969 .58154299V.20703125C.15917969 .1920573 .15974935 .16536458 .16088867 .12695313 .162028 .088541667 .16341146 .06526693 .16503906 .057128908 .16666667 .048990888 .16878255 .043375654 .17138672 .040283204 .17399089 .037190755 .17960613 .03434245 .18823242 .03173828 .19685872 .029134116 .21468099 .027669272 .24169922 .02734375L.24560547 .0234375V.00048828127L.24169922-.0034179688C.22477214-.0011393229 .19742839 0 .15966797 0 .11116537 0 .0686849-.0011393229 .032226564-.0034179688Z"/>
<path id="font_19_146" d="M.140625 .68359377C.15592449 .68359377 .16894531 .67822268 .1796875 .66748049 .19042969 .6567383 .19580078 .64371749 .19580078 .62841799 .19580078 .61344406 .19042969 .60058596 .1796875 .58984377 .16894531 .57910159 .15592449 .57373049 .140625 .57373049 .12565105 .57373049 .112711589 .5790202 .10180664 .5895996 .090901698 .600179 .08544922 .61311849 .08544922 .62841799 .08544922 .64371749 .090901698 .6567383 .10180664 .66748049 .112711589 .67822268 .12565105 .68359377 .140625 .68359377M.1821289 .46533204 .19140625 .45898438C.18782552 .41634117 .18603516 .36214195 .18603516 .29638673V.18603516C.18603516 .1788737 .1866862 .1558431 .18798828 .11694336 .18929036 .07804362 .19067383 .055338544 .19213867 .048828126 .19360352 .042317708 .19580078 .037597658 .19873047 .03466797 .20166016 .03173828 .20524089 .029866538 .20947266 .029052735 .21370442 .028238932 .23128255 .026855469 .26220704 .024902344L.26660157 .020996094V.00048828127L.2626953-.00390625C.2220052-.0013020834 .18277996 0 .14501953 0 .10758463 0 .06852213-.0013020834 .027832032-.00390625L.0234375 .00048828127V.020996094L.027832032 .024902344C.05940755 .026855469 .07722982 .028320313 .08129883 .029296875 .085367839 .030273438 .08894857 .03230794 .092041019 .03540039 .09513346 .03849284 .09724935 .04321289 .09838867 .049560548 .09952799 .055908204 .10083008 .0769043 .10229492 .11254883 .103759769 .14819336 .10449219 .1751302 .10449219 .19335938V.28955079C.10449219 .30257163 .10384115 .3203125 .10253906 .34277345 .10123698 .36523438 .10017904 .379069 .099365238 .38427735 .09855143 .3894857 .09602865 .39331056 .091796878 .39575196 .0875651 .39819337 .07910156 .39941407 .06640625 .39941407L.025390625 .39990235 .020996094 .4038086V.4248047L.024902344 .42871095C.08707682 .4361979 .13948567 .44840495 .1821289 .46533204M.14404297-.029296875V-.029296875Z"/>
<clipPath id="clip_54">
<path transform="matrix(1,0,0,-1,0,648.12)" d="M.000006437 0H432V648.12H.000006437Z" fill-rule="evenodd"/>
</clipPath>
<clipPath id="clip_55">
<path transform="matrix(1,0,0,-1,0,648.12)" d="M.000006437 0H432V648.12H.000006437Z" fill-rule="evenodd"/>
</clipPath>
<clipPath id="clip_56">
<path transform="matrix(1,0,0,-1,0,648.12)" d="M.000006437 0H432V648.12H.000006437Z" fill-rule="evenodd"/>
</clipPath>
<path id="font_19_18" d="M.028808594 .6899414C.110839847 .6873372 .16308594 .68603518 .18554688 .68603518 .21614583 .68603518 .25048829 .68684896 .28857423 .68847659 .3289388 .6897786 .35384117 .6904297 .36328126 .6904297 .40885417 .6904297 .4465332 .68570968 .47631837 .67626956 .5061035 .6668294 .5307617 .64957687 .55029299 .6245117 .5698242 .5994466 .57958987 .56917318 .57958987 .5336914 .57958987 .50439456 .5727539 .47607423 .55908206 .44873048 .54541018 .42138673 .5263672 .39811198 .5019531 .37890626 .47753907 .35970054 .45279948 .34594728 .42773438 .33764649 .40266929 .3293457 .3766276 .3251953 .34960938 .3251953 .3294271 .3251953 .30696617 .32747398 .28222657 .33203126L.27392579 .3618164 .2783203 .36669923C.30273438 .36116538 .32259117 .35839845 .33789063 .35839845 .38053385 .35839845 .41479493 .3724772 .44067384 .40063478 .46655274 .42879234 .4794922 .46484376 .4794922 .50878909 .4794922 .5530599 .46606446 .5883789 .43920899 .6147461 .41235353 .6411133 .37174479 .6542969 .3173828 .6542969 .2877604 .6542969 .25520835 .648763 .21972656 .6376953 .21679688 .6126302 .21533203 .5520833 .21533203 .4560547V.22998047L.21582031 .13476563C.21614583 .09798177 .21712239 .07421875 .21875 .06347656 .22037761 .052734376 .22273763 .045572919 .22583008 .041992189 .22892253 .038411458 .23486328 .03540039 .24365235 .032958986 .2524414 .030517579 .27408854 .028645834 .30859376 .02734375L.3125 .024414063V0L.30859376-.00390625C.22558594-.0013020834 .1788737 0 .16845703 0 .15738933 0 .110839847-.0013020834 .028808594-.00390625L.024902344 0V.024414063L.028808594 .02734375C.05908203 .028645834 .07926432 .030273438 .08935547 .032226564 .09944662 .034179689 .10620117 .036702474 .10961914 .039794923 .11303711 .04288737 .11580404 .049479169 .11791992 .059570314 .120035808 .06966146 .12125651 .0921224 .12158203 .12695313L.12207031 .22998047V.4560547L.12109375 .55126956C.12076823 .5883789 .11987305 .6123047 .1184082 .6230469 .11694336 .63378909 .11466471 .6409505 .111572269 .64453127 .10847982 .648112 .10253906 .6510417 .09375 .6533203 .08496094 .65559896 .063313808 .65738937 .028808594 .6586914L.024902344 .6621094V.68652346L.028808594 .6899414Z"/>
<clipPath id="clip_57">
<path transform="matrix(1,0,0,-1,0,648.12)" d="M.000006437 0H432V648.12H.000006437Z" fill-rule="evenodd"/>
</clipPath>
<clipPath id="clip_58">
<path transform="matrix(1,0,0,-1,0,648.12)" d="M.000006437 0H432V648.12H.000006437Z" fill-rule="evenodd"/>
</clipPath>
<clipPath id="clip_59">
<path transform="matrix(1,0,0,-1,0,648.12)" d="M.000006437 0H432V648.12H.000006437Z" fill-rule="evenodd"/>
</clipPath>
<clipPath id="clip_60">
<path transform="matrix(1,0,0,-1,0,648.12)" d="M.000006437 0H432V648.12H.000006437Z" fill-rule="evenodd"/>
</clipPath>
<clipPath id="clip_61">
<path transform="matrix(1,0,0,-1,0,648.12)" d="M.000006437 0H432V648.12H.000006437Z" fill-rule="evenodd"/>
</clipPath>
</defs>
<g>
<g clip-path="url(#clip_18)">
<use data-text="S" xlink:href="#font_19_21" transform="matrix(9.96,0,0,-9.96,165.77,33.119997)"/>
<use data-text="e" xlink:href="#font_19_142" transform="matrix(9.96,0,0,-9.96,171.03885,33.119997)"/>
<use data-text="g" xlink:href="#font_19_144" transform="matrix(9.96,0,0,-9.96,175.8097,33.119997)"/>
<use data-text="r" xlink:href="#font_19_155" transform="matrix(9.96,0,0,-9.96,181.34746,33.119997)"/>
<use data-text="e" xlink:href="#font_19_142" transform="matrix(9.96,0,0,-9.96,185.31154,33.119997)"/>
<use data-text="d" xlink:href="#font_19_141" transform="matrix(9.96,0,0,-9.96,190.08238,33.119997)"/>
<use data-text="o" xlink:href="#font_19_152" transform="matrix(9.96,0,0,-9.96,196.21775,33.119997)"/>
<use data-text=" " xlink:href="#font_19_561" transform="matrix(9.96,0,0,-9.96,201.61606,33.119997)"/>
<use data-text="D" xlink:href="#font_19_6" transform="matrix(9.96,0,0,-9.96,204.12598,33.119997)"/>
<use data-text="e" xlink:href="#font_19_142" transform="matrix(9.96,0,0,-9.96,211.83502,33.119997)"/>
<use data-text="s" xlink:href="#font_19_156" transform="matrix(9.96,0,0,-9.96,216.60587,33.119997)"/>
<use data-text="p" xlink:href="#font_19_153" transform="matrix(9.96,0,0,-9.96,220.8289,33.119997)"/>
<use data-text="e" xlink:href="#font_19_142" transform="matrix(9.96,0,0,-9.96,226.81487,33.119997)"/>
<use data-text="r" xlink:href="#font_19_155" transform="matrix(9.96,0,0,-9.96,231.58571,33.119997)"/>
<use data-text="t" xlink:href="#font_19_157" transform="matrix(9.96,0,0,-9.96,235.55976,33.119997)"/>
<use data-text="o" xlink:href="#font_19_152" transform="matrix(9.96,0,0,-9.96,238.80672,33.119997)"/>
</g>
<g clip-path="url(#clip_20)">
<use data-text=" " xlink:href="#font_19_561" transform="matrix(9.96,0,0,-9.96,244.39,33.119997)"/>
</g>
<g clip-path="url(#clip_21)">
</g>
<g clip-path="url(#clip_22)">
<use data-text="2" xlink:href="#font_19_344" transform="matrix(9.96,0,0,-9.96,202.61,609.696)"/>
</g>
<g clip-path="url(#clip_23)">
<use data-text=" " xlink:href="#font_24_3" transform="matrix(11.04,0,0,-11.04,207.65,609.696)"/>
</g>
<g clip-path="url(#clip_25)">
</g>
<g clip-path="url(#clip_26)">
<use data-text=" " xlink:href="#font_24_3" transform="matrix(11.04,0,0,-11.04,43.08,622.656)"/>
</g>
<g clip-path="url(#clip_27)">
</g>
<g clip-path="url(#clip_28)">
<use data-text=" " xlink:href="#font_29_561" transform="matrix(14.04,0,0,-14.04,78.504,69.380008)"/>
</g>
<g clip-path="url(#clip_30)">
<use data-text=" " xlink:href="#font_29_561" transform="matrix(14.04,0,0,-14.04,78.504,88.21997)"/>
</g>
<g clip-path="url(#clip_31)">
<use data-text=" " xlink:href="#font_29_561" transform="matrix(14.04,0,0,-14.04,78.504,107.17999)"/>
</g>
<g clip-path="url(#clip_32)">
<use data-text=" " xlink:href="#font_29_561" transform="matrix(14.04,0,0,-14.04,78.504,126.02002)"/>
</g>
<g clip-path="url(#clip_33)">
<use data-text=" " xlink:href="#font_29_561" transform="matrix(14.04,0,0,-14.04,78.504,144.85999)"/>
</g>
<g clip-path="url(#clip_34)">
<use data-text=" " xlink:href="#font_29_561" transform="matrix(14.04,0,0,-14.04,78.504,163.82)"/>
</g>
<g clip-path="url(#clip_35)">
<use data-text=" " xlink:href="#font_29_561" transform="matrix(14.04,0,0,-14.04,78.504,182.66)"/>
</g>
<g clip-path="url(#clip_36)">
<use data-text=" " xlink:href="#font_29_561" transform="matrix(14.04,0,0,-14.04,78.504,201.62)"/>
</g>
<g clip-path="url(#clip_37)">
<use data-text=" " xlink:href="#font_29_561" transform="matrix(14.04,0,0,-14.04,78.504,220.48999)"/>
</g>
<g clip-path="url(#clip_38)">
<use data-text=" " xlink:href="#font_29_561" transform="matrix(14.04,0,0,-14.04,78.504,239.32999)"/>
</g>
<g clip-path="url(#clip_39)">
<use data-text=" " xlink:href="#font_29_561" transform="matrix(14.04,0,0,-14.04,78.504,258.29)"/>
</g>
<g clip-path="url(#clip_40)">
<use data-text=" " xlink:href="#font_29_561" transform="matrix(14.04,0,0,-14.04,78.504,277.13)"/>
</g>
<g clip-path="url(#clip_41)">
<use data-text=" " xlink:href="#font_29_561" transform="matrix(14.04,0,0,-14.04,78.504,296.09)"/>
</g>
<g clip-path="url(#clip_42)">
<use data-text=" " xlink:href="#font_29_561" transform="matrix(14.04,0,0,-14.04,78.504,314.93)"/>
</g>
<g clip-path="url(#clip_43)">
<use data-text=" " xlink:href="#font_29_561" transform="matrix(14.04,0,0,-14.04,78.504,333.77)"/>
</g>
<g clip-path="url(#clip_44)">
<use data-text=" " xlink:href="#font_29_561" transform="matrix(14.04,0,0,-14.04,78.504,352.72999)"/>
</g>
<g clip-path="url(#clip_45)">
<use data-text=" " xlink:href="#font_29_561" transform="matrix(14.04,0,0,-14.04,78.504,371.59)"/>
</g>
<g clip-path="url(#clip_46)">
<use data-text=" " xlink:href="#font_29_561" transform="matrix(14.04,0,0,-14.04,78.504,390.55)"/>
</g>
<g clip-path="url(#clip_47)">
<use data-text=" " xlink:href="#font_29_561" transform="matrix(14.04,0,0,-14.04,78.504,409.39)"/>
</g>
<g clip-path="url(#clip_48)">
<use data-text=" " xlink:href="#font_29_561" transform="matrix(14.04,0,0,-14.04,78.504,428.22999)"/>
</g>
<g clip-path="url(#clip_49)">
<use data-text=" " xlink:href="#font_29_561" transform="matrix(14.04,0,0,-14.04,78.504,447.19)"/>
</g>
<g clip-path="url(#clip_50)">
<use data-text=" " xlink:href="#font_29_561" transform="matrix(14.04,0,0,-14.04,78.504,466.03)"/>
</g>
<g clip-path="url(#clip_51)">
<use data-text="I" xlink:href="#font_19_11" transform="matrix(12,0,0,-12,196.61,482.83003)"/>
<use data-text="l" xlink:href="#font_19_149" transform="matrix(12,0,0,-12,200.654,482.83003)"/>
<use data-text="u" xlink:href="#font_19_158" transform="matrix(12,0,0,-12,204.14601,482.83003)"/>
<use data-text="s" xlink:href="#font_19_156" transform="matrix(12,0,0,-12,211.38202,482.83003)"/>
<use data-text="t" xlink:href="#font_19_157" transform="matrix(12,0,0,-12,216.41002,482.83003)"/>
<use data-text="r" xlink:href="#font_19_155" transform="matrix(12,0,0,-12,220.35802,482.83003)"/>
<use data-text="a" xlink:href="#font_19_138" transform="matrix(12,0,0,-12,225.14603,482.83003)"/>
<use data-text="&#x00e7;" xlink:href="#font_19_179" transform="matrix(12,0,0,-12,231.14603,482.83003)"/>
<use data-text="&#x00e3;" xlink:href="#font_19_168" transform="matrix(12,0,0,-12,236.42603,482.83003)"/>
<use data-text="o" xlink:href="#font_19_152" transform="matrix(12,0,0,-12,242.42603,482.83003)"/>
</g>
<g clip-path="url(#clip_52)">
<use data-text=" " xlink:href="#font_19_561" transform="matrix(12,0,0,-12,249.07,482.83003)"/>
</g>
<g clip-path="url(#clip_53)">
<use data-text="S" xlink:href="#font_19_21" transform="matrix(12,0,0,-12,177.29,499.03)"/>
<use data-text="u" xlink:href="#font_19_158" transform="matrix(12,0,0,-12,183.638,499.03)"/>
<use data-text="s" xlink:href="#font_19_156" transform="matrix(12,0,0,-12,190.87401,499.03)"/>
<use data-text="a" xlink:href="#font_19_138" transform="matrix(12,0,0,-12,195.878,499.03)"/>
<use data-text="n" xlink:href="#font_19_151" transform="matrix(12,0,0,-12,201.878,499.03)"/>
<use data-text="a" xlink:href="#font_19_138" transform="matrix(12,0,0,-12,208.862,499.03)"/>
<use data-text=" " xlink:href="#font_19_561" transform="matrix(12,0,0,-12,214.862,499.03)"/>
<use data-text="N" xlink:href="#font_19_16" transform="matrix(12,0,0,-12,217.862,499.03)"/>
<use data-text="o" xlink:href="#font_19_152" transform="matrix(12,0,0,-12,227.798,499.03)"/>
<use data-text="g" xlink:href="#font_19_144" transform="matrix(12,0,0,-12,234.386,499.03)"/>
<use data-text="u" xlink:href="#font_19_158" transform="matrix(12,0,0,-12,241.094,499.03)"/>
<use data-text="e" xlink:href="#font_19_142" transform="matrix(12,0,0,-12,248.33,499.03)"/>
<use data-text="i" xlink:href="#font_19_146" transform="matrix(12,0,0,-12,254.078,499.03)"/>
<use data-text="r" xlink:href="#font_19_155" transform="matrix(12,0,0,-12,257.534,499.03)"/>
<use data-text="a" xlink:href="#font_19_138" transform="matrix(12,0,0,-12,262.322,499.03)"/>
</g>
<g clip-path="url(#clip_54)">
<use data-text=" " xlink:href="#font_19_561" transform="matrix(12,0,0,-12,268.39,499.03)"/>
</g>
<g clip-path="url(#clip_55)">
<use data-text=" " xlink:href="#font_19_561" transform="matrix(12,0,0,-12,222.77,515.26)"/>
</g>
<g clip-path="url(#clip_56)">
<use data-text="P" xlink:href="#font_19_18" transform="matrix(12,0,0,-12,205.73,531.45999)"/>
<use data-text="o" xlink:href="#font_19_152" transform="matrix(12,0,0,-12,212.93,531.45999)"/>
<use data-text="e" xlink:href="#font_19_142" transform="matrix(12,0,0,-12,219.51799,531.45999)"/>
<use data-text="s" xlink:href="#font_19_156" transform="matrix(12,0,0,-12,225.26599,531.45999)"/>
<use data-text="i" xlink:href="#font_19_146" transform="matrix(12,0,0,-12,230.318,531.45999)"/>
<use data-text="a" xlink:href="#font_19_138" transform="matrix(12,0,0,-12,233.81,531.45999)"/>
</g>
<g clip-path="url(#clip_57)">
<use data-text=" " xlink:href="#font_19_561" transform="matrix(12,0,0,-12,239.81,531.45999)"/>
</g>
<g clip-path="url(#clip_58)">
<use data-text="P" xlink:href="#font_19_18" transform="matrix(12,0,0,-12,181.13,547.66)"/>
<use data-text="a" xlink:href="#font_19_138" transform="matrix(12,0,0,-12,188.33,547.66)"/>
<use data-text="u" xlink:href="#font_19_158" transform="matrix(12,0,0,-12,194.33,547.66)"/>
<use data-text="l" xlink:href="#font_19_149" transform="matrix(12,0,0,-12,201.56601,547.66)"/>
<use data-text="a" xlink:href="#font_19_138" transform="matrix(12,0,0,-12,205.01001,547.66)"/>
<use data-text=" " xlink:href="#font_19_561" transform="matrix(12,0,0,-12,211.01001,547.66)"/>
<use data-text="N" xlink:href="#font_19_16" transform="matrix(12,0,0,-12,214.01001,547.66)"/>
<use data-text="o" xlink:href="#font_19_152" transform="matrix(12,0,0,-12,223.98201,547.66)"/>
<use data-text="g" xlink:href="#font_19_144" transform="matrix(12,0,0,-12,230.55802,547.66)"/>
<use data-text="u" xlink:href="#font_19_158" transform="matrix(12,0,0,-12,237.266,547.66)"/>
<use data-text="e" xlink:href="#font_19_142" transform="matrix(12,0,0,-12,244.50202,547.66)"/>
<use data-text="i" xlink:href="#font_19_146" transform="matrix(12,0,0,-12,250.25002,547.66)"/>
<use data-text="r" xlink:href="#font_19_155" transform="matrix(12,0,0,-12,253.70603,547.66)"/>
<use data-text="a" xlink:href="#font_19_138" transform="matrix(12,0,0,-12,258.49403,547.66)"/>
</g>
<g clip-path="url(#clip_59)">
<use data-text=" " xlink:href="#font_19_561" transform="matrix(12,0,0,-12,264.55,547.66)"/>
</g>
<g clip-path="url(#clip_60)">
<use data-text=" " xlink:href="#font_29_561" transform="matrix(14.04,0,0,-14.04,78.504,565.896)"/>
</g>
<g clip-path="url(#clip_61)">
<use data-text=" " xlink:href="#font_29_561" transform="matrix(14.04,0,0,-14.04,78.504,584.856)"/>
</g>
</g>
</svg>
