<svg xmlns="http://www.w3.org/2000/svg" xmlns:xlink="http://www.w3.org/1999/xlink" version="1.1" width="432" height="648.12" viewBox="0 0 432 648.12">
<defs>
<clipPath id="clip_0">
<path transform="matrix(1,0,0,-1,0,648.12)" d="M.000006437 0H432V648.12H.000006437Z" fill-rule="evenodd"/>
</clipPath>
<path id="font_1_561" d="M0 0Z"/>
<clipPath id="clip_2">
<path transform="matrix(1,0,0,-1,0,648.12)" d="M.000006437 0H432V648.12H.000006437Z" fill-rule="evenodd"/>
</clipPath>
<path id="font_1_21" d="M.052246095 .022460938C.06363932 .06542969 .071614589 .11295573 .076171878 .16503906L.08105469 .1694336H.1015625L.10498047 .16552735 .106933597 .071777347C.13102214 .052571615 .15405274 .040283204 .17602539 .03491211 .19799805 .029541016 .21875 .026855469 .23828125 .026855469 .29654948 .026855469 .34016929 .04353841 .36914063 .0769043 .39811198 .11027018 .41259767 .14827474 .41259767 .19091797 .41259767 .21272786 .40820313 .23128255 .39941407 .24658203 .390625 .2618815 .37898765 .27327476 .36450196 .28076173 .35001628 .2882487 .3232422 .29638673 .2841797 .30517579 .23925781 .31526695 .20605469 .32584635 .18457031 .33691407 .16308594 .34798179 .14648438 .36450196 .13476563 .3864746 .123046878 .40844728 .1171875 .43522135 .1171875 .46679688 .1171875 .5130208 .13004558 .5539551 .15576172 .5895996 .18147786 .62524417 .21402996 .6525879 .25341798 .67163088 .292806 .6906738 .3367513 .7001953 .3852539 .7001953 .43277995 .7001953 .47347007 .6901042 .5073242 .6699219L.50927737 .6640625C.50146487 .63216146 .49414063 .58968099 .4873047 .5366211L.48339845 .53271487H.46191407L.4580078 .5366211V.60839846C.4326172 .6383464 .39485679 .6533203 .34472657 .6533203 .31510417 .6533203 .28833009 .647054 .2644043 .6345215 .24047852 .62198898 .22184246 .60375979 .2084961 .579834 .19514974 .5559082 .18847656 .52978518 .18847656 .50146487 .18847656 .47639976 .19344075 .45548503 .20336914 .4387207 .21329753 .4219564 .2269694 .40966798 .24438477 .40185548 .26180015 .39404298 .2915039 .3852539 .3334961 .37548829 .3680013 .36767579 .39249674 .36116538 .40698243 .35595704 .4214681 .3507487 .43546549 .34220378 .4489746 .33032228 .46248374 .31844078 .472819 .30411784 .47998048 .28735353 .48714195 .2705892 .49072267 .25097657 .49072267 .22851563 .49072267 .18164063 .4764811 .13948567 .44799806 .10205078 .41951499 .06461588 .3853353 .034749349 .34545899 .012451172 .30558268-.009847005 .25797526-.020996094 .20263672-.020996094 .14957683-.020996094 .100097659-.008463542 .05419922 .016601563L.052246095 .022460938Z"/>
<path id="font_1_142" d="M.32910157 .10449219 .33447267 .092285159 .3334961 .0859375C.25341798 .018229166 .18554688-.015625 .12988281-.015625 .11165365-.015625 .09309896-.010660808 .07421875-.0007324219 .055338544 .009195964 .041259767 .0234375 .031982423 .041992189 .022705079 .060546876 .018066407 .0843099 .018066407 .11328125 .018066407 .15397136 .024820963 .197347 .038330079 .2434082 .05183919 .2894694 .065348308 .32348634 .07885742 .34545899 .09236654 .36743165 .11263021 .3881022 .13964844 .4074707 .16666667 .4268392 .19230144 .4424642 .21655274 .4543457 .24080403 .4662272 .2643229 .47216798 .28710938 .47216798 .31184898 .47216798 .33203126 .46565757 .34765626 .45263673 .36328126 .43961589 .37109376 .42154948 .37109376 .3984375 .37109376 .3720703 .36360679 .34773765 .3486328 .32543946 .33365885 .30314128 .3063151 .2820638 .26660157 .26220704 .22688802 .24235027 .17936199 .22607422 .12402344 .2133789L.10107422 .20800781C.094563808 .17675781 .091308597 .15071614 .091308597 .12988281 .091308597 .10058594 .09781901 .077311199 .110839847 .060058595 .12386068 .04280599 .14208985 .034179689 .16552735 .034179689 .20947266 .034179689 .26220704 .05826823 .32373048 .10644531L.32910157 .10449219M.10449219 .2319336C.13867188 .23811849 .17114258 .24780274 .2019043 .26098634 .23266602 .27416993 .25626628 .29174806 .27270509 .3137207 .2891439 .33569337 .29736329 .3580729 .29736329 .38085938 .29736329 .3984375 .29296876 .41145835 .2841797 .41992188 .27539063 .4283854 .2648112 .4326172 .2524414 .4326172 .23876953 .4326172 .22273763 .42871095 .2043457 .42089845 .18595378 .41308595 .16967774 .39876304 .15551758 .3779297 .14135742 .35709635 .12434896 .308431 .10449219 .2319336M.23779297 .5024414V.5024414M.14746094-.053222658V-.053222658Z"/>
<path id="font_1_144" d="M.17480469 .014160156C.16015625 .029459635 .15283203 .040852865 .15283203 .048339845 .15283203 .056152345 .15779622 .06648763 .16772461 .0793457 .177653 .09220377 .19498699 .109375 .21972656 .13085938 .21028646 .13020833 .20263672 .12988281 .19677735 .12988281 .15804036 .12988281 .12727864 .14005535 .10449219 .16040039 .08170573 .18074544 .0703125 .21110027 .0703125 .25146485 .0703125 .27978517 .07584635 .30802409 .08691406 .33618165 .09798177 .3643392 .11303711 .38728843 .13208008 .4050293 .15112305 .42277018 .17407227 .43815104 .20092774 .45117188 .2277832 .46419273 .2569987 .47070313 .28857423 .47070313 .3445638 .47070313 .38346354 .45247398 .40527345 .41601563 .44303385 .41666667 .4711914 .41878257 .4897461 .42236329L.49169923 .41992188 .48388673 .37109376C.47509767 .37174479 .46663413 .3720703 .4584961 .3720703 .44710288 .3720703 .43408204 .37141929 .4194336 .3701172 .4207357 .35970054 .42138673 .3502604 .42138673 .34179688 .42138673 .2955729 .4063314 .25382487 .3762207 .21655274 .34611003 .1792806 .3055013 .15364583 .25439454 .13964844 .23616536 .122395839 .22705078 .1077474 .22705078 .095703128 .22705078 .083333339 .23185222 .07169596 .24145508 .060791017 .25105796 .049886068 .2801107 .024414063 .32861329-.015625 .35660807-.038411458 .3749186-.05843099 .38354493-.075683597 .39217124-.092936199 .39648438-.109375 .39648438-.125 .39648438-.16699219 .3733724-.20296224 .32714845-.23291016 .28092448-.26285807 .22298177-.27783204 .15332031-.27783204 .09667969-.27783204 .053466798-.26708985 .02368164-.24560547-.0061035158-.2241211-.020996094-.1953125-.020996094-.15917969-.020996094-.13802083-.015136719-.11702474-.0034179688-.096191409 .008300781-.07535807 .030110678-.05485026 .06201172-.03466797 .09391276-.014485677 .13151042 .0017903646 .17480469 .014160156M.14111328 .27001954C.14111328 .23649089 .14900716 .21020508 .16479492 .19116211 .18058269 .17211914 .20345052 .16259766 .23339844 .16259766 .27246095 .16259766 .30143229 .18033855 .3203125 .21582031 .33919273 .2513021 .3486328 .2915039 .3486328 .33642579 .3486328 .3585612 .3453776 .37711589 .3388672 .39208985 .33235679 .4070638 .32234703 .41878257 .3088379 .4272461 .29532878 .43570964 .2788086 .4399414 .25927735 .4399414 .22151692 .4399414 .19238281 .4231771 .171875 .38964845 .15136719 .35611979 .14111328 .3162435 .14111328 .27001954M.19042969-.0034179688C.16276042-.010253906 .13655599-.021484375 .111816409-.037109376 .08707682-.052734376 .06941732-.06982422 .05883789-.088378909 .048258466-.106933597 .04296875-.12630208 .04296875-.14648438 .04296875-.17903646 .05574544-.20450847 .08129883-.22290039 .10685221-.24129232 .13997396-.25048829 .18066406-.25048829 .20865886-.25048829 .23413086-.24658203 .25708009-.23876953 .2800293-.23095703 .2980143-.21948242 .31103517-.2043457 .324056-.18920899 .3305664-.1726888 .3305664-.15478516 .3305664-.14339192 .32779948-.13183594 .32226563-.12011719 .31673179-.10839844 .30973307-.09855143 .30126954-.09057617 .292806-.082600917 .27864585-.071126308 .25878907-.056152345L.19042969-.0034179688Z"/>
<path id="font_1_155" d="M.05810547-.0146484379 .049316408-.0078125C.07210287 .06673177 .091145839 .14461263 .10644531 .22583008 .12174479 .30704753 .12939453 .35921226 .12939453 .38232423 .12939453 .39697267 .12548828 .40429688 .11767578 .40429688 .107910159 .40429688 .08089193 .38964845 .036621095 .36035157L.030761719 .3618164 .025878907 .3725586 .02734375 .3798828C.056315107 .40299479 .08683268 .42415367 .118896488 .44335938 .15096028 .4625651 .17447917 .47216798 .18945313 .47216798 .20247396 .47216798 .20898438 .46402995 .20898438 .4477539 .20898438 .4288737 .19710286 .3658854 .17333985 .25878907 .20361328 .31184898 .23323567 .35668946 .26220704 .39331056 .29117839 .42993165 .3120931 .45239259 .32495118 .46069337 .33780924 .46899415 .35058595 .47314454 .36328126 .47314454 .36914063 .47314454 .375 .47184245 .38085938 .46923829L.3828125 .4638672C.3779297 .44596354 .37239585 .41129557 .36621095 .35986329L.35253907 .3569336C.34309898 .36995445 .332194 .37646485 .31982423 .37646485 .31070964 .37646485 .2997233 .37272135 .28686524 .36523438 .27400718 .3577474 .25813804 .3426107 .23925781 .31982423 .22037761 .29703776 .20402019 .27124024 .19018555 .24243164 .1763509 .21362305 .16520183 .1821289 .15673828 .14794922 .14827474 .11376953 .13753255 .06526693 .12451172 .0024414063 .09163412-.0050455729 .069498699-.0107421879 .05810547-.0146484379Z"/>
<path id="font_1_141" d="M.47265626 .7182617 .48486329 .7089844C.4695638 .64453127 .45214845 .56559249 .4326172 .47216798L.375 .19677735C.3658854 .14990235 .3601888 .11669922 .35791017 .09716797 .35725913 .09098307 .3569336 .084635417 .3569336 .078125 .3569336 .0625 .36149089 .0546875 .37060548 .0546875 .38297526 .0546875 .40885417 .0703125 .4482422 .1015625L.45361329 .100097659 .4584961 .08886719 .45703126 .08251953C.4267578 .056152345 .39697267 .033610029 .36767579 .014892578 .3383789-.0038248699 .31754557-.013183594 .30517579-.013183594 .29833985-.013183594 .2927246-.009521484 .28833009-.0021972657 .28393556 .005126953 .28173829 .016113282 .28173829 .030761719 .28173829 .04280599 .2840983 .060953779 .28881837 .08520508 .29353843 .10945638 .3022461 .14811199 .3149414 .20117188L.3125 .20166016C.27734376 .14241536 .23543294 .091796878 .18676758 .049804689 .13810222 .0078125 .100097659-.013183594 .072753909-.013183594 .06298828-.013183594 .0546875-.009765625 .047851564-.0029296876 .041015626 .00390625 .03548177 .016438803 .03125 .03466797 .027018229 .052897138 .024902344 .07210287 .024902344 .092285159 .024902344 .11995443 .029459635 .15527344 .03857422 .19824219 .0476888 .24121094 .059244794 .2784017 .07324219 .30981446 .087239589 .3412272 .1011556 .36490885 .114990238 .38085938 .12882488 .3968099 .14729817 .41259767 .17041016 .42822267 .19352214 .44384767 .21346028 .45507813 .23022461 .46191407 .24698894 .46875 .26416017 .47216798 .28173829 .47216798 .3006185 .47216798 .32796226 .46809898 .36376954 .45996095L.38916017 .60791018C.3917643 .62027999 .3930664 .6306966 .3930664 .63916018 .3930664 .6463216 .3905436 .6513672 .38549806 .6542969 .38045249 .65722659 .37141929 .6586914 .35839845 .6586914L.3173828 .6591797 .31347657 .66308596 .3149414 .67529299 .31884767 .6796875C.37972007 .6894531 .4309896 .7023112 .47265626 .7182617M.3544922 .4038086C.32389323 .41975913 .29231773 .42773438 .25976563 .42773438 .23958333 .42773438 .2232259 .4255371 .21069336 .42114259 .19816081 .41674806 .1887207 .41129557 .18237305 .40478517 .17602539 .39827476 .16772461 .38419596 .1574707 .36254884 .1472168 .3409017 .13720703 .31437174 .1274414 .28295899 .11767578 .25154624 .11010742 .22062175 .10473633 .19018555 .099365238 .15974935 .09667969 .1303711 .09667969 .10205078 .09667969 .084472659 .098470058 .072265628 .10205078 .06542969 .10563151 .05859375 .11116537 .05517578 .118652347 .05517578 .13102214 .05517578 .14860027 .06233724 .17138672 .076660159 .20589192 .09879557 .2368164 .12841797 .26416017 .16552735 .2915039 .20263672 .31201173 .2421875 .3256836 .2841797 .3318685 .3033854 .34147135 .34326173 .3544922 .4038086Z"/>
<path id="font_1_152" d="M.019042969 .13623047C.019042969 .19840496 .029622397 .25504557 .05078125 .30615235 .0719401 .35725913 .10424805 .39786784 .14770508 .42797853 .19116211 .4580892 .2335612 .47314454 .27490235 .47314454 .31266276 .47314454 .34440104 .46166993 .3701172 .4387207 .39583335 .41577149 .4086914 .37646485 .4086914 .32080079 .4086914 .26611329 .39656578 .21077474 .37231446 .15478516 .34806315 .09879557 .31477867 .056477865 .27246095 .027832032 .23014324-.00081380209 .18863933-.015136719 .14794922-.015136719 .12093099-.015136719 .09733073-.008870442 .07714844 .0036621094 .056966146 .016194663 .042236329 .033284505 .032958986 .05493164 .02368164 .07657877 .019042969 .10367838 .019042969 .13623047M.09716797 .1430664C.09716797 .11507162 .0999349 .09285482 .10546875 .076416019 .1110026 .059977216 .12076823 .04679362 .13476563 .036865236 .14876302 .02693685 .16601563 .021972657 .18652344 .021972657 .20800781 .021972657 .22688802 .027669272 .24316406 .0390625 .2594401 .05045573 .27490235 .071614589 .28955079 .10253906 .30419923 .13346355 .31486003 .16805013 .3215332 .20629883 .3282064 .24454753 .33154298 .27978517 .33154298 .31201173 .33154298 .34163413 .328125 .36539714 .32128907 .38330079 .31445313 .40120445 .30436198 .41471354 .29101563 .42382813 .27766929 .43294273 .261556 .4375 .24267578 .4375 .19254558 .4375 .15576172 .4074707 .13232422 .3474121 .10888672 .28735353 .09716797 .21923828 .09716797 .1430664M.2524414 .5024414V.5024414M.16210938-.053222658V-.053222658Z"/>
<clipPath id="clip_3">
<path transform="matrix(1,0,0,-1,0,648.12)" d="M.000006437 0H432V648.12H.000006437Z" fill-rule="evenodd"/>
</clipPath>
<path id="font_1_6" d="M.03955078-.0034179688 .03564453 0 .038085939 .020996094 .041992189 .024902344C.060221357 .028157553 .07080078 .030598959 .07373047 .032226564 .076660159 .033854169 .079833988 .036946615 .08325195 .041503908 .08666992 .0460612 .09049479 .056477865 .09472656 .072753909 .098958339 .089029949 .10970052 .14355469 .12695313 .23632813L.15673828 .4033203 .1743164 .5102539C.1850586 .58284506 .19042969 .6241862 .19042969 .63427737 .19042969 .6427409 .1887207 .64851889 .18530274 .6516113 .18188477 .6547038 .1751302 .65681967 .16503906 .657959 .15494792 .6590983 .13720703 .66015627 .111816409 .6611328L.10839844 .66552737 .110839847 .68603518 .115722659 .6899414C.14697266 .6876628 .18798828 .68652346 .23876953 .68652346L.4248047 .6894531C.48404948 .6894531 .5310872 .6853841 .56591799 .6772461 .6007487 .6691081 .63167318 .65511068 .6586914 .6352539 .68570968 .61539718 .7067871 .5878906 .7219238 .5527344 .73706057 .5175781 .7446289 .47639976 .7446289 .42919923 .7446289 .38492839 .7381999 .34187828 .7253418 .30004884 .7124837 .2582194 .69344076 .21891277 .6682129 .1821289 .64298507 .14534505 .6139323 .113850917 .5810547 .087646488 .54817709 .06144206 .5184733 .04239909 .49194337 .030517579 .46541343 .018636069 .43652345 .009847005 .40527345 .0041503908 .37402345-.001546224 .3375651-.0043945314 .29589845-.0043945314 .2672526-.0043945314 .23502605-.0035807293 .19921875-.001953125 .16894531-.0006510417 .13948567 0 .110839847 0 .08382162 0 .060058595-.0011393229 .03955078-.0034179688M.17822266 .0546875C.23746746 .044270833 .29459635 .0390625 .34960938 .0390625 .39876304 .0390625 .44091798 .048502607 .47607423 .06738281 .51123049 .08626302 .5422363 .11319987 .5690918 .14819336 .59594729 .18318685 .616862 .22550456 .63183596 .27514649 .6468099 .32478843 .6542969 .37272135 .6542969 .4189453 .6542969 .45117188 .64990237 .4818522 .6411133 .5109863 .6323242 .5401204 .6163737 .56640627 .5932617 .58984377 .5701497 .61328127 .54052737 .6288249 .50439456 .6364746 .46826173 .6441243 .42773438 .6479492 .3828125 .6479492 .34765626 .6479492 .31233726 .6461589 .27685548 .6425781L.24121094 .4482422 .19970703 .20605469C.18798828 .13769531 .18082683 .087239589 .17822266 .0546875Z"/>
<path id="font_1_156" d="M.01171875 .011230469C.023111979 .06266276 .029785157 .104003909 .03173828 .1352539L.03564453 .13916016H.052246095L.056152345 .1352539V.056640626C.08544922 .03157552 .11751302 .019042969 .15234375 .019042969 .16796875 .019042969 .18310547 .021647135 .1977539 .026855469 .21240235 .0320638 .22460938 .03914388 .234375 .048095704 .24414063 .057047529 .25195313 .06892904 .2578125 .083740238 .26367188 .09855143 .26660157 .11360677 .26660157 .12890625 .26660157 .13932292 .26456706 .14941406 .26049806 .15917969 .25642906 .16894531 .2495931 .17683919 .23999024 .18286133 .23038738 .18888347 .21110027 .1944987 .1821289 .19970703 .15283203 .20491536 .13216146 .20922852 .12011719 .21264649 .108072917 .21606446 .096354167 .2220052 .08496094 .23046875 .07356771 .2389323 .06453451 .25 .057861329 .26367188 .051188154 .27734376 .047851564 .29215495 .047851564 .30810548 .047851564 .32991538 .052978517 .34969078 .06323242 .36743165 .07348633 .38517253 .08870443 .40185548 .10888672 .41748048 .12906902 .43310548 .14998372 .4461263 .17163086 .45654298 .193278 .46695964 .21712239 .47216798 .24316406 .47216798 .28157554 .47216798 .31396485 .46435548 .34033204 .44873048L.34228517 .44335938C.3367513 .42447917 .33317057 .4073893 .33154298 .39208985L.3256836 .33740235 .32177735 .3334961H.30664063L.3022461 .33740235C.3022461 .35660807 .3017578 .37532554 .30078126 .3935547 .27799479 .41861979 .24723308 .43115235 .2084961 .43115235 .17789714 .43115235 .15332031 .4222819 .13476563 .40454103 .11621094 .38680015 .106933597 .3655599 .106933597 .3408203 .106933597 .32063804 .11311849 .3046875 .12548828 .29296876 .13785808 .28125 .16129558 .27278648 .19580078 .26757813 .22672527 .26302085 .24869792 .2591146 .26171876 .25585938 .2747396 .25260417 .28678385 .24715169 .29785157 .23950196 .30891929 .23185222 .31762696 .22192383 .3239746 .2097168 .33032228 .19750977 .3334961 .18375652 .3334961 .16845703 .3334961 .15022786 .32999674 .1324056 .32299806 .114990238 .31599937 .09757487 .30607096 .08154297 .2932129 .06689453 .28035484 .052246095 .26204429 .037027997 .23828125 .021240235 .21451824 .005452474 .19352214-.0053710939 .17529297-.011230469 .1570638-.017089844 .13769531-.020019532 .1171875-.020019532 .0843099-.020019532 .049804689-.0113932299 .013671875 .005859375L.01171875 .011230469Z"/>
<path id="font_1_153" d="M.0009765625-.27783204-.0048828127-.27197267 .009765625-.20507813C.019205729-.16243489 .033528646-.08919271 .052734376 .0146484379L.08984375 .21923828C.095052089 .25179038 .09928385 .28173829 .10253906 .30908204L.10888672 .36669923C.110188808 .37776695 .110839847 .3852539 .110839847 .38916017 .110839847 .40022788 .10644531 .40576173 .09765625 .40576173 .09342448 .40576173 .08666992 .4034017 .07739258 .39868165 .068115238 .39396159 .04736328 .3811849 .015136719 .36035157L.0087890629 .3623047 .0043945314 .37304688 .005859375 .3803711C.037434896 .40608726 .068603519 .42773438 .099365238 .4453125 .13012696 .46289063 .15315755 .4716797 .16845703 .4716797 .18343099 .4716797 .19091797 .46402995 .19091797 .44873048 .19091797 .4308268 .18196614 .37711589 .1640625 .28759767 .20084636 .34847007 .24186199 .3942871 .28710938 .42504884 .33235679 .45581056 .37109376 .4711914 .4033203 .4711914 .41796876 .4711914 .42895509 .46720378 .4362793 .45922853 .44360353 .45125328 .44970704 .43806968 .45458985 .41967774 .45947267 .4012858 .46191407 .3811849 .46191407 .359375 .46191407 .3294271 .45662437 .29516603 .44604493 .2565918 .43546549 .21801758 .4231771 .18497722 .4091797 .1574707 .39518229 .12996419 .37890626 .106526698 .36035157 .0871582 .34179688 .06778971 .31958009 .05021159 .29370118 .034423829 .26782228 .018636069 .2454427 .0065104167 .2265625-.001953125 .2076823-.010416667 .19222005-.0146484379 .18017578-.0146484379 .17138672-.0146484379 .16308594-.013753255 .15527344-.011962891 .14746094-.010172526 .13411458-.0063476564 .115234378-.00048828127L.07421875-.26171876C.03873698-.26660157 .014322917-.27197267 .0009765625-.27783204M.125 .0546875C.15266927 .0390625 .1805013 .03125 .2084961 .03125 .23258464 .03125 .25358073 .036783857 .27148438 .047851564 .28938804 .05891927 .30802409 .08382162 .32739259 .122558597 .34676109 .16129558 .36149089 .20076497 .37158204 .2409668 .3816732 .2811686 .38671876 .31640626 .38671876 .3466797 .38671876 .3733724 .3841146 .3914388 .37890626 .4008789 .3736979 .410319 .36490885 .41503907 .35253907 .41503907 .33626304 .41503907 .31803385 .4099935 .29785157 .39990235 .27766929 .3898112 .25594078 .37182618 .23266602 .34594728 .20939128 .32006837 .18929036 .28889976 .17236328 .2524414 .16129558 .22835286 .15152996 .19710286 .1430664 .1586914L.125 .0546875Z"/>
<path id="font_1_157" d="M.26757813 .10839844 .27294923 .09716797 .27148438 .091308597C.25878907 .08024088 .23673503 .06339518 .20532227 .040771486 .1739095 .018147788 .15128581 .0030110677 .13745117-.004638672 .12361654-.012288411 .11165365-.016113282 .1015625-.016113282 .0921224-.016113282 .08455404-.01171875 .07885742-.0029296876 .073160808 .005859375 .0703125 .018391928 .0703125 .03466797 .0703125 .0538737 .07584635 .08821615 .08691406 .13769531 .099609378 .19498699 .115885417 .27652995 .13574219 .38232423L.056152345 .3803711 .052734376 .38427735 .05419922 .39257813 .05810547 .39648438C.092936199 .40885417 .12093099 .4207357 .14208985 .4321289 .14827474 .46077476 .15673828 .51692709 .16748047 .60058596 .2023112 .6152344 .22786458 .6269531 .24414063 .6357422L.25585938 .6269531 .2368164 .5522461C.23453777 .54280599 .22591146 .5008138 .2109375 .42626954 .22558594 .42529298 .23746746 .4248047 .24658203 .4248047 .2788086 .4248047 .30159507 .42708335 .3149414 .43164063L.31982423 .42773438 .30859376 .3798828C.29654948 .3798828 .26106773 .38069663 .20214844 .38232423 .16601563 .20882161 .14794922 .10660807 .14794922 .075683597 .14794922 .060709638 .15413411 .053222658 .1665039 .053222658 .1726888 .053222658 .1809082 .055908204 .19116211 .061279298 .20141602 .06665039 .21923828 .07861328 .2446289 .09716797L.26171876 .11035156 .26757813 .10839844Z"/>
<clipPath id="clip_4">
<path transform="matrix(1,0,0,-1,0,648.12)" d="M.000006437 0H432V648.12H.000006437Z" fill-rule="evenodd"/>
</clipPath>
<clipPath id="clip_5">
<path transform="matrix(1,0,0,-1,0,648.12)" d="M.000006437 0H432V648.12H.000006437Z" fill-rule="evenodd"/>
</clipPath>
<path id="font_6_20" d="M.020507813 .68652346 .024414063 .6899414C.083984378 .6873372 .1303711 .68603518 .16357422 .68603518 .20035808 .68603518 .25 .6871745 .3125 .6894531 .33561198 .6901042 .3523763 .6904297 .36279298 .6904297 .44514976 .6904297 .50097659 .67545577 .53027346 .6455078 .5595703 .6155599 .57421877 .5800781 .57421877 .5390625 .57421877 .51171877 .5670573 .48486329 .5527344 .4584961 .53841146 .4321289 .5172526 .40958659 .4892578 .39086915 .46126304 .3721517 .4226888 .3580729 .37353517 .3486328 .38264976 .3359375 .39908854 .31396485 .42285157 .28271485L.4921875 .19091797C.51464846 .16064453 .538737 .12866211 .5644531 .0949707 .59016928 .061279298 .6067708 .042236329 .6142578 .037841798 .6217448 .033447267 .6281738 .030761719 .6335449 .029785157 .638916 .028808594 .64746096 .028320313 .6591797 .028320313L.66308596 .024414063V.0014648438L.6586914-.0029296876C.6430664-.0009765625 .6245117 0 .60302737 0 .57991537 0 .5546875-.0009765625 .52734377-.0029296876 .5048828 .024414063 .4695638 .071777347 .42138673 .13916016 .36539714 .21728516 .30810548 .28971354 .24951172 .3564453L.25439454 .37158204C.27132163 .37060548 .28450523 .3701172 .2939453 .3701172 .3502604 .3701172 .3943685 .3836263 .42626954 .41064454 .45817057 .43766276 .4741211 .47509767 .4741211 .5229492 .4741211 .56591799 .4597982 .5983887 .43115235 .6203613 .4025065 .642334 .36376954 .6533203 .3149414 .6533203 .28076173 .6533203 .24853516 .6486003 .21826172 .63916018 .2133789 .6319987 .2109375 .57096359 .2109375 .4560547V.22998047L.21142578 .13476563C.2117513 .09798177 .21272786 .07421875 .21435547 .06347656 .21598308 .052734376 .2183431 .045572919 .22143555 .041992189 .224528 .038411458 .23046875 .03540039 .23925781 .032958986 .24804688 .030517579 .269694 .028645834 .30419923 .02734375L.30810548 .024414063V0L.30419923-.00390625C.30257163-.00390625 .27392579-.0029296876 .21826172-.0009765625 .19514974-.00032552085 .17708333 0 .1640625 0 .15397136 0 .107421878-.0013020834 .024414063-.00390625L.020507813 0V.024414063L.024414063 .02734375C.0546875 .028645834 .07486979 .030273438 .08496094 .032226564 .095052089 .034179689 .10180664 .036702474 .10522461 .039794923 .10864258 .04288737 .11140951 .049479169 .11352539 .059570314 .11564127 .06966146 .11686198 .0921224 .1171875 .12695313L.11767578 .22998047V.4560547L.11669922 .55126956C.116373699 .5883789 .115478519 .6123047 .11401367 .6230469 .11254883 .63378909 .11027018 .6409505 .107177738 .64453127 .10408529 .648112 .09814453 .6510417 .08935547 .6533203 .080566409 .65559896 .05891927 .65738937 .024414063 .6586914L.020507813 .6621094V.68652346Z"/>
<path id="font_6_152" d="M.033203126 .22363281C.033203126 .26236979 .041178388 .2997233 .057128908 .33569337 .07307943 .37166343 .10083008 .40275065 .14038086 .42895509 .17993164 .45515953 .22688802 .46826173 .28125 .46826173 .34960938 .46826173 .40527345 .44669596 .4482422 .40356446 .49121095 .36043296 .5126953 .30501304 .5126953 .23730469 .5126953 .16276042 .4880371 .10139974 .4387207 .053222658 .3894043 .0050455729 .32991538-.019042969 .2602539-.019042969 .21468099-.019042969 .17399089-.006754557 .1381836 .017822266 .102376308 .04239909 .075927738 .07242838 .05883789 .107910159 .041748048 .14339192 .033203126 .18196614 .033203126 .22363281M.12548828 .25732423C.12548828 .2117513 .13134766 .17097982 .1430664 .13500977 .15478516 .09903971 .17333985 .07014974 .19873047 .048339845 .2241211 .026529948 .25309245 .015625 .28564454 .015625 .324056 .015625 .35579429 .0308431 .38085938 .061279298 .40592448 .09171549 .41845704 .13753255 .41845704 .19873047 .41845704 .2680664 .40486656 .32486979 .37768556 .36914063 .35050456 .41341148 .3113607 .43554688 .2602539 .43554688 .2179362 .43554688 .18489583 .4202474 .16113281 .38964845 .1373698 .35904948 .12548828 .3149414 .12548828 .25732423M.2734375 .49609376V.49609376M.26611329-.029296875V-.029296875Z"/>
<path id="font_6_150" d="M.1796875 .46533204 .18896485 .45898438C.18701172 .4375 .18570964 .41178385 .1850586 .38183595L.23144531 .4243164C.24446614 .4363607 .25309245 .4440918 .25732423 .44750978 .261556 .45092774 .27148438 .45491538 .28710938 .45947267 .30273438 .46402995 .3191732 .4663086 .33642579 .4663086 .36897788 .4663086 .39746095 .45825196 .421875 .44213868 .44628907 .4260254 .46435548 .4038086 .47607423 .37548829 .52001956 .41715495 .5456543 .44026695 .5529785 .44482423 .56030276 .4493815 .5719401 .45402018 .5878906 .45874024 .6038411 .4634603 .6197917 .4658203 .6357422 .4658203 .6614583 .4658203 .6850586 .46028648 .70654299 .44921876 .72802737 .43815104 .7451172 .42366538 .7578125 .40576173 .7705078 .38785807 .7779134 .3684896 .7800293 .34765626 .7821452 .3268229 .7832031 .2981771 .7832031 .26171876V.21044922C.7832031 .20491536 .7841797 .16438802 .7861328 .08886719 .7867839 .057942708 .79020187 .03955078 .7963867 .033691408 .8025716 .027832032 .8225911 .024902344 .8564453 .024902344L.86035159 .020996094V0L.8564453-.00390625C.8151042-.0013020834 .7871094 0 .77246096 0 .76432296 0 .74072268-.0013020834 .70166018-.00390625L.6953125 .0014648438C.69954428 .04378255 .70166018 .098958339 .70166018 .16699219V.22558594C.70166018 .27734376 .69921877 .31355796 .69433596 .33422853 .6894531 .35489909 .6780599 .37182618 .66015627 .38500978 .6422526 .39819337 .62093099 .40478517 .5961914 .40478517 .5786133 .40478517 .5621745 .4012858 .546875 .3942871 .5315755 .38728843 .51782229 .37687174 .50561526 .3630371 .4934082 .34920249 .48665367 .3363444 .48535157 .3244629 .48404948 .3125814 .48339845 .2906901 .48339845 .25878907V.1977539C.48339845 .18343099 .48404948 .15657552 .48535157 .1171875 .48665367 .07779948 .4880371 .05485026 .48950196 .048339845 .4909668 .041829427 .49324546 .037190755 .4963379 .034423829 .49943034 .031656904 .50301107 .029866538 .5070801 .029052735 .5111491 .028238932 .5286458 .026855469 .5595703 .024902344L.56396487 .020996094V.00048828127L.5600586-.00390625C.51936849-.0013020834 .48014323 0 .4423828 0 .4075521 0 .3684896-.0013020834 .3251953-.00390625L.32080079 .00048828127V.020996094L.3251953 .024902344C.35677085 .026855469 .3745931 .028320313 .3786621 .029296875 .3827311 .030273438 .38631187 .03230794 .3894043 .03540039 .39249674 .03849284 .39461265 .04321289 .39575196 .049560548 .39689128 .055908204 .39819337 .0769043 .3996582 .11254883 .40112306 .14819336 .40185548 .1751302 .40185548 .19335938V.24902344C.40185548 .28580729 .39933268 .3141276 .3942871 .33398438 .38924156 .35384117 .37841798 .37060548 .3618164 .38427735 .34521485 .39794923 .3243815 .40478517 .2993164 .40478517 .27978517 .40478517 .2619629 .4009603 .24584961 .39331056 .22973633 .3856608 .21655274 .3762207 .20629883 .36499024 .19604492 .35375978 .18969727 .34326173 .18725586 .3334961 .18481446 .32373048 .18359375 .30257163 .18359375 .27001954V.1977539C.18359375 .18343099 .1842448 .15657552 .18554688 .1171875 .18684896 .07779948 .18823242 .05485026 .18969727 .048339845 .19116211 .041829427 .19344075 .037190755 .1965332 .034423829 .19962566 .031656904 .20320638 .029866538 .20727539 .029052735 .2113444 .028238932 .22884114 .026855469 .25976563 .024902344L.26416017 .020996094V.00048828127L.2602539-.00390625C.2195638-.0013020834 .18033855 0 .14257813 0 .10514323 0 .06608073-.0013020834 .025390625-.00390625L.020996094 .00048828127V.020996094L.025390625 .024902344C.056966146 .026855469 .074788417 .028320313 .07885742 .029296875 .08292643 .030273438 .086507167 .03230794 .08959961 .03540039 .092692058 .03849284 .094807948 .04321289 .095947269 .049560548 .097086589 .055908204 .09838867 .0769043 .099853519 .11254883 .10131836 .14819336 .10205078 .1751302 .10205078 .19335938V.28955079C.10205078 .30257163 .10139974 .3203125 .100097659 .34277345 .09879557 .36523438 .09773763 .379069 .09692383 .38427735 .09611002 .3894857 .09358724 .39331056 .08935547 .39575196 .085123699 .39819337 .076660159 .39941407 .063964847 .39941407L.022949219 .39990235 .018554688 .4038086V.4248047L.022460938 .42871095C.084635417 .4361979 .13704427 .44840495 .1796875 .46533204Z"/>
<path id="font_6_138" d="M.103515628 .3310547 .084472659 .3359375 .080566409 .3408203V.4013672C.13850911 .44433595 .19482422 .4658203 .24951172 .4658203 .28694663 .4658203 .31803385 .45882163 .34277345 .44482423 .36751304 .4308268 .38541667 .41333009 .39648438 .39233399 .4075521 .3713379 .41308595 .34684245 .41308595 .31884767L.41064454 .22070313V.07519531C.41064454 .055338544 .41202799 .04329427 .41479493 .0390625 .41756187 .03483073 .4207357 .031982423 .4243164 .030517579 .42789714 .029052735 .4345703 .027832032 .44433595 .026855469L.47216798 .024414063 .47607423 .020019532V.00048828127L.47216798-.0034179688C.44840495-.0014648438 .42626954-.00048828127 .40576173-.00048828127 .38623048-.00048828127 .36279298-.0014648438 .33544923-.0034179688L.328125 .0034179688 .33007813 .08203125 .22363281-.0009765625C.20572917-.008463542 .18619792-.012207031 .16503906-.012207031 .13899739-.012207031 .116617839-.007486979 .09790039 .001953125 .079182948 .0113932299 .06486002 .024576823 .05493164 .041503908 .045003255 .05843099 .040039064 .078938808 .040039064 .103027347 .040039064 .1508789 .05501302 .18823242 .08496094 .21508789 .11490885 .24194336 .19661458 .2648112 .33007813 .2836914 .33007813 .3318685 .31933595 .36580406 .29785157 .38549806 .2763672 .40519206 .2475586 .41503907 .21142578 .41503907 .19254558 .41503907 .17537435 .41227214 .15991211 .40673829 .14444988 .40120445 .13557942 .39672853 .13330078 .39331056 .13102214 .38989259 .12223307 .36995445 .106933597 .3334961L.103515628 .3310547M.33007813 .25390626C.2389323 .23860677 .1821289 .22216797 .15966797 .20458985 .13720703 .18701172 .12597656 .15983074 .12597656 .123046878 .12597656 .072265628 .15120442 .046875 .20166016 .046875 .24495442 .046875 .2877604 .0719401 .33007813 .12207031V.25390626M.24707031 .49609376V.49609376M.2368164-.029296875V-.029296875Z"/>
<path id="font_6_151" d="M.16699219 .46533204 .17626953 .45898438C.1743164 .43717448 .17301433 .40852867 .17236328 .37304688 .19840496 .39453126 .22314453 .41634117 .24658203 .43847657 .25341798 .44466148 .25984703 .44921876 .26586915 .45214845 .27189128 .45507813 .28190104 .45817057 .29589845 .46142579 .30989585 .464681 .32421876 .4663086 .3388672 .4663086 .36360679 .4663086 .38761393 .46126304 .41088868 .45117188 .43416343 .44108073 .45174156 .42911784 .46362306 .4152832 .47550456 .40144859 .48372398 .38509117 .48828126 .36621095 .49283854 .34733073 .4951172 .324056 .4951172 .29638673V.21044922C.4951172 .20491536 .495931 .16438802 .4975586 .08886719 .49820964 .057942708 .5016276 .03955078 .5078125 .033691408 .5139974 .027832032 .5341797 .024902344 .5683594 .024902344L.5722656 .020996094V0L.5683594-.00390625C.52701827-.0013020834 .49902345 0 .484375 0 .47591148 0 .45214845-.0013020834 .41308595-.00390625L.40722657 .0014648438C.41145835 .04378255 .41357423 .098958339 .41357423 .16699219V.23095703C.41357423 .2693685 .41267906 .29703776 .41088868 .31396485 .4090983 .33089195 .40364585 .3462728 .39453126 .36010743 .38541667 .37394206 .37320964 .38468424 .35791017 .39233399 .3426107 .39998374 .3243815 .4038086 .30322267 .4038086 .28629557 .4038086 .2718099 .4020996 .25976563 .39868165 .24772136 .39526368 .23421224 .38826499 .21923828 .37768556 .20426433 .3671061 .19319661 .35717774 .18603516 .3479004 .1788737 .33862306 .17456055 .32999674 .1730957 .32202149 .17163086 .31404624 .17089844 .29703776 .17089844 .2709961V.18603516C.17089844 .1788737 .17154949 .1558431 .17285156 .11694336 .17415364 .07804362 .17553711 .055338544 .17700196 .048828126 .1784668 .042317708 .18066406 .037597658 .18359375 .03466797 .18652344 .03173828 .19010417 .029866538 .19433594 .029052735 .1985677 .028238932 .21614583 .026855469 .24707031 .024902344L.25146485 .020996094V.00048828127L.2475586-.00390625C.20686849-.0013020834 .16764324 0 .12988281 0 .092447917 0 .053385419-.0013020834 .0126953129-.00390625L.008300781 .00048828127V.020996094L.0126953129 .024902344C.044270833 .026855469 .062093099 .028320313 .06616211 .029296875 .07023112 .030273438 .07381185 .03230794 .0769043 .03540039 .07999674 .03849284 .08211263 .04321289 .08325195 .049560548 .08439127 .055908204 .08569336 .0769043 .0871582 .11254883 .08862305 .14819336 .08935547 .1751302 .08935547 .19335938V.28955079C.08935547 .30257163 .08870443 .3203125 .087402347 .34277345 .08610026 .36523438 .08504232 .379069 .084228519 .38427735 .08341471 .3894857 .08089193 .39331056 .076660159 .39575196 .07242838 .39819337 .063964847 .39941407 .05126953 .39941407L.010253906 .39990235 .005859375 .4038086V.4248047L.009765625 .42871095C.0719401 .4361979 .12434896 .44840495 .16699219 .46533204Z"/>
<path id="font_6_140" d="M.42382813 .052246095 .40429688 .01953125C.3623047-.0035807293 .3154297-.015136719 .26367188-.015136719 .1920573-.015136719 .13671875 .006184896 .09765625 .048828126 .05859375 .09147135 .0390625 .14648438 .0390625 .21386719 .0390625 .24446614 .04239909 .27172853 .049072267 .2956543 .05574544 .31958009 .064208988 .33935548 .07446289 .35498048 .0847168 .37060548 .09602865 .38297526 .10839844 .39208985 .12076823 .40120445 .14168294 .41389976 .17114258 .43017579 .20060222 .4464518 .22281902 .45711265 .23779297 .4621582 .25276695 .46720378 .2734375 .46972657 .2998047 .46972657 .3502604 .46972657 .39160157 .4601237 .42382813 .44091798 .41764323 .40413413 .4129232 .3631185 .40966798 .3178711L.40527345 .31396485H.3852539L.38085938 .31835938C.37955729 .34570313 .37776695 .36409507 .37548829 .37353517 .37320964 .38297526 .36027018 .3930664 .33666993 .4038086 .31306968 .41455079 .2879232 .41992188 .26123048 .41992188 .23453777 .41992188 .21077474 .41430665 .1899414 .40307618 .16910808 .3918457 .15340169 .37345378 .14282227 .3479004 .13224285 .32234703 .12695313 .29182945 .12695313 .25634767 .12695313 .22639974 .13118489 .19718425 .13964844 .16870117 .14811199 .1402181 .15926107 .116617839 .1730957 .09790039 .18693035 .079182948 .20524089 .0641276 .22802735 .052734376 .2508138 .041341146 .27620445 .03564453 .30419923 .03564453 .32177735 .03564453 .33894859 .037923177 .3557129 .04248047 .3724772 .04703776 .3917643 .05452474 .41357423 .064941409L.42382813 .052246095Z"/>
<path id="font_6_142" d="M.43164063 .071777347 .41601563 .036621095C.38216148 .014811198 .3519694 .0006510417 .32543946-.005859375 .29890953-.012369792 .27522788-.015625 .25439454-.015625 .21533203-.015625 .17830403-.007975261 .14331055 .0073242189 .108317058 .022623698 .079833988 .048502607 .057861329 .08496094 .035888673 .12141927 .024902344 .16536458 .024902344 .21679688 .024902344 .25097657 .029134116 .28181968 .037597658 .30932618 .0460612 .33683268 .05493164 .35725913 .064208988 .37060548 .07348633 .3839518 .08919271 .39876304 .111328128 .41503907 .13346355 .4313151 .15690105 .44433595 .18164063 .45410157 .2063802 .4638672 .23307292 .46875 .26171876 .46875 .30078126 .46875 .33520509 .45955406 .36499024 .4411621 .3947754 .42277018 .4156901 .3992513 .42773438 .37060548 .43977867 .34195964 .44580079 .31152345 .44580079 .27929688 .44580079 .26920573 .4453125 .2594401 .44433595 .25L.43896485 .2446289C.41682945 .2397461 .38704429 .23649089 .34960938 .23486328 .31217448 .23323567 .2874349 .23242188 .27539063 .23242188H.118652347C.11930338 .16503906 .13623047 .11539713 .1694336 .083496097 .20263672 .05159505 .24332683 .03564453 .2915039 .03564453 .31429038 .03564453 .33618165 .03955078 .35717774 .04736328 .37817384 .05517578 .40039063 .06608073 .42382813 .080078128L.43164063 .071777347M.118652347 .27148438C.12451172 .2705078 .14705403 .2693685 .1862793 .2680664 .22550456 .2667643 .25455729 .26611329 .2734375 .26611329 .3186849 .26611329 .3461914 .2669271 .35595704 .2685547 .35628257 .2763672 .3564453 .2823893 .3564453 .2866211 .3564453 .3370768 .3461914 .3745931 .3256836 .39916993 .30517579 .42374674 .277181 .43603517 .24169922 .43603517 .20296224 .43603517 .17277019 .42220054 .15112305 .39453126 .1294759 .36686198 .118652347 .32584635 .118652347 .27148438M.2548828 .49609376V.49609376M.24902344-.029296875V-.029296875Z"/>
<clipPath id="clip_7">
<path transform="matrix(1,0,0,-1,0,648.12)" d="M.000006437 0H432V648.12H.000006437Z" fill-rule="evenodd"/>
</clipPath>
<path id="font_6_561" d="M0 0Z"/>
<clipPath id="clip_8">
<path transform="matrix(1,0,0,-1,0,648.12)" d="M.000006437 0H432V648.12H.000006437Z" fill-rule="evenodd"/>
</clipPath>
<clipPath id="clip_9">
<path transform="matrix(1,0,0,-1,0,648.12)" d="M.000006437 0H432V648.12H.000006437Z" fill-rule="evenodd"/>
</clipPath>
<clipPath id="clip_10">
<path transform="matrix(1,0,0,-1,0,648.12)" d="M.000006437 0H432V648.12H.000006437Z" fill-rule="evenodd"/>
</clipPath>
<clipPath id="clip_11">
<path transform="matrix(1,0,0,-1,0,648.12)" d="M.000006437 0H432V648.12H.000006437Z" fill-rule="evenodd"/>
</clipPath>
<clipPath id="clip_12">
<path transform="matrix(1,0,0,-1,0,648.12)" d="M.000006437 0H432V648.12H.000006437Z" fill-rule="evenodd"/>
</clipPath>
<clipPath id="clip_13">
<path transform="matrix(1,0,0,-1,0,648.12)" d="M.000006437 0H432V648.12H.000006437Z" fill-rule="evenodd"/>
</clipPath>
<clipPath id="clip_14">
<path transform="matrix(1,0,0,-1,0,648.12)" d="M.000006437 0H432V648.12H.000006437Z" fill-rule="evenodd"/>
</clipPath>
<path id="font_6_21" d="M.03857422 .16796875 .04248047 .171875H.06640625L.0703125 .16796875C.0719401 .12630208 .07413737 .10083008 .0769043 .091552738 .07967123 .08227539 .08846029 .072509769 .103271488 .06225586 .11808268 .052001954 .13777669 .043619794 .16235352 .037109376 .18693035 .030598959 .2117513 .02734375 .2368164 .02734375 .27132163 .02734375 .30232749 .033691408 .32983399 .04638672 .35734049 .05908203 .3787435 .0777181 .39404298 .10229492 .40934245 .12687175 .4169922 .15445964 .4169922 .1850586 .4169922 .20654297 .41333009 .22526042 .40600587 .24121094 .39868165 .25716148 .38842774 .26993815 .37524415 .27954103 .36206056 .2891439 .34700523 .29630534 .33007813 .3010254 .31315104 .30574546 .2879232 .3108724 .25439454 .31640626 .22184246 .3216146 .19637044 .32633464 .17797852 .3305664 .1595866 .3347982 .14127605 .3413086 .123046878 .35009767 .10481771 .35888673 .08959961 .3700358 .07739258 .38354493 .06518555 .39705406 .055419923 .4136556 .048095704 .4333496 .040771486 .4530436 .037109376 .4741211 .037109376 .49658204 .037109376 .5574544 .05826823 .6073405 .10058594 .64624026 .14290364 .68513998 .19970703 .70458987 .2709961 .70458987 .2993164 .70458987 .33015953 .7010905 .3635254 .6940918 .39689128 .6870931 .4272461 .6767578 .45458985 .66308596L.4580078 .65722659C.45084635 .6272786 .4464518 .58463546 .44482423 .5292969L.4404297 .5253906H.41503907L.4111328 .5288086C.41048179 .5678711 .40950523 .59244796 .40820313 .60253909 .40690104 .6126302 .39208985 .6251628 .36376954 .6401367 .33544923 .65511068 .3046875 .66259768 .27148438 .66259768 .24381511 .66259768 .2179362 .6570638 .19384766 .6459961 .16975911 .6349284 .15152996 .617513 .13916016 .59375 .12679036 .569987 .12060547 .54573568 .12060547 .5209961 .12060547 .50179037 .12434896 .4847819 .13183594 .4699707 .13932292 .45515953 .14900716 .44344078 .16088867 .43481446 .17277019 .42618815 .18660482 .41975913 .20239258 .41552735 .21818035 .41129557 .24707031 .40608726 .2890625 .39990235 .3466797 .3917643 .38859049 .38191734 .41479493 .37036134 .44099937 .35880534 .46199546 .34049479 .4777832 .3154297 .49357096 .2903646 .50146487 .26009117 .50146487 .22460938 .50146487 .15527344 .47322593 .09749349 .41674806 .05126953 .36027018 .0050455729 .29182945-.018066407 .21142578-.018066407 .14404297-.018066407 .08496094-.0060221354 .034179689 .018066407L.03125 .024414063C.034505208 .044921876 .036946615 .09277344 .03857422 .16796875Z"/>
<path id="font_6_158" d="M.16894531 .46533204 .17822266 .45898438C.17464192 .41634117 .17285156 .36214195 .17285156 .29638673V.18261719C.17285156 .14095052 .17602539 .111979167 .18237305 .095703128 .1887207 .079427089 .19970703 .066975917 .21533203 .05834961 .23095703 .04972331 .24951172 .045410158 .2709961 .045410158 .29475913 .045410158 .31640626 .050048829 .3359375 .059326173 .35546876 .068603519 .37182618 .08170573 .38500978 .09863281 .39819337 .1155599 .40576173 .12695313 .40771485 .1328125 .40966798 .13867188 .41097007 .15511067 .4116211 .1821289L.41308595 .2368164V.28955079C.41308595 .30257163 .4124349 .3203125 .4111328 .34277345 .40983073 .36523438 .4087728 .379069 .40795899 .38427735 .40714518 .3894857 .4046224 .39331056 .40039063 .39575196 .39615885 .39819337 .3876953 .39941407 .375 .39941407L.33398438 .39990235 .32958985 .4038086V.4248047L.3334961 .42871095C.39567057 .4361979 .44807945 .44840495 .49072267 .46533204L.5 .45898438C.49641929 .41634117 .4946289 .36214195 .4946289 .29638673V.21044922C.4946289 .2055664 .49544273 .16569011 .4970703 .09082031 .49772135 .06315104 .49943034 .04630534 .50219729 .040283204 .5049642 .034261068 .50878909 .030029297 .5136719 .02758789 .5185547 .025146485 .53304037 .023925782 .5571289 .023925782H.5708008L.5751953 .020019532V.00048828127L.57128909-.00390625C.5253906-.0013020834 .4946289 0 .4790039 0 .45914714 0 .4361979-.0011393229 .41015626-.0034179688L.40576173 .00048828127C.40771485 .033691408 .4091797 .061848958 .41015626 .08496094 .38964845 .069010417 .36621095 .0476888 .33984376 .020996094 .3297526 .010904948 .31526695 .0024414063 .29638673-.0043945314 .2775065-.011230469 .25602214-.0146484379 .2319336-.0146484379 .19547527-.0146484379 .16707357-.008870442 .14672852 .0026855469 .12638347 .014241536 .111979167 .030192057 .103515628 .05053711 .095052089 .070882167 .09082031 .10595703 .09082031 .15576172L.091308597 .19433594V.28955079C.091308597 .30257163 .090657558 .3203125 .08935547 .34277345 .08805338 .36523438 .086995448 .379069 .08618164 .38427735 .085367839 .3894857 .082845058 .39331056 .07861328 .39575196 .07438151 .39819337 .06591797 .39941407 .053222658 .39941407L.012207031 .39990235 .0078125 .4038086V.4248047L.01171875 .42871095C.07389323 .4361979 .12630208 .44840495 .16894531 .46533204M.28564454 .49609376V.49609376M.29052735-.029296875V-.029296875Z"/>
<path id="font_6_156" d="M.049316408 .14355469H.0703125L.07470703 .13916016C.07535807 .111816409 .07698568 .088378909 .079589847 .068847659 .08968099 .053548177 .10709635 .041097005 .13183594 .03149414 .15657552 .021891276 .18098958 .017089844 .20507813 .017089844 .23958333 .017089844 .26717124 .026367188 .2878418 .044921876 .30851237 .06347656 .31884767 .08561198 .31884767 .111328128 .31884767 .12532552 .31510417 .13745117 .3076172 .14770508 .30013023 .15795899 .28881837 .16642253 .27368165 .1730957 .25854493 .17976888 .23144531 .18766277 .19238281 .19677735 .15885417 .20458985 .13541667 .21069336 .12207031 .21508789 .10872396 .21948242 .09586588 .22688802 .083496097 .23730469 .071126308 .24772136 .0616862 .26049806 .05517578 .27563478 .048665365 .29077149 .045410158 .30745445 .045410158 .3256836 .045410158 .36930339 .06274414 .40421549 .09741211 .43041993 .13208008 .45662437 .17529297 .46972657 .22705078 .46972657 .24886067 .46972657 .2726237 .46671549 .29833985 .46069337 .324056 .45467124 .34358726 .44889323 .3569336 .44335938L.36132813 .43652345C.35872398 .4235026 .35709635 .3893229 .3564453 .33398438L.35205079 .32958985H.33251954L.328125 .33398438C.3268229 .35384117 .32503257 .36775718 .3227539 .37573243 .32047526 .38370768 .31461589 .39233399 .30517579 .40161134 .2957357 .41088868 .2823893 .41870118 .26513673 .42504884 .24788411 .43139649 .22965496 .4345703 .21044922 .4345703 .19059246 .4345703 .1739095 .43164063 .16040039 .42578126 .14689128 .41992188 .13598633 .41105143 .12768555 .39916993 .119384769 .38728843 .115234378 .37288413 .115234378 .35595704 .115234378 .34358726 .117757167 .33251954 .122802738 .3227539 .12784831 .31298829 .13557942 .3050944 .1459961 .29907228 .15641277 .29305015 .1673177 .28873698 .17871094 .2861328L.2319336 .27246095C.2775065 .26139323 .31013999 .25179038 .32983399 .24365235 .34952799 .23551433 .3647461 .2232259 .37548829 .20678711 .38623048 .19034831 .39160157 .17041016 .39160157 .14697266 .39160157 .10205078 .37304688 .06347656 .3359375 .03125 .29882813-.0009765625 .2511393-.017089844 .1928711-.017089844 .17236328-.017089844 .14689128-.014811198 .11645508-.010253906 .08601888-.0056966149 .060058595-.0006510417 .03857422 .0048828127L.036132814 .011230469 .041015626 .043945314C.04264323 .054036458 .043619794 .064208988 .043945314 .07446289 .044270833 .0847168 .044596357 .106282558 .044921876 .13916016L.049316408 .14355469Z"/>
<path id="font_6_16" d="M.032226564-.0034179688 .027832032 .0009765625V.0234375L.032226564 .02734375C.052083333 .027669272 .06795248 .028808594 .079833988 .030761719 .09171549 .032714845 .099365238 .03597005 .1027832 .040527345 .10620117 .045084638 .10847982 .052408857 .10961914 .0625 .11075846 .07259115 .11189779 .0953776 .11303711 .13085938 .11417643 .16634114 .114746097 .19173177 .114746097 .20703125V.6015625C.114746097 .61816409 .11173502 .63045248 .10571289 .63842776 .09969076 .646403 .09147135 .65144857 .08105469 .65356448 .07063802 .65568038 .052897138 .65690109 .027832032 .65722659L.023925782 .6611328V.68408206L.027832032 .68847659C.072753909 .68684896 .10221354 .68603518 .11621094 .68603518 .14908855 .68603518 .17610677 .68684896 .19726563 .68847659L.35302735 .48632813 .58203127 .19921875C.6097005 .16438802 .6378581 .13134766 .6665039 .100097659V.47802735C.6665039 .4897461 .66593429 .5147298 .6647949 .5529785 .6636556 .59122726 .66227218 .6154785 .66064456 .6257324 .6590169 .6359863 .65616866 .6429036 .6520996 .6464844 .6480306 .6500651 .64038088 .6527507 .6291504 .654541 .6179199 .65633139 .60270187 .65738937 .5834961 .65771487L.57958987 .6616211V.68408206L.5834961 .68847659C.6098633 .68684896 .64746096 .68603518 .69628909 .68603518 .74088546 .68603518 .7732747 .68684896 .79345706 .68847659L.79785159 .68408206V.6616211L.7939453 .65771487C.77246096 .65738937 .7558594 .65616866 .7441406 .65405276 .7324219 .6519368 .72509768 .6484375 .72216799 .6435547 .7192383 .6386719 .7172038 .63151046 .71606448 .6220703 .7149251 .6126302 .7137858 .59016928 .7126465 .5546875 .71150717 .51920577 .7109375 .49365235 .7109375 .47802735V.24609375L.7114258 .111816409C.71207687 .067871097 .71272787 .023763022 .7133789-.020507813 .69710287-.014973958 .6689453-.0081380209 .62890627 0L.5942383 .041015626 .49023438 .16796875 .15917969 .58154299V.20703125C.15917969 .1920573 .15974935 .16536458 .16088867 .12695313 .162028 .088541667 .16341146 .06526693 .16503906 .057128908 .16666667 .048990888 .16878255 .043375654 .17138672 .040283204 .17399089 .037190755 .17960613 .03434245 .18823242 .03173828 .19685872 .029134116 .21468099 .027669272 .24169922 .02734375L.24560547 .0234375V.00048828127L.24169922-.0034179688C.22477214-.0011393229 .19742839 0 .15966797 0 .11116537 0 .0686849-.0011393229 .032226564-.0034179688Z"/>
<path id="font_6_144" d="M.5385742 .43164063 .54248049 .42285157C.5291341 .40234376 .5208333 .3889974 .5175781 .3828125H.4267578C.4358724 .36490885 .4404297 .3461914 .4404297 .32666017 .4404297 .3035482 .43513999 .28108726 .42456056 .25927735 .4139811 .23746746 .3992513 .21891277 .3803711 .20361328 .36149089 .1883138 .3400879 .17610677 .3161621 .16699219 .29223634 .15787761 .26497398 .15332031 .234375 .15332031H.21191406C.19270833 .13802083 .18033855 .12662761 .17480469 .119140628 .16927083 .11165365 .1665039 .104003909 .1665039 .096191409 .1665039 .08186849 .1730957 .071777347 .1862793 .06591797 .19946289 .060058595 .22672527 .057128908 .2680664 .057128908L.3774414 .05859375C.41194663 .05859375 .43839518 .05452474 .4567871 .04638672 .47517906 .0382487 .49007163 .02368164 .50146487 .0026855469 .5128581-.018310547 .5185547-.040527345 .5185547-.063964847 .5185547-.09977213 .5069173-.13549805 .48364259-.17114258 .46036784-.20678711 .4267578-.23388672 .3828125-.2524414 .3388672-.2709961 .2919922-.28027345 .2421875-.28027345 .21386719-.28027345 .18725586-.277181 .16235352-.2709961 .13745117-.2648112 .11564127-.25545249 .09692383-.24291992 .07820638-.23038738 .06315104-.21402996 .051757814-.19384766 .040364583-.17366536 .03466797-.15266927 .03466797-.13085938 .03466797-.1188151 .036458333-.10620117 .040039064-.09301758 .043619794-.079833988 .05045573-.065592449 .060546876-.05029297L.14892578-.0009765625C.12060547 .0078125 .1027832 .016520182 .095458988 .025146485 .088134769 .033772787 .084472659 .044108076 .084472659 .056152345 .084472659 .06852213 .088541667 .08317057 .09667969 .100097659L.17529297 .15673828C.12906902 .16878255 .09790039 .18684896 .08178711 .2109375 .06567383 .23502605 .057617189 .26139323 .057617189 .29003907 .057617189 .31640626 .063313808 .34155274 .07470703 .36547853 .08610026 .3894043 .103271488 .40852867 .1262207 .42285157 .14916992 .43717448 .17488607 .44848634 .20336914 .4567871 .23185222 .4650879 .2578125 .46923829 .28125 .46923829 .3219401 .46923829 .3606771 .4560547 .39746095 .4296875 .45638023 .4296875 .50341799 .43033854 .5385742 .43164063M.14160156 .31835938C.14160156 .2985026 .14550781 .277181 .15332031 .25439454 .16113281 .23160808 .17374675 .21435547 .19116211 .20263672 .20857747 .19091797 .22819011 .1850586 .25 .1850586 .27897135 .1850586 .30395509 .1944987 .32495118 .2133789 .34594728 .23225911 .3564453 .26171876 .3564453 .3017578 .3564453 .33561198 .34684245 .3660482 .32763673 .3930664 .308431 .42008464 .28125 .43359376 .24609375 .43359376 .21647136 .43359376 .19165039 .42390953 .17163086 .40454103 .15161133 .38517253 .14160156 .3564453 .14160156 .31835938M.28466798-.009277344C.23225911-.009277344 .20206706-.009928386 .1940918-.011230469 .18611653-.012532552 .17480469-.018066407 .16015625-.027832032 .14550781-.037597658 .13354492-.05086263 .12426758-.06762695 .114990238-.08439127 .11035156-.1031901 .11035156-.12402344 .11035156-.1608073 .12402344-.1907552 .15136719-.21386719 .17871094-.23697917 .21516927-.24853516 .2607422-.24853516 .29492188-.24853516 .3264974-.2413737 .35546876-.22705078 .3844401-.21272786 .4058431-.19352214 .41967774-.1694336 .43351237-.14534505 .4404297-.12223307 .4404297-.100097659 .4404297-.07796224 .4346517-.059000654 .4230957-.04321289 .4115397-.02742513 .39656578-.017822266 .37817384-.014404297 .3597819-.010986328 .32861329-.009277344 .28466798-.009277344Z"/>
<path id="font_6_146" d="M.140625 .68359377C.15592449 .68359377 .16894531 .67822268 .1796875 .66748049 .19042969 .6567383 .19580078 .64371749 .19580078 .62841799 .19580078 .61344406 .19042969 .60058596 .1796875 .58984377 .16894531 .57910159 .15592449 .57373049 .140625 .57373049 .12565105 .57373049 .112711589 .5790202 .10180664 .5895996 .090901698 .600179 .08544922 .61311849 .08544922 .62841799 .08544922 .64371749 .090901698 .6567383 .10180664 .66748049 .112711589 .67822268 .12565105 .68359377 .140625 .68359377M.1821289 .46533204 .19140625 .45898438C.18782552 .41634117 .18603516 .36214195 .18603516 .29638673V.18603516C.18603516 .1788737 .1866862 .1558431 .18798828 .11694336 .18929036 .07804362 .19067383 .055338544 .19213867 .048828126 .19360352 .042317708 .19580078 .037597658 .19873047 .03466797 .20166016 .03173828 .20524089 .029866538 .20947266 .029052735 .21370442 .028238932 .23128255 .026855469 .26220704 .024902344L.26660157 .020996094V.00048828127L.2626953-.00390625C.2220052-.0013020834 .18277996 0 .14501953 0 .10758463 0 .06852213-.0013020834 .027832032-.00390625L.0234375 .00048828127V.020996094L.027832032 .024902344C.05940755 .026855469 .07722982 .028320313 .08129883 .029296875 .085367839 .030273438 .08894857 .03230794 .092041019 .03540039 .09513346 .03849284 .09724935 .04321289 .09838867 .049560548 .09952799 .055908204 .10083008 .0769043 .10229492 .11254883 .103759769 .14819336 .10449219 .1751302 .10449219 .19335938V.28955079C.10449219 .30257163 .10384115 .3203125 .10253906 .34277345 .10123698 .36523438 .10017904 .379069 .099365238 .38427735 .09855143 .3894857 .09602865 .39331056 .091796878 .39575196 .0875651 .39819337 .07910156 .39941407 .06640625 .39941407L.025390625 .39990235 .020996094 .4038086V.4248047L.024902344 .42871095C.08707682 .4361979 .13948567 .44840495 .1821289 .46533204M.14404297-.029296875V-.029296875Z"/>
<path id="font_6_155" d="M.1875 .46533204 .19677735 .45898438C.19482422 .44010417 .19335938 .40657554 .19238281 .35839845L.2290039 .40478517C.24104817 .42008464 .25170899 .43188478 .26098634 .44018556 .27026368 .44848634 .28108726 .45491538 .29345704 .45947267 .3058268 .46402995 .31852214 .4663086 .33154298 .4663086 .34586589 .4663086 .359375 .4633789 .3720703 .45751954L.37548829 .4506836C.37027995 .4073893 .36735026 .36930339 .36669923 .33642579H.34472657C.33170573 .3663737 .31070964 .38134767 .28173829 .38134767 .261556 .38134767 .24397786 .3749186 .2290039 .36206056 .21402996 .34920249 .20402019 .3330892 .19897461 .3137207 .19392903 .2943522 .19140625 .26985679 .19140625 .24023438V.18603516C.19140625 .17626953 .1920573 .15234375 .19335938 .11425781 .19466146 .076171878 .19604492 .05419922 .19750977 .048339845 .19897461 .04248047 .20125325 .038167318 .2043457 .03540039 .20743816 .032633466 .21150716 .030761719 .21655274 .029785157 .22159831 .028808594 .24479167 .02718099 .2861328 .024902344L.29052735 .020996094V.00048828127L.2861328-.00390625C.24283855-.0013020834 .19759114 0 .15039063 0 .11295573 0 .07389323-.0013020834 .033203126-.00390625L.028808594 .00048828127V.020996094L.033203126 .024902344C.06477865 .026855469 .082600917 .028320313 .08666992 .029296875 .09073893 .030273438 .094319667 .03230794 .09741211 .03540039 .100504558 .03849284 .102620448 .04321289 .103759769 .049560548 .104899089 .055908204 .10620117 .0769043 .107666019 .11254883 .10913086 .14819336 .10986328 .1751302 .10986328 .19335938V.28955079C.10986328 .30257163 .10921224 .3203125 .107910159 .34277345 .10660807 .36523438 .10555013 .379069 .10473633 .38427735 .10392252 .3894857 .10139974 .39331056 .09716797 .39575196 .092936199 .39819337 .084472659 .39941407 .071777347 .39941407L.030761719 .39990235 .026367188 .4038086V.4248047L.030273438 .42871095C.092447917 .4361979 .14485677 .44840495 .1875 .46533204Z"/>
<clipPath id="clip_15">
<path transform="matrix(1,0,0,-1,0,648.12)" d="M.000006437 0H432V648.12H.000006437Z" fill-rule="evenodd"/>
</clipPath>
<clipPath id="clip_16">
<path transform="matrix(1,0,0,-1,0,648.12)" d="M.000006437 0H432V648.12H.000006437Z" fill-rule="evenodd"/>
</clipPath>
<clipPath id="clip_17">
<path transform="matrix(1,0,0,-1,0,648.12)" d="M.000006437 0H432V648.12H.000006437Z" fill-rule="evenodd"/>
</clipPath>
</defs>
<g>
<g clip-path="url(#clip_0)">
<use data-text=" " xlink:href="#font_1_561" transform="matrix(14.04,0,0,-14.04,100.34,69.380008)"/>
</g>
<g clip-path="url(#clip_2)">
<use data-text="S" xlink:href="#font_1_21" transform="matrix(72.024,0,0,-72.024,130.58,149.18)"/>
<use data-text="e" xlink:href="#font_1_142" transform="matrix(72.024,0,0,-72.024,170.62535,149.18)"/>
<use data-text="g" xlink:href="#font_1_144" transform="matrix(72.024,0,0,-72.024,198.64269,149.18)"/>
<use data-text="r" xlink:href="#font_1_155" transform="matrix(72.024,0,0,-72.024,234.6547,149.18)"/>
<use data-text="e" xlink:href="#font_1_142" transform="matrix(72.024,0,0,-72.024,262.67204,149.18)"/>
<use data-text="d" xlink:href="#font_1_141" transform="matrix(72.024,0,0,-72.024,290.68937,149.18)"/>
<use data-text="o" xlink:href="#font_1_152" transform="matrix(72.024,0,0,-72.024,326.70137,149.18)"/>
<use data-text=" " xlink:href="#font_1_561" transform="matrix(72.024,0,0,-72.024,358.68003,149.18)"/>
</g>
<g clip-path="url(#clip_3)">
<use data-text="D" xlink:href="#font_1_6" transform="matrix(72.024,0,0,-72.024,96.864,246.41)"/>
<use data-text="e" xlink:href="#font_1_142" transform="matrix(72.024,0,0,-72.024,152.89868,246.41)"/>
<use data-text="s" xlink:href="#font_1_156" transform="matrix(72.024,0,0,-72.024,180.91602,246.41)"/>
<use data-text="p" xlink:href="#font_1_153" transform="matrix(72.024,0,0,-72.024,208.93335,246.41)"/>
<use data-text="e" xlink:href="#font_1_142" transform="matrix(72.024,0,0,-72.024,244.94535,246.41)"/>
<use data-text="r" xlink:href="#font_1_155" transform="matrix(72.024,0,0,-72.024,272.96269,246.41)"/>
<use data-text="t" xlink:href="#font_1_157" transform="matrix(72.024,0,0,-72.024,300.98,246.41)"/>
<use data-text="o" xlink:href="#font_1_152" transform="matrix(72.024,0,0,-72.024,324.964,246.41)"/>
</g>
<g clip-path="url(#clip_4)">
<use data-text=" " xlink:href="#font_1_561" transform="matrix(72.024,0,0,-72.024,356.98,246.41)"/>
</g>
<g clip-path="url(#clip_5)">
<use data-text="R" xlink:href="#font_6_20" transform="matrix(14.04,0,0,-14.04,215.93,282.53)"/>
<use data-text="o" xlink:href="#font_6_152" transform="matrix(14.04,0,0,-14.04,225.30872,282.53)"/>
<use data-text="m" xlink:href="#font_6_150" transform="matrix(14.04,0,0,-14.04,232.97455,282.53)"/>
<use data-text="a" xlink:href="#font_6_138" transform="matrix(14.04,0,0,-14.04,245.37187,282.53)"/>
<use data-text="n" xlink:href="#font_6_151" transform="matrix(14.04,0,0,-14.04,252.39188,282.53)"/>
<use data-text="c" xlink:href="#font_6_140" transform="matrix(14.04,0,0,-14.04,260.56318,282.53)"/>
<use data-text="e" xlink:href="#font_6_142" transform="matrix(14.04,0,0,-14.04,266.79695,282.53)"/>
</g>
<g clip-path="url(#clip_7)">
<use data-text=" " xlink:href="#font_6_561" transform="matrix(14.04,0,0,-14.04,273.43,282.53)"/>
</g>
<g clip-path="url(#clip_8)">
<use data-text=" " xlink:href="#font_6_561" transform="matrix(14.04,0,0,-14.04,244.63,301.49)"/>
</g>
<g clip-path="url(#clip_9)">
<use data-text=" " xlink:href="#font_6_561" transform="matrix(14.04,0,0,-14.04,244.63,320.33)"/>
</g>
<g clip-path="url(#clip_10)">
<use data-text=" " xlink:href="#font_6_561" transform="matrix(14.04,0,0,-14.04,244.63,339.16999)"/>
</g>
<g clip-path="url(#clip_11)">
<use data-text=" " xlink:href="#font_6_561" transform="matrix(14.04,0,0,-14.04,244.63,358.13)"/>
</g>
<g clip-path="url(#clip_12)">
<use data-text=" " xlink:href="#font_6_561" transform="matrix(14.04,0,0,-14.04,244.63,376.99)"/>
</g>
<g clip-path="url(#clip_13)">
<use data-text=" " xlink:href="#font_6_561" transform="matrix(14.04,0,0,-14.04,244.63,395.95)"/>
</g>
<g clip-path="url(#clip_14)">
<use data-text="S" xlink:href="#font_6_21" transform="matrix(24,0,0,-24,153.65,425.34999)"/>
<use data-text="u" xlink:href="#font_6_158" transform="matrix(24,0,0,-24,166.25,425.34999)"/>
<use data-text="s" xlink:href="#font_6_156" transform="matrix(24,0,0,-24,180.722,425.34999)"/>
<use data-text="a" xlink:href="#font_6_138" transform="matrix(24,0,0,-24,190.898,425.34999)"/>
<use data-text="n" xlink:href="#font_6_151" transform="matrix(24,0,0,-24,202.898,425.34999)"/>
<use data-text="a" xlink:href="#font_6_138" transform="matrix(24,0,0,-24,216.866,425.34999)"/>
<use data-text=" " xlink:href="#font_6_561" transform="matrix(24,0,0,-24,228.866,425.34999)"/>
<use data-text="N" xlink:href="#font_6_16" transform="matrix(24,0,0,-24,234.866,425.34999)"/>
<use data-text="o" xlink:href="#font_6_152" transform="matrix(24,0,0,-24,254.81,425.34999)"/>
<use data-text="g" xlink:href="#font_6_144" transform="matrix(24,0,0,-24,267.914,425.34999)"/>
<use data-text="u" xlink:href="#font_6_158" transform="matrix(24,0,0,-24,281.258,425.34999)"/>
<use data-text="e" xlink:href="#font_6_142" transform="matrix(24,0,0,-24,295.73,425.34999)"/>
<use data-text="i" xlink:href="#font_6_146" transform="matrix(24,0,0,-24,307.226,425.34999)"/>
<use data-text="r" xlink:href="#font_6_155" transform="matrix(24,0,0,-24,314.21003,425.34999)"/>
<use data-text="a" xlink:href="#font_6_138" transform="matrix(24,0,0,-24,323.69004,425.34999)"/>
</g>
<g clip-path="url(#clip_15)">
<use data-text=" " xlink:href="#font_6_561" transform="matrix(24,0,0,-24,335.71,425.34999)"/>
</g>
<g clip-path="url(#clip_16)">
<use data-text=" " xlink:href="#font_1_561" transform="matrix(14.04,0,0,-14.04,64.944,447.19)"/>
</g>
<g clip-path="url(#clip_17)">
<use data-text=" " xlink:href="#font_1_561" transform="matrix(14.04,0,0,-14.04,208.97,447.19)"/>
</g>
</g>
</svg>
