<svg xmlns="http://www.w3.org/2000/svg" xmlns:xlink="http://www.w3.org/1999/xlink" version="1.1" width="432" height="648.12" viewBox="0 0 432 648.12">
<defs>
<clipPath id="clip_62">
<path transform="matrix(1,0,0,-1,0,648.12)" d="M.000006437 0H432V648.12H.000006437Z" fill-rule="evenodd"/>
</clipPath>
<path id="font_63_21" d="M.03857422 .16796875 .04248047 .171875H.06640625L.0703125 .16796875C.0719401 .12630208 .07413737 .10083008 .0769043 .091552738 .07967123 .08227539 .08846029 .072509769 .103271488 .06225586 .11808268 .052001954 .13777669 .043619794 .16235352 .037109376 .18693035 .030598959 .2117513 .02734375 .2368164 .02734375 .27132163 .02734375 .30232749 .033691408 .32983399 .04638672 .35734049 .05908203 .3787435 .0777181 .39404298 .10229492 .40934245 .12687175 .4169922 .15445964 .4169922 .1850586 .4169922 .20654297 .41333009 .22526042 .40600587 .24121094 .39868165 .25716148 .38842774 .26993815 .37524415 .27954103 .36206056 .2891439 .34700523 .29630534 .33007813 .3010254 .31315104 .30574546 .2879232 .3108724 .25439454 .31640626 .22184246 .3216146 .19637044 .32633464 .17797852 .3305664 .1595866 .3347982 .14127605 .3413086 .123046878 .35009767 .10481771 .35888673 .08959961 .3700358 .07739258 .38354493 .06518555 .39705406 .055419923 .4136556 .048095704 .4333496 .040771486 .4530436 .037109376 .4741211 .037109376 .49658204 .037109376 .5574544 .05826823 .6073405 .10058594 .64624026 .14290364 .68513998 .19970703 .70458987 .2709961 .70458987 .2993164 .70458987 .33015953 .7010905 .3635254 .6940918 .39689128 .6870931 .4272461 .6767578 .45458985 .66308596L.4580078 .65722659C.45084635 .6272786 .4464518 .58463546 .44482423 .5292969L.4404297 .5253906H.41503907L.4111328 .5288086C.41048179 .5678711 .40950523 .59244796 .40820313 .60253909 .40690104 .6126302 .39208985 .6251628 .36376954 .6401367 .33544923 .65511068 .3046875 .66259768 .27148438 .66259768 .24381511 .66259768 .2179362 .6570638 .19384766 .6459961 .16975911 .6349284 .15152996 .617513 .13916016 .59375 .12679036 .569987 .12060547 .54573568 .12060547 .5209961 .12060547 .50179037 .12434896 .4847819 .13183594 .4699707 .13932292 .45515953 .14900716 .44344078 .16088867 .43481446 .17277019 .42618815 .18660482 .41975913 .20239258 .41552735 .21818035 .41129557 .24707031 .40608726 .2890625 .39990235 .3466797 .3917643 .38859049 .38191734 .41479493 .37036134 .44099937 .35880534 .46199546 .34049479 .4777832 .3154297 .49357096 .2903646 .50146487 .26009117 .50146487 .22460938 .50146487 .15527344 .47322593 .09749349 .41674806 .05126953 .36027018 .0050455729 .29182945-.018066407 .21142578-.018066407 .14404297-.018066407 .08496094-.0060221354 .034179689 .018066407L.03125 .024414063C.034505208 .044921876 .036946615 .09277344 .03857422 .16796875Z"/>
<path id="font_63_158" d="M.16894531 .46533204 .17822266 .45898438C.17464192 .41634117 .17285156 .36214195 .17285156 .29638673V.18261719C.17285156 .14095052 .17602539 .111979167 .18237305 .095703128 .1887207 .079427089 .19970703 .066975917 .21533203 .05834961 .23095703 .04972331 .24951172 .045410158 .2709961 .045410158 .29475913 .045410158 .31640626 .050048829 .3359375 .059326173 .35546876 .068603519 .37182618 .08170573 .38500978 .09863281 .39819337 .1155599 .40576173 .12695313 .40771485 .1328125 .40966798 .13867188 .41097007 .15511067 .4116211 .1821289L.41308595 .2368164V.28955079C.41308595 .30257163 .4124349 .3203125 .4111328 .34277345 .40983073 .36523438 .4087728 .379069 .40795899 .38427735 .40714518 .3894857 .4046224 .39331056 .40039063 .39575196 .39615885 .39819337 .3876953 .39941407 .375 .39941407L.33398438 .39990235 .32958985 .4038086V.4248047L.3334961 .42871095C.39567057 .4361979 .44807945 .44840495 .49072267 .46533204L.5 .45898438C.49641929 .41634117 .4946289 .36214195 .4946289 .29638673V.21044922C.4946289 .2055664 .49544273 .16569011 .4970703 .09082031 .49772135 .06315104 .49943034 .04630534 .50219729 .040283204 .5049642 .034261068 .50878909 .030029297 .5136719 .02758789 .5185547 .025146485 .53304037 .023925782 .5571289 .023925782H.5708008L.5751953 .020019532V.00048828127L.57128909-.00390625C.5253906-.0013020834 .4946289 0 .4790039 0 .45914714 0 .4361979-.0011393229 .41015626-.0034179688L.40576173 .00048828127C.40771485 .033691408 .4091797 .061848958 .41015626 .08496094 .38964845 .069010417 .36621095 .0476888 .33984376 .020996094 .3297526 .010904948 .31526695 .0024414063 .29638673-.0043945314 .2775065-.011230469 .25602214-.0146484379 .2319336-.0146484379 .19547527-.0146484379 .16707357-.008870442 .14672852 .0026855469 .12638347 .014241536 .111979167 .030192057 .103515628 .05053711 .095052089 .070882167 .09082031 .10595703 .09082031 .15576172L.091308597 .19433594V.28955079C.091308597 .30257163 .090657558 .3203125 .08935547 .34277345 .08805338 .36523438 .086995448 .379069 .08618164 .38427735 .085367839 .3894857 .082845058 .39331056 .07861328 .39575196 .07438151 .39819337 .06591797 .39941407 .053222658 .39941407L.012207031 .39990235 .0078125 .4038086V.4248047L.01171875 .42871095C.07389323 .4361979 .12630208 .44840495 .16894531 .46533204M.28564454 .49609376V.49609376M.29052735-.029296875V-.029296875Z"/>
<path id="font_63_156" d="M.049316408 .14355469H.0703125L.07470703 .13916016C.07535807 .111816409 .07698568 .088378909 .079589847 .068847659 .08968099 .053548177 .10709635 .041097005 .13183594 .03149414 .15657552 .021891276 .18098958 .017089844 .20507813 .017089844 .23958333 .017089844 .26717124 .026367188 .2878418 .044921876 .30851237 .06347656 .31884767 .08561198 .31884767 .111328128 .31884767 .12532552 .31510417 .13745117 .3076172 .14770508 .30013023 .15795899 .28881837 .16642253 .27368165 .1730957 .25854493 .17976888 .23144531 .18766277 .19238281 .19677735 .15885417 .20458985 .13541667 .21069336 .12207031 .21508789 .10872396 .21948242 .09586588 .22688802 .083496097 .23730469 .071126308 .24772136 .0616862 .26049806 .05517578 .27563478 .048665365 .29077149 .045410158 .30745445 .045410158 .3256836 .045410158 .36930339 .06274414 .40421549 .09741211 .43041993 .13208008 .45662437 .17529297 .46972657 .22705078 .46972657 .24886067 .46972657 .2726237 .46671549 .29833985 .46069337 .324056 .45467124 .34358726 .44889323 .3569336 .44335938L.36132813 .43652345C.35872398 .4235026 .35709635 .3893229 .3564453 .33398438L.35205079 .32958985H.33251954L.328125 .33398438C.3268229 .35384117 .32503257 .36775718 .3227539 .37573243 .32047526 .38370768 .31461589 .39233399 .30517579 .40161134 .2957357 .41088868 .2823893 .41870118 .26513673 .42504884 .24788411 .43139649 .22965496 .4345703 .21044922 .4345703 .19059246 .4345703 .1739095 .43164063 .16040039 .42578126 .14689128 .41992188 .13598633 .41105143 .12768555 .39916993 .119384769 .38728843 .115234378 .37288413 .115234378 .35595704 .115234378 .34358726 .117757167 .33251954 .122802738 .3227539 .12784831 .31298829 .13557942 .3050944 .1459961 .29907228 .15641277 .29305015 .1673177 .28873698 .17871094 .2861328L.2319336 .27246095C.2775065 .26139323 .31013999 .25179038 .32983399 .24365235 .34952799 .23551433 .3647461 .2232259 .37548829 .20678711 .38623048 .19034831 .39160157 .17041016 .39160157 .14697266 .39160157 .10205078 .37304688 .06347656 .3359375 .03125 .29882813-.0009765625 .2511393-.017089844 .1928711-.017089844 .17236328-.017089844 .14689128-.014811198 .11645508-.010253906 .08601888-.0056966149 .060058595-.0006510417 .03857422 .0048828127L.036132814 .011230469 .041015626 .043945314C.04264323 .054036458 .043619794 .064208988 .043945314 .07446289 .044270833 .0847168 .044596357 .106282558 .044921876 .13916016L.049316408 .14355469Z"/>
<path id="font_63_138" d="M.103515628 .3310547 .084472659 .3359375 .080566409 .3408203V.4013672C.13850911 .44433595 .19482422 .4658203 .24951172 .4658203 .28694663 .4658203 .31803385 .45882163 .34277345 .44482423 .36751304 .4308268 .38541667 .41333009 .39648438 .39233399 .4075521 .3713379 .41308595 .34684245 .41308595 .31884767L.41064454 .22070313V.07519531C.41064454 .055338544 .41202799 .04329427 .41479493 .0390625 .41756187 .03483073 .4207357 .031982423 .4243164 .030517579 .42789714 .029052735 .4345703 .027832032 .44433595 .026855469L.47216798 .024414063 .47607423 .020019532V.00048828127L.47216798-.0034179688C.44840495-.0014648438 .42626954-.00048828127 .40576173-.00048828127 .38623048-.00048828127 .36279298-.0014648438 .33544923-.0034179688L.328125 .0034179688 .33007813 .08203125 .22363281-.0009765625C.20572917-.008463542 .18619792-.012207031 .16503906-.012207031 .13899739-.012207031 .116617839-.007486979 .09790039 .001953125 .079182948 .0113932299 .06486002 .024576823 .05493164 .041503908 .045003255 .05843099 .040039064 .078938808 .040039064 .103027347 .040039064 .1508789 .05501302 .18823242 .08496094 .21508789 .11490885 .24194336 .19661458 .2648112 .33007813 .2836914 .33007813 .3318685 .31933595 .36580406 .29785157 .38549806 .2763672 .40519206 .2475586 .41503907 .21142578 .41503907 .19254558 .41503907 .17537435 .41227214 .15991211 .40673829 .14444988 .40120445 .13557942 .39672853 .13330078 .39331056 .13102214 .38989259 .12223307 .36995445 .106933597 .3334961L.103515628 .3310547M.33007813 .25390626C.2389323 .23860677 .1821289 .22216797 .15966797 .20458985 .13720703 .18701172 .12597656 .15983074 .12597656 .123046878 .12597656 .072265628 .15120442 .046875 .20166016 .046875 .24495442 .046875 .2877604 .0719401 .33007813 .12207031V.25390626M.24707031 .49609376V.49609376M.2368164-.029296875V-.029296875Z"/>
<path id="font_63_151" d="M.16699219 .46533204 .17626953 .45898438C.1743164 .43717448 .17301433 .40852867 .17236328 .37304688 .19840496 .39453126 .22314453 .41634117 .24658203 .43847657 .25341798 .44466148 .25984703 .44921876 .26586915 .45214845 .27189128 .45507813 .28190104 .45817057 .29589845 .46142579 .30989585 .464681 .32421876 .4663086 .3388672 .4663086 .36360679 .4663086 .38761393 .46126304 .41088868 .45117188 .43416343 .44108073 .45174156 .42911784 .46362306 .4152832 .47550456 .40144859 .48372398 .38509117 .48828126 .36621095 .49283854 .34733073 .4951172 .324056 .4951172 .29638673V.21044922C.4951172 .20491536 .495931 .16438802 .4975586 .08886719 .49820964 .057942708 .5016276 .03955078 .5078125 .033691408 .5139974 .027832032 .5341797 .024902344 .5683594 .024902344L.5722656 .020996094V0L.5683594-.00390625C.52701827-.0013020834 .49902345 0 .484375 0 .47591148 0 .45214845-.0013020834 .41308595-.00390625L.40722657 .0014648438C.41145835 .04378255 .41357423 .098958339 .41357423 .16699219V.23095703C.41357423 .2693685 .41267906 .29703776 .41088868 .31396485 .4090983 .33089195 .40364585 .3462728 .39453126 .36010743 .38541667 .37394206 .37320964 .38468424 .35791017 .39233399 .3426107 .39998374 .3243815 .4038086 .30322267 .4038086 .28629557 .4038086 .2718099 .4020996 .25976563 .39868165 .24772136 .39526368 .23421224 .38826499 .21923828 .37768556 .20426433 .3671061 .19319661 .35717774 .18603516 .3479004 .1788737 .33862306 .17456055 .32999674 .1730957 .32202149 .17163086 .31404624 .17089844 .29703776 .17089844 .2709961V.18603516C.17089844 .1788737 .17154949 .1558431 .17285156 .11694336 .17415364 .07804362 .17553711 .055338544 .17700196 .048828126 .1784668 .042317708 .18066406 .037597658 .18359375 .03466797 .18652344 .03173828 .19010417 .029866538 .19433594 .029052735 .1985677 .028238932 .21614583 .026855469 .24707031 .024902344L.25146485 .020996094V.00048828127L.2475586-.00390625C.20686849-.0013020834 .16764324 0 .12988281 0 .092447917 0 .053385419-.0013020834 .0126953129-.00390625L.008300781 .00048828127V.020996094L.0126953129 .024902344C.044270833 .026855469 .062093099 .028320313 .06616211 .029296875 .07023112 .030273438 .07381185 .03230794 .0769043 .03540039 .07999674 .03849284 .08211263 .04321289 .08325195 .049560548 .08439127 .055908204 .08569336 .0769043 .0871582 .11254883 .08862305 .14819336 .08935547 .1751302 .08935547 .19335938V.28955079C.08935547 .30257163 .08870443 .3203125 .087402347 .34277345 .08610026 .36523438 .08504232 .379069 .084228519 .38427735 .08341471 .3894857 .08089193 .39331056 .076660159 .39575196 .07242838 .39819337 .063964847 .39941407 .05126953 .39941407L.010253906 .39990235 .005859375 .4038086V.4248047L.009765625 .42871095C.0719401 .4361979 .12434896 .44840495 .16699219 .46533204Z"/>
<path id="font_63_561" d="M0 0Z"/>
<path id="font_63_16" d="M.032226564-.0034179688 .027832032 .0009765625V.0234375L.032226564 .02734375C.052083333 .027669272 .06795248 .028808594 .079833988 .030761719 .09171549 .032714845 .099365238 .03597005 .1027832 .040527345 .10620117 .045084638 .10847982 .052408857 .10961914 .0625 .11075846 .07259115 .11189779 .0953776 .11303711 .13085938 .11417643 .16634114 .114746097 .19173177 .114746097 .20703125V.6015625C.114746097 .61816409 .11173502 .63045248 .10571289 .63842776 .09969076 .646403 .09147135 .65144857 .08105469 .65356448 .07063802 .65568038 .052897138 .65690109 .027832032 .65722659L.023925782 .6611328V.68408206L.027832032 .68847659C.072753909 .68684896 .10221354 .68603518 .11621094 .68603518 .14908855 .68603518 .17610677 .68684896 .19726563 .68847659L.35302735 .48632813 .58203127 .19921875C.6097005 .16438802 .6378581 .13134766 .6665039 .100097659V.47802735C.6665039 .4897461 .66593429 .5147298 .6647949 .5529785 .6636556 .59122726 .66227218 .6154785 .66064456 .6257324 .6590169 .6359863 .65616866 .6429036 .6520996 .6464844 .6480306 .6500651 .64038088 .6527507 .6291504 .654541 .6179199 .65633139 .60270187 .65738937 .5834961 .65771487L.57958987 .6616211V.68408206L.5834961 .68847659C.6098633 .68684896 .64746096 .68603518 .69628909 .68603518 .74088546 .68603518 .7732747 .68684896 .79345706 .68847659L.79785159 .68408206V.6616211L.7939453 .65771487C.77246096 .65738937 .7558594 .65616866 .7441406 .65405276 .7324219 .6519368 .72509768 .6484375 .72216799 .6435547 .7192383 .6386719 .7172038 .63151046 .71606448 .6220703 .7149251 .6126302 .7137858 .59016928 .7126465 .5546875 .71150717 .51920577 .7109375 .49365235 .7109375 .47802735V.24609375L.7114258 .111816409C.71207687 .067871097 .71272787 .023763022 .7133789-.020507813 .69710287-.014973958 .6689453-.0081380209 .62890627 0L.5942383 .041015626 .49023438 .16796875 .15917969 .58154299V.20703125C.15917969 .1920573 .15974935 .16536458 .16088867 .12695313 .162028 .088541667 .16341146 .06526693 .16503906 .057128908 .16666667 .048990888 .16878255 .043375654 .17138672 .040283204 .17399089 .037190755 .17960613 .03434245 .18823242 .03173828 .19685872 .029134116 .21468099 .027669272 .24169922 .02734375L.24560547 .0234375V.00048828127L.24169922-.0034179688C.22477214-.0011393229 .19742839 0 .15966797 0 .11116537 0 .0686849-.0011393229 .032226564-.0034179688Z"/>
<path id="font_63_152" d="M.033203126 .22363281C.033203126 .26236979 .041178388 .2997233 .057128908 .33569337 .07307943 .37166343 .10083008 .40275065 .14038086 .42895509 .17993164 .45515953 .22688802 .46826173 .28125 .46826173 .34960938 .46826173 .40527345 .44669596 .4482422 .40356446 .49121095 .36043296 .5126953 .30501304 .5126953 .23730469 .5126953 .16276042 .4880371 .10139974 .4387207 .053222658 .3894043 .0050455729 .32991538-.019042969 .2602539-.019042969 .21468099-.019042969 .17399089-.006754557 .1381836 .017822266 .102376308 .04239909 .075927738 .07242838 .05883789 .107910159 .041748048 .14339192 .033203126 .18196614 .033203126 .22363281M.12548828 .25732423C.12548828 .2117513 .13134766 .17097982 .1430664 .13500977 .15478516 .09903971 .17333985 .07014974 .19873047 .048339845 .2241211 .026529948 .25309245 .015625 .28564454 .015625 .324056 .015625 .35579429 .0308431 .38085938 .061279298 .40592448 .09171549 .41845704 .13753255 .41845704 .19873047 .41845704 .2680664 .40486656 .32486979 .37768556 .36914063 .35050456 .41341148 .3113607 .43554688 .2602539 .43554688 .2179362 .43554688 .18489583 .4202474 .16113281 .38964845 .1373698 .35904948 .12548828 .3149414 .12548828 .25732423M.2734375 .49609376V.49609376M.26611329-.029296875V-.029296875Z"/>
<path id="font_63_144" d="M.5385742 .43164063 .54248049 .42285157C.5291341 .40234376 .5208333 .3889974 .5175781 .3828125H.4267578C.4358724 .36490885 .4404297 .3461914 .4404297 .32666017 .4404297 .3035482 .43513999 .28108726 .42456056 .25927735 .4139811 .23746746 .3992513 .21891277 .3803711 .20361328 .36149089 .1883138 .3400879 .17610677 .3161621 .16699219 .29223634 .15787761 .26497398 .15332031 .234375 .15332031H.21191406C.19270833 .13802083 .18033855 .12662761 .17480469 .119140628 .16927083 .11165365 .1665039 .104003909 .1665039 .096191409 .1665039 .08186849 .1730957 .071777347 .1862793 .06591797 .19946289 .060058595 .22672527 .057128908 .2680664 .057128908L.3774414 .05859375C.41194663 .05859375 .43839518 .05452474 .4567871 .04638672 .47517906 .0382487 .49007163 .02368164 .50146487 .0026855469 .5128581-.018310547 .5185547-.040527345 .5185547-.063964847 .5185547-.09977213 .5069173-.13549805 .48364259-.17114258 .46036784-.20678711 .4267578-.23388672 .3828125-.2524414 .3388672-.2709961 .2919922-.28027345 .2421875-.28027345 .21386719-.28027345 .18725586-.277181 .16235352-.2709961 .13745117-.2648112 .11564127-.25545249 .09692383-.24291992 .07820638-.23038738 .06315104-.21402996 .051757814-.19384766 .040364583-.17366536 .03466797-.15266927 .03466797-.13085938 .03466797-.1188151 .036458333-.10620117 .040039064-.09301758 .043619794-.079833988 .05045573-.065592449 .060546876-.05029297L.14892578-.0009765625C.12060547 .0078125 .1027832 .016520182 .095458988 .025146485 .088134769 .033772787 .084472659 .044108076 .084472659 .056152345 .084472659 .06852213 .088541667 .08317057 .09667969 .100097659L.17529297 .15673828C.12906902 .16878255 .09790039 .18684896 .08178711 .2109375 .06567383 .23502605 .057617189 .26139323 .057617189 .29003907 .057617189 .31640626 .063313808 .34155274 .07470703 .36547853 .08610026 .3894043 .103271488 .40852867 .1262207 .42285157 .14916992 .43717448 .17488607 .44848634 .20336914 .4567871 .23185222 .4650879 .2578125 .46923829 .28125 .46923829 .3219401 .46923829 .3606771 .4560547 .39746095 .4296875 .45638023 .4296875 .50341799 .43033854 .5385742 .43164063M.14160156 .31835938C.14160156 .2985026 .14550781 .277181 .15332031 .25439454 .16113281 .23160808 .17374675 .21435547 .19116211 .20263672 .20857747 .19091797 .22819011 .1850586 .25 .1850586 .27897135 .1850586 .30395509 .1944987 .32495118 .2133789 .34594728 .23225911 .3564453 .26171876 .3564453 .3017578 .3564453 .33561198 .34684245 .3660482 .32763673 .3930664 .308431 .42008464 .28125 .43359376 .24609375 .43359376 .21647136 .43359376 .19165039 .42390953 .17163086 .40454103 .15161133 .38517253 .14160156 .3564453 .14160156 .31835938M.28466798-.009277344C.23225911-.009277344 .20206706-.009928386 .1940918-.011230469 .18611653-.012532552 .17480469-.018066407 .16015625-.027832032 .14550781-.037597658 .13354492-.05086263 .12426758-.06762695 .114990238-.08439127 .11035156-.1031901 .11035156-.12402344 .11035156-.1608073 .12402344-.1907552 .15136719-.21386719 .17871094-.23697917 .21516927-.24853516 .2607422-.24853516 .29492188-.24853516 .3264974-.2413737 .35546876-.22705078 .3844401-.21272786 .4058431-.19352214 .41967774-.1694336 .43351237-.14534505 .4404297-.12223307 .4404297-.100097659 .4404297-.07796224 .4346517-.059000654 .4230957-.04321289 .4115397-.02742513 .39656578-.017822266 .37817384-.014404297 .3597819-.010986328 .32861329-.009277344 .28466798-.009277344Z"/>
<path id="font_63_142" d="M.43164063 .071777347 .41601563 .036621095C.38216148 .014811198 .3519694 .0006510417 .32543946-.005859375 .29890953-.012369792 .27522788-.015625 .25439454-.015625 .21533203-.015625 .17830403-.007975261 .14331055 .0073242189 .108317058 .022623698 .079833988 .048502607 .057861329 .08496094 .035888673 .12141927 .024902344 .16536458 .024902344 .21679688 .024902344 .25097657 .029134116 .28181968 .037597658 .30932618 .0460612 .33683268 .05493164 .35725913 .064208988 .37060548 .07348633 .3839518 .08919271 .39876304 .111328128 .41503907 .13346355 .4313151 .15690105 .44433595 .18164063 .45410157 .2063802 .4638672 .23307292 .46875 .26171876 .46875 .30078126 .46875 .33520509 .45955406 .36499024 .4411621 .3947754 .42277018 .4156901 .3992513 .42773438 .37060548 .43977867 .34195964 .44580079 .31152345 .44580079 .27929688 .44580079 .26920573 .4453125 .2594401 .44433595 .25L.43896485 .2446289C.41682945 .2397461 .38704429 .23649089 .34960938 .23486328 .31217448 .23323567 .2874349 .23242188 .27539063 .23242188H.118652347C.11930338 .16503906 .13623047 .11539713 .1694336 .083496097 .20263672 .05159505 .24332683 .03564453 .2915039 .03564453 .31429038 .03564453 .33618165 .03955078 .35717774 .04736328 .37817384 .05517578 .40039063 .06608073 .42382813 .080078128L.43164063 .071777347M.118652347 .27148438C.12451172 .2705078 .14705403 .2693685 .1862793 .2680664 .22550456 .2667643 .25455729 .26611329 .2734375 .26611329 .3186849 .26611329 .3461914 .2669271 .35595704 .2685547 .35628257 .2763672 .3564453 .2823893 .3564453 .2866211 .3564453 .3370768 .3461914 .3745931 .3256836 .39916993 .30517579 .42374674 .277181 .43603517 .24169922 .43603517 .20296224 .43603517 .17277019 .42220054 .15112305 .39453126 .1294759 .36686198 .118652347 .32584635 .118652347 .27148438M.2548828 .49609376V.49609376M.24902344-.029296875V-.029296875Z"/>
<path id="font_63_146" d="M.140625 .68359377C.15592449 .68359377 .16894531 .67822268 .1796875 .66748049 .19042969 .6567383 .19580078 .64371749 .19580078 .62841799 .19580078 .61344406 .19042969 .60058596 .1796875 .58984377 .16894531 .57910159 .15592449 .57373049 .140625 .57373049 .12565105 .57373049 .112711589 .5790202 .10180664 .5895996 .090901698 .600179 .08544922 .61311849 .08544922 .62841799 .08544922 .64371749 .090901698 .6567383 .10180664 .66748049 .112711589 .67822268 .12565105 .68359377 .140625 .68359377M.1821289 .46533204 .19140625 .45898438C.18782552 .41634117 .18603516 .36214195 .18603516 .29638673V.18603516C.18603516 .1788737 .1866862 .1558431 .18798828 .11694336 .18929036 .07804362 .19067383 .055338544 .19213867 .048828126 .19360352 .042317708 .19580078 .037597658 .19873047 .03466797 .20166016 .03173828 .20524089 .029866538 .20947266 .029052735 .21370442 .028238932 .23128255 .026855469 .26220704 .024902344L.26660157 .020996094V.00048828127L.2626953-.00390625C.2220052-.0013020834 .18277996 0 .14501953 0 .10758463 0 .06852213-.0013020834 .027832032-.00390625L.0234375 .00048828127V.020996094L.027832032 .024902344C.05940755 .026855469 .07722982 .028320313 .08129883 .029296875 .085367839 .030273438 .08894857 .03230794 .092041019 .03540039 .09513346 .03849284 .09724935 .04321289 .09838867 .049560548 .09952799 .055908204 .10083008 .0769043 .10229492 .11254883 .103759769 .14819336 .10449219 .1751302 .10449219 .19335938V.28955079C.10449219 .30257163 .10384115 .3203125 .10253906 .34277345 .10123698 .36523438 .10017904 .379069 .099365238 .38427735 .09855143 .3894857 .09602865 .39331056 .091796878 .39575196 .0875651 .39819337 .07910156 .39941407 .06640625 .39941407L.025390625 .39990235 .020996094 .4038086V.4248047L.024902344 .42871095C.08707682 .4361979 .13948567 .44840495 .1821289 .46533204M.14404297-.029296875V-.029296875Z"/>
<path id="font_63_155" d="M.1875 .46533204 .19677735 .45898438C.19482422 .44010417 .19335938 .40657554 .19238281 .35839845L.2290039 .40478517C.24104817 .42008464 .25170899 .43188478 .26098634 .44018556 .27026368 .44848634 .28108726 .45491538 .29345704 .45947267 .3058268 .46402995 .31852214 .4663086 .33154298 .4663086 .34586589 .4663086 .359375 .4633789 .3720703 .45751954L.37548829 .4506836C.37027995 .4073893 .36735026 .36930339 .36669923 .33642579H.34472657C.33170573 .3663737 .31070964 .38134767 .28173829 .38134767 .261556 .38134767 .24397786 .3749186 .2290039 .36206056 .21402996 .34920249 .20402019 .3330892 .19897461 .3137207 .19392903 .2943522 .19140625 .26985679 .19140625 .24023438V.18603516C.19140625 .17626953 .1920573 .15234375 .19335938 .11425781 .19466146 .076171878 .19604492 .05419922 .19750977 .048339845 .19897461 .04248047 .20125325 .038167318 .2043457 .03540039 .20743816 .032633466 .21150716 .030761719 .21655274 .029785157 .22159831 .028808594 .24479167 .02718099 .2861328 .024902344L.29052735 .020996094V.00048828127L.2861328-.00390625C.24283855-.0013020834 .19759114 0 .15039063 0 .11295573 0 .07389323-.0013020834 .033203126-.00390625L.028808594 .00048828127V.020996094L.033203126 .024902344C.06477865 .026855469 .082600917 .028320313 .08666992 .029296875 .09073893 .030273438 .094319667 .03230794 .09741211 .03540039 .100504558 .03849284 .102620448 .04321289 .103759769 .049560548 .104899089 .055908204 .10620117 .0769043 .107666019 .11254883 .10913086 .14819336 .10986328 .1751302 .10986328 .19335938V.28955079C.10986328 .30257163 .10921224 .3203125 .107910159 .34277345 .10660807 .36523438 .10555013 .379069 .10473633 .38427735 .10392252 .3894857 .10139974 .39331056 .09716797 .39575196 .092936199 .39819337 .084472659 .39941407 .071777347 .39941407L.030761719 .39990235 .026367188 .4038086V.4248047L.030273438 .42871095C.092447917 .4361979 .14485677 .44840495 .1875 .46533204Z"/>
<clipPath id="clip_64">
<path transform="matrix(1,0,0,-1,0,648.12)" d="M.000006437 0H432V648.12H.000006437Z" fill-rule="evenodd"/>
</clipPath>
<clipPath id="clip_65">
<path transform="matrix(1,0,0,-1,0,648.12)" d="M.000006437 0H432V648.12H.000006437Z" fill-rule="evenodd"/>
</clipPath>
<clipPath id="clip_66">
<path transform="matrix(1,0,0,-1,0,648.12)" d="M.000006437 0H432V648.12H.000006437Z" fill-rule="evenodd"/>
</clipPath>
<path id="font_63_345" d="M.05078125 .011230469C.044921876 .049641927 .034016927 .09586588 .018066407 .14990235L.020507813 .15722656 .03857422 .1640625 .045410158 .16064453C.056803388 .13069661 .069010417 .10595703 .08203125 .08642578 .095052089 .06689453 .11376953 .051920576 .1381836 .041503908 .16259766 .03108724 .18896485 .025878907 .21728516 .025878907 .25309245 .025878907 .28149415 .033365888 .30249024 .048339845 .32348634 .063313808 .339681 .08365885 .35107423 .109375 .36246745 .13509114 .36816407 .1640625 .36816407 .19628906 .36816407 .23958333 .3568522 .27360026 .33422853 .29833985 .31160484 .32307945 .28027345 .33544923 .24023438 .33544923 .2265625 .33544923 .21435547 .33414714 .20361328 .33154298 .1928711 .3289388 .17626953 .32307945 .1538086 .31396485L.1484375 .31884767 .15917969 .3720703C.18554688 .37044273 .203125 .3696289 .21191406 .3696289 .25 .3696289 .28019206 .38313804 .30249024 .41015626 .32478843 .43717448 .3359375 .46907554 .3359375 .5058594 .3359375 .53808596 .32430015 .5651042 .3010254 .58691409 .27775065 .60872396 .24902344 .6196289 .21484375 .6196289 .19238281 .6196289 .17114258 .6150716 .15112305 .60595706 .13110352 .59684249 .114583339 .5857747 .1015625 .5727539 .09602865 .5616862 .087239589 .5398763 .07519531 .5073242L.0703125 .5029297H.048339845L.044433595 .5073242 .07373047 .62060549C.11442057 .6665039 .16959636 .6894531 .23925781 .6894531 .29231773 .6894531 .33520509 .6753743 .36791993 .6472168 .40063478 .61905929 .4169922 .5836589 .4169922 .5410156 .4169922 .50846359 .4073893 .47859703 .3881836 .45141603 .36897788 .42423503 .34228517 .39860026 .30810548 .37451173 .36442057 .36767579 .40405274 .35083009 .42700196 .3239746 .44995118 .29711915 .46142579 .26464845 .46142579 .2265625 .46142579 .1640625 .43310548 .10782877 .37646485 .057861329 .31982423 .00789388 .25439454-.017089844 .18017578-.017089844 .15804036-.017089844 .1373698-.015218099 .11816406-.011474609 .098958339-.0077311198 .0764974-.00016276042 .05078125 .011230469Z"/>
<clipPath id="clip_67">
<path transform="matrix(1,0,0,-1,0,648.12)" d="M.000006437 0H432V648.12H.000006437Z" fill-rule="evenodd"/>
</clipPath>
<clipPath id="clip_68">
<path transform="matrix(1,0,0,-1,0,648.12)" d="M.000006437 0H432V648.12H.000006437Z" fill-rule="evenodd"/>
</clipPath>
<clipPath id="clip_69">
<path transform="matrix(1,0,0,-1,0,648.12)" d="M.000006437 0H432V648.12H.000006437Z" fill-rule="evenodd"/>
</clipPath>
<path id="font_70_3" d="M0 0Z"/>
<clipPath id="clip_71">
<path transform="matrix(1,0,0,-1,0,648.12)" d="M.000006437 0H432V648.12H.000006437Z" fill-rule="evenodd"/>
</clipPath>
<clipPath id="clip_72">
<path transform="matrix(1,0,0,-1,0,648.12)" d="M.000006437 0H432V648.12H.000006437Z" fill-rule="evenodd"/>
</clipPath>
<path id="font_73_561" d="M0 0Z"/>
<clipPath id="clip_74">
<path transform="matrix(1,0,0,-1,0,648.12)" d="M.000006437 0H432V648.12H.000006437Z" fill-rule="evenodd"/>
</clipPath>
<clipPath id="clip_75">
<path transform="matrix(1,0,0,-1,0,648.12)" d="M.000006437 0H432V648.12H.000006437Z" fill-rule="evenodd"/>
</clipPath>
<clipPath id="clip_76">
<path transform="matrix(1,0,0,-1,0,648.12)" d="M.000006437 0H432V648.12H.000006437Z" fill-rule="evenodd"/>
</clipPath>
<clipPath id="clip_77">
<path transform="matrix(1,0,0,-1,0,648.12)" d="M.000006437 0H432V648.12H.000006437Z" fill-rule="evenodd"/>
</clipPath>
<clipPath id="clip_78">
<path transform="matrix(1,0,0,-1,0,648.12)" d="M.000006437 0H432V648.12H.000006437Z" fill-rule="evenodd"/>
</clipPath>
<clipPath id="clip_79">
<path transform="matrix(1,0,0,-1,0,648.12)" d="M.000006437 0H432V648.12H.000006437Z" fill-rule="evenodd"/>
</clipPath>
<clipPath id="clip_80">
<path transform="matrix(1,0,0,-1,0,648.12)" d="M.000006437 0H432V648.12H.000006437Z" fill-rule="evenodd"/>
</clipPath>
<clipPath id="clip_81">
<path transform="matrix(1,0,0,-1,0,648.12)" d="M.000006437 0H432V648.12H.000006437Z" fill-rule="evenodd"/>
</clipPath>
<clipPath id="clip_82">
<path transform="matrix(1,0,0,-1,0,648.12)" d="M.000006437 0H432V648.12H.000006437Z" fill-rule="evenodd"/>
</clipPath>
<clipPath id="clip_83">
<path transform="matrix(1,0,0,-1,0,648.12)" d="M.000006437 0H432V648.12H.000006437Z" fill-rule="evenodd"/>
</clipPath>
<path id="font_63_5" d="M.68115237 .08251953 .66259768 .037109376C.59033206 .00032552085 .5131836-.018066407 .43115235-.018066407 .3136393-.018066407 .21818035 .0152994799 .14477539 .08203125 .071370448 .14876302 .03466797 .23600261 .03466797 .34375 .03466797 .41796876 .052978517 .48282878 .08959961 .5383301 .1262207 .59383139 .17456055 .63533529 .23461914 .6628418 .29467774 .6903483 .36214195 .70410159 .43701173 .70410159 .480306 .70410159 .523112 .69954428 .5654297 .6904297 .6077474 .6813151 .6430664 .67041018 .6713867 .65771487L.6748047 .65283206C.6673177 .63460287 .66031906 .58951827 .6538086 .5175781L.6503906 .5136719H.6274414L.62353518 .5175781 .61865237 .60058596C.59488937 .6194661 .5661621 .634196 .5324707 .6447754 .4987793 .6553548 .46370445 .66064456 .4272461 .66064456 .37223307 .66064456 .32291667 .6488444 .27929688 .62524417 .23567708 .60164389 .20182292 .5674642 .17773438 .5227051 .15364583 .47794596 .14160156 .4231771 .14160156 .35839845 .14160156 .29329429 .15576172 .23616536 .18408203 .18701172 .21240235 .13785808 .25105796 .100097659 .30004884 .07373047 .3490397 .04736328 .40625 .034179689 .4716797 .034179689 .50065109 .034179689 .5284831 .036946615 .5551758 .04248047 .58186849 .048014326 .60408529 .05485026 .6218262 .06298828 .6395671 .071126308 .6565755 .08105469 .67285159 .09277344L.68115237 .08251953Z"/>
<path id="font_63_153" d="M.18066406 .4711914 .1899414 .46533204C.1866862 .42822267 .18489583 .39534507 .18457031 .36669923 .22884114 .4070638 .25968424 .4337565 .2770996 .44677735 .29451499 .4597982 .32454429 .4663086 .3671875 .4663086 .39388023 .4663086 .4181315 .46264649 .4399414 .45532228 .4617513 .44799806 .4819336 .43595378 .5004883 .41918946 .51904299 .40242515 .5336914 .38142906 .5444336 .35620118 .5551758 .3309733 .5605469 .3017578 .5605469 .2685547 .5605469 .24511719 .5568034 .22135417 .5493164 .19726563 .5418294 .17317708 .5319824 .1508789 .5197754 .1303711 .50756838 .10986328 .49780274 .09627279 .49047853 .08959961 .4831543 .08292643 .46809898 .072916667 .4453125 .059570314 .4248047 .04720052 .40445964 .033854169 .38427735 .01953125 .37027995 .0094401049 .3605143 .0029296876 .35498048 0 .34944663-.0029296876 .34016929-.005859375 .32714845-.0087890629 .3141276-.01171875 .30029298-.013183594 .28564454-.013183594 .25179038-.013183594 .21809896-.0045572917 .18457031 .0126953129V-.091308597C.18457031-.098470058 .18522136-.12150065 .18652344-.16040039 .18782552-.19930013 .18920899-.2220052 .19067383-.22851563 .19213867-.23502605 .19433594-.2397461 .19726563-.24267578 .20019531-.24560547 .20377605-.24747722 .20800781-.24829102 .21223958-.24910482 .2298177-.25048829 .2607422-.2524414L.26513673-.25634767V-.27685548L.26123048-.28125C.22054036-.27864585 .18147786-.27734376 .14404297-.27734376 .10660807-.27734376 .06754557-.27864585 .026855469-.28125L.022460938-.27685548V-.25634767L.026855469-.2524414C.05810547-.25048829 .07584635-.24902344 .080078128-.24804688 .0843099-.24707031 .08797201-.24503581 .09106445-.24194336 .0941569-.2388509 .09627279-.23388672 .09741211-.22705078 .09855143-.22021485 .099853519-.19840496 .10131836-.1616211 .1027832-.12483724 .103515628-.09716797 .103515628-.07861328V.29541017C.103515628 .31233726 .1027832 .33194987 .10131836 .35424806 .099853519 .37654624 .09863281 .3894857 .09765625 .3930664 .09667969 .39664714 .094319667 .3995768 .09057617 .40185548 .08683268 .40413413 .07845052 .40527345 .06542969 .40527345L.024414063 .40576173 .020019532 .40966798V.43066407L.023925782 .4345703C.08610026 .44205729 .13834636 .4542643 .18066406 .4711914M.18457031 .09667969C.19954427 .08138021 .21809896 .068115238 .24023438 .056884767 .26236979 .045654298 .28678385 .040039064 .31347657 .040039064 .3450521 .040039064 .37296549 .048014326 .3972168 .063964847 .4214681 .07991537 .44026695 .103271488 .45361329 .1340332 .46695964 .16479492 .4736328 .19889324 .4736328 .23632813 .4736328 .26660157 .46769206 .29475913 .45581056 .32080079 .44392906 .34684245 .4255371 .36735026 .40063478 .38232423 .37573243 .3972982 .34928385 .40478517 .32128907 .40478517 .30403648 .40478517 .28727214 .40177409 .2709961 .39575196 .25472007 .38972984 .23950196 .38085938 .2253418 .36914063 .21118164 .35742188 .20100911 .3462728 .19482422 .33569337 .18863933 .32511393 .18538411 .31632487 .1850586 .30932618 .18473308 .30232749 .18457031 .29459635 .18457031 .2861328V.09667969Z"/>
<path id="font_63_162" d="M.021972657-.26513673C.033040365-.23779297 .041341146-.21272786 .046875-.1899414H.05859375C.07454427-.20719402 .091796878-.21582031 .11035156-.21582031 .13346355-.21582031 .15356446-.2043457 .1706543-.18139649 .18774414-.15844727 .21191406-.1077474 .24316406-.029296875 .23079427 .005533854 .21826172 .038411458 .2055664 .06933594L.12792969 .26171876C.119791667 .28157554 .1077474 .3099772 .091796878 .34692384 .07584635 .38387046 .06632487 .40421549 .06323242 .40795899 .060139974 .41170249 .056152345 .4152018 .05126953 .41845704 .04638672 .42171226 .033203126 .4248047 .01171875 .42773438L.0078125 .43164063V.45117188L.012207031 .45507813C.049641927 .45279948 .08805338 .45166017 .1274414 .45166017 .17366536 .45166017 .20930989 .45279948 .234375 .45507813L.23828125 .45117188V.43164063L.23486328 .42773438C.23128255 .42740885 .22127278 .42667643 .20483399 .4255371 .18839519 .4243978 .17814128 .4217936 .17407227 .4177246 .17000325 .4136556 .16796875 .40901695 .16796875 .4038086 .16796875 .39827476 .17301433 .3802897 .18310547 .34985353 .19319661 .31941734 .20296224 .29248048 .21240235 .26904298L.24316406 .1928711C.26334635 .14274089 .27897135 .10579427 .29003907 .08203125L.31591798 .13916016C.32503257 .15999349 .33805339 .19156902 .35498048 .23388672L.3955078 .33740235C.40592448 .36409507 .41186524 .38069663 .41333009 .38720704 .41479493 .39371745 .41552735 .3984375 .41552735 .4013672 .41552735 .40852867 .4129232 .41341148 .40771485 .41601563 .4025065 .41861979 .39095054 .42089845 .37304688 .42285157L.35253907 .42578126 .3491211 .4296875V.45117188L.35302735 .45507813C.3803711 .45279948 .4127604 .45166017 .4501953 .45166017 .484375 .45166017 .51171877 .45279948 .53222659 .45507813L.5361328 .45117188V.4296875L.53222659 .42578126C.5201823 .42545573 .5105794 .42382813 .50341799 .42089845 .4962565 .41796876 .48942057 .4127604 .48291017 .40527345 .47639976 .39778648 .464681 .37670899 .4477539 .34204103 .4308268 .30737306 .41389976 .27148438 .39697267 .234375L.3491211 .12939453 .23632813-.13427735C.2265625-.1570638 .21443685-.18147786 .19995117-.20751953 .1854655-.2335612 .16772461-.25236003 .14672852-.26391603 .12573242-.27547203 .103515628-.28125 .080078128-.28125 .059570314-.28125 .040201826-.2758789 .021972657-.26513673M.28320313 .49609376V.49609376M.39794923-.029296875V-.029296875Z"/>
<path id="font_63_145" d="M.16601563 .72314456 .17529297 .71728518C.17171224 .6798503 .16992188 .6048177 .16992188 .4921875V.37158204C.19726563 .39404298 .22265625 .41634117 .24609375 .43847657 .2529297 .44466148 .2594401 .44921876 .265625 .45214845 .2718099 .45507813 .28181968 .45817057 .2956543 .46142579 .30948893 .464681 .32373048 .4663086 .3383789 .4663086 .3631185 .4663086 .38712565 .46126304 .4104004 .45117188 .43367515 .44108073 .45125328 .42911784 .46313478 .4152832 .47501628 .40144859 .4832357 .38509117 .48779298 .36621095 .49235026 .34733073 .4946289 .324056 .4946289 .29638673V.21044922C.4946289 .20491536 .49544273 .16438802 .4970703 .08886719 .49804688 .057942708 .5015462 .03955078 .50756838 .033691408 .5135905 .027832032 .5336914 .024902344 .5678711 .024902344L.57177737 .020996094V0L.5678711-.00390625C.52652999-.0013020834 .49853517 0 .48388673 0 .47639976 0 .45263673-.0013020834 .41259767-.00390625L.40673829 .0014648438C.41097007 .04378255 .41308595 .098958339 .41308595 .16699219V.23095703C.41308595 .2693685 .41219078 .29703776 .4104004 .31396485 .40861003 .33089195 .40315757 .3462728 .39404298 .36010743 .38492839 .37394206 .37280274 .38468424 .35766603 .39233399 .3425293 .39998374 .32421876 .4038086 .30273438 .4038086 .28059898 .4038086 .26212565 .40079753 .24731446 .3947754 .23250325 .38875328 .21744792 .37858073 .20214844 .3642578 .18684896 .3499349 .177653 .33797203 .17456055 .32836915 .1714681 .31876628 .16992188 .30029298 .16992188 .27294923V.18603516C.16992188 .1788737 .17057292 .1558431 .171875 .11694336 .17317708 .07804362 .17456055 .055338544 .17602539 .048828126 .17749024 .042317708 .1796875 .037597658 .18261719 .03466797 .18554688 .03173828 .18912761 .029866538 .19335938 .029052735 .19759114 .028238932 .21516927 .026855469 .24609375 .024902344L.25048829 .020996094V.00048828127L.24658203-.00390625C.20589192-.0013020834 .16666667 0 .12890625 0 .09147135 0 .052408857-.0013020834 .01171875-.00390625L.0073242189 .00048828127V.020996094L.01171875 .024902344C.04329427 .026855469 .061116537 .028320313 .06518555 .029296875 .069254558 .030273438 .07283529 .03230794 .075927738 .03540039 .07902018 .03849284 .08113607 .04321289 .08227539 .049560548 .08341471 .055908204 .0847168 .0769043 .08618164 .11254883 .087646488 .14819336 .088378909 .1751302 .088378909 .19335938V.44628907L.08642578 .5498047C.08544922 .5859375 .08439127 .6110026 .08325195 .625 .08211263 .6389974 .080566409 .64729818 .07861328 .64990237 .076660159 .65250656 .07324219 .65445968 .068359378 .6557617 .06347656 .6570638 .04378255 .65771487 .009277344 .65771487L.0048828127 .6621094V.6826172L.0087890629 .6870117C.07096354 .69417318 .1233724 .70621749 .16601563 .72314456Z"/>
<path id="font_63_157" d="M.022460938 .38330079V.3959961L.025878907 .4008789C.056477865 .41227214 .081217449 .42285157 .100097659 .4326172 .100097659 .5175781 .099121097 .5670573 .09716797 .5810547 .13069661 .59277346 .15820313 .60530599 .1796875 .61865237L.19140625 .6088867C.18815105 .5883789 .1842448 .5288086 .1796875 .43017579 .19596355 .42985026 .21354167 .4296875 .23242188 .4296875 .27083335 .4296875 .29833985 .43066407 .3149414 .4326172L.31835938 .42919923 .30908204 .3881836 .30517579 .38378907C.28857423 .3841146 .27018229 .38427735 .25 .38427735 .23177083 .38427735 .20833333 .3841146 .1796875 .38378907L.17675781 .1850586C.17675781 .13916016 .17781575 .10913086 .17993164 .0949707 .18204753 .08081055 .1879069 .069742839 .19750977 .061767579 .20711263 .053792318 .22135417 .049804689 .24023438 .049804689 .26204429 .049804689 .28222657 .0555013 .30078126 .06689453L.3125 .049316408C.3046875 .04378255 .28597007 .02750651 .25634767 .00048828127 .23942058-.0073242189 .22216797-.011230469 .20458985-.011230469 .13134766-.011230469 .09472656 .024251303 .09472656 .095214847 .09472656 .12125651 .0953776 .14339192 .09667969 .1616211 .09700521 .16715496 .09716797 .17285156 .09716797 .17871094V.38134767H.07714844C.0625 .38134767 .045735677 .38069663 .026855469 .37939454L.022460938 .38330079Z"/>
<path id="font_63_538" d="M.0107421879 .34423829C.0107421879 .4051107 .026204428 .46411134 .057128908 .52124026 .08805338 .57836917 .1324056 .6236165 .19018555 .6569824 .2479655 .6903483 .30908204 .70703127 .37353517 .70703127 .43766276 .70703127 .49788413 .6908366 .5541992 .65844729 .61051437 .6260579 .6548665 .5816243 .68725588 .5251465 .7196452 .4686686 .73583987 .40836589 .73583987 .34423829 .73583987 .27945964 .7196452 .21899414 .68725588 .1628418 .6548665 .10668945 .61067709 .0625 .5546875 .030273438 .4986979-.001953125 .4383138-.018066407 .37353517-.018066407 .30908204-.018066407 .2479655-.0014648438 .19018555 .03173828 .1324056 .064941409 .08805338 .110188808 .057128908 .16748047 .026204428 .22477214 .0107421879 .2836914 .0107421879 .34423829M.05517578 .34423829C.05517578 .28955079 .06892904 .23730469 .09643555 .1875 .123942058 .13769531 .16267903 .09830729 .21264649 .06933594 .26261393 .040364583 .3162435 .025878907 .37353517 .025878907 .42985026 .025878907 .4827474 .040039064 .53222659 .068359378 .58170577 .09667969 .6206868 .13566081 .6491699 .18530274 .677653 .23494466 .69189456 .2879232 .69189456 .34423829 .69189456 .40120445 .677653 .4542643 .6491699 .50341799 .6206868 .5525716 .5817871 .59138998 .5324707 .61987307 .4831543 .64835616 .43017579 .66259768 .37353517 .66259768 .31689454 .66259768 .2631836 .6480306 .21240235 .6188965 .1616211 .5897624 .12272135 .5500488 .095703128 .49975587 .0686849 .4494629 .05517578 .3976237 .05517578 .34423829M.51660159 .2446289 .5366211 .23583985C.52197268 .20719402 .50667318 .18619792 .49072267 .17285156 .47477214 .1595052 .4567871 .14990235 .43676759 .14404297 .41674806 .1381836 .39664714 .1352539 .37646485 .1352539 .31819663 .1352539 .27067057 .15454102 .23388672 .19311524 .19710286 .23168946 .17871094 .28108726 .17871094 .3413086 .17871094 .40185548 .197347 .45157878 .23461914 .49047853 .27189128 .52937826 .32226563 .5488281 .3857422 .5488281 .43489585 .5488281 .4819336 .54020187 .52685549 .5229492V.41601563H.50097659C.49772135 .4580078 .48649089 .48632813 .46728517 .50097659 .44807945 .515625 .4235026 .5229492 .3935547 .5229492 .36295573 .5229492 .3371582 .51570639 .3161621 .5012207 .29516603 .48673503 .2783203 .4671224 .265625 .4423828 .2529297 .41764323 .24658203 .38802085 .24658203 .35351563 .24658203 .31445313 .25390626 .28108726 .2685547 .25341798 .28320313 .2257487 .30029298 .20450847 .31982423 .18969727 .33935548 .17488607 .36442057 .16748047 .39501954 .16748047 .4148763 .16748047 .4326172 .1706543 .4482422 .17700196 .4638672 .18334961 .4764811 .19165039 .48608399 .2019043 .49568687 .2121582 .5058594 .22639974 .51660159 .2446289Z"/>
<path id="font_63_344" d="M.022460938-.0048828127 .016601563 0V.022460938L.18017578 .19580078C.2475586 .26708985 .29117839 .32226563 .31103517 .36132813 .33089195 .40039063 .3408203 .43684898 .3408203 .47070313 .3408203 .5104167 .32877604 .54345706 .3046875 .5698242 .28059898 .5961914 .24804688 .609375 .20703125 .609375 .18066406 .609375 .15771485 .60530599 .1381836 .59716799 .118652347 .58902999 .10555013 .57991537 .09887695 .5698242 .09220377 .5597331 .08251953 .5314128 .06982422 .48486329L.06542969 .48095704H.045410158L.040527345 .48535157C.048014326 .5292969 .053222658 .5727539 .056152345 .61572268 .086751308 .6456706 .11531576 .6647949 .1418457 .6730957 .16837566 .6813965 .1961263 .6855469 .22509766 .6855469 .25960288 .6855469 .29264323 .67903646 .32421876 .6660156 .35579429 .6529948 .3811849 .6319173 .40039063 .6027832 .41959635 .5736491 .42919923 .5398763 .42919923 .50146487 .42919923 .472819 .42358399 .4440918 .41235353 .4152832 .40112306 .3864746 .38468424 .35864259 .3630371 .3317871 .34138999 .30493165 .31184898 .27278648 .27441407 .23535156L.12207031 .080078128H.3149414C.3741862 .080078128 .4235026 .08219401 .46289063 .08642578L.4663086 .08251953C.46435548 .07145182 .4633789 .056966146 .4633789 .0390625 .4633789 .022786459 .46435548 .009928386 .4663086 .00048828127L.46289063-.0048828127C.43945313-.0035807293 .40348307-.0024414063 .35498048-.0014648438 .30647788-.00048828127 .27441407 0 .25878907 0 .22721355 0 .18473308-.00040690104 .13134766-.0012207031 .07796224-.0020345052 .041666669-.0032552083 .022460938-.0048828127Z"/>
<path id="font_63_342" d="M.030273438 .29833985C.030273438 .35628257 .033203126 .40844728 .0390625 .45483399 .044921876 .5012207 .057861329 .5425618 .07788086 .5788574 .09790039 .615153 .12296549 .642334 .15307617 .6604004 .18318685 .6784668 .21744792 .6875 .25585938 .6875 .29947917 .6875 .33780924 .67626956 .3708496 .6538086 .40388999 .63134768 .42765299 .59684249 .44213868 .55029299 .45662437 .50374349 .4638672 .4404297 .4638672 .36035157 .4638672 .23014324 .44392906 .13427735 .40405274 .072753909 .36417643 .011230469 .30891929-.01953125 .23828125-.01953125 .20279949-.01953125 .1714681-.011881511 .14428711 .0034179688 .11710612 .018717448 .094807948 .040852865 .07739258 .06982422 .059977216 .09879557 .047770185 .13297527 .040771486 .17236328 .033772787 .2117513 .030273438 .2537435 .030273438 .29833985M.11425781 .32666017C.11425781 .2648112 .118896488 .2084961 .12817383 .15771485 .13745117 .106933597 .1529134 .07039388 .17456055 .048095704 .19620769 .025797526 .2220052 .0146484379 .25195313 .0146484379 .28092448 .0146484379 .3050944 .024576823 .3244629 .044433595 .3438314 .06429037 .35799156 .09830729 .36694337 .14648438 .37589518 .19466146 .3803711 .25423179 .3803711 .3251953 .3803711 .43652345 .36979167 .5188802 .3486328 .5722656 .32747398 .62565109 .29248048 .65234377 .24365235 .65234377 .20100911 .65234377 .16878255 .63167318 .14697266 .59033206 .12516277 .5489909 .11425781 .46110026 .11425781 .32666017Z"/>
<path id="font_63_346" d="M.16064453-.00390625 .15673828 0V.020996094L.16064453 .024902344C.20882161 .026204428 .23738607 .027669272 .24633789 .029296875 .2552897 .030924479 .2618815 .03434245 .26611329 .03955078 .27034507 .044759115 .2735189 .057454427 .27563478 .07763672 .27775065 .09781901 .2788086 .11930338 .2788086 .14208985V.17822266H.171875C.10970052 .17822266 .057128908 .1772461 .014160156 .17529297L.005859375 .20166016C.0625 .30777995 .1570638 .46142579 .28955079 .66259768L.35839845 .6904297 .37060548 .6845703C.36702476 .62923178 .36523438 .56070968 .36523438 .4790039L.36376954 .3413086V.24023438C.4086914 .24055989 .44335938 .24153646 .46777345 .24316406L.47216798 .23828125C.47151695 .22591146 .4711914 .21695964 .4711914 .21142578 .47151695 .2006836 .47200523 .19010417 .47265626 .1796875L.46777345 .17529297C.4361979 .1772461 .40983073 .17822266 .38867188 .17822266H.36376954V.14550781C.36376954 .10904948 .3647461 .08317057 .36669923 .067871097 .36865235 .052571615 .37174479 .04272461 .37597657 .038330079 .38020835 .033935548 .38875328 .030680338 .40161134 .028564454 .4144694 .026448569 .4366862 .025227866 .46826173 .024902344L.47265626 .020996094V0L.46875-.00390625C.41145835-.0013020834 .363444 0 .32470704 0 .261556 0 .20686849-.0013020834 .16064453-.00390625M.0703125 .24023438H.2788086L.28320313 .58740237C.25195313 .54280599 .21256511 .48160807 .16503906 .4038086 .11751302 .32600913 .0859375 .27148438 .0703125 .24023438Z"/>
<clipPath id="clip_84">
<path transform="matrix(1,0,0,-1,0,648.12)" d="M.000006437 0H432V648.12H.000006437Z" fill-rule="evenodd"/>
</clipPath>
<clipPath id="clip_85">
<path transform="matrix(1,0,0,-1,0,648.12)" d="M.000006437 0H432V648.12H.000006437Z" fill-rule="evenodd"/>
</clipPath>
<path id="font_63_22" d="M.58935549 .6899414 .59375 .6855469C.5908203 .65625 .58935549 .60514327 .58935549 .53222659L.5854492 .5283203H.5625L.55859377 .53271487 .55322268 .5776367C.55061849 .6017253 .548584 .6164551 .54711917 .6218262 .5456543 .62719729 .54329428 .6311035 .54003909 .6335449 .5367839 .6359863 .5262044 .6380208 .5083008 .63964846 .49039714 .64127609 .4703776 .64208987 .4482422 .64208987H.35595704C.35335288 .56852218 .35205079 .5260417 .35205079 .51464846V.22998047L.35302735 .13476563C.35335288 .09798177 .35424806 .07413737 .3557129 .06323242 .35717774 .052327474 .3594564 .045166017 .36254884 .041748048 .36564128 .038330079 .37158204 .03540039 .3803711 .032958986 .38916017 .030517579 .41097007 .028645834 .44580079 .02734375L.44921876 .024414063V0L.44580079-.00390625C.36246745-.0013020834 .31591798 0 .30615235 0 .2957357 0 .24934896-.0013020834 .16699219-.00390625L.16308594 0V.024414063L.16699219 .02734375C.19759114 .028645834 .21785482 .030273438 .2277832 .032226564 .2377116 .034179689 .24438477 .036702474 .24780274 .039794923 .2512207 .04288737 .254069 .049479169 .25634767 .059570314 .2586263 .06966146 .25976563 .0921224 .25976563 .12695313L.2607422 .22998047V.51464846C.2607422 .51985678 .2594401 .5623372 .25683595 .64208987H.18408203C.15413411 .64208987 .1282552 .6414388 .10644531 .6401367 .084635417 .63883468 .072021488 .63549807 .068603519 .63012698 .06518555 .62475588 .06201172 .6072591 .05908203 .5776367L.05419922 .53271487 .049804689 .5283203H.02734375L.0234375 .53222659C.022786459 .61067709 .021321616 .6617839 .019042969 .6855469L.0234375 .6899414C.080078128 .6873372 .1743164 .68603518 .30615235 .68603518 .44059245 .68603518 .53499349 .6873372 .58935549 .6899414Z"/>
<path id="font_63_141" d="M.32861329 .6621094V.6826172L.33251954 .6870117C.394694 .69417318 .44710288 .70621749 .4897461 .72314456L.49902345 .71728518C.49544273 .6798503 .49365235 .6048177 .49365235 .4921875V.17236328C.49365235 .13948567 .49422203 .11075846 .49536134 .08618164 .49650065 .061604818 .49853517 .04703776 .50146487 .04248047 .50439456 .037923177 .509196 .034179689 .51586917 .03125 .5225423 .028320313 .5415039 .025553385 .5727539 .022949219L.57714846 .019042969V.00048828127L.5727539-.00390625C.53759768-.0016276041 .5102539-.00048828127 .49072267-.00048828127 .47314454-.00048828127 .44807945-.0016276041 .41552735-.00390625L.41015626 .0014648438C.4111328 .033365888 .4116211 .055664064 .4116211 .068359378 .4116211 .06998698 .41178385 .076171878 .41210938 .08691406 .39420573 .07389323 .3763021 .05940755 .35839845 .04345703 .33203126 .020019532 .31477867 .0053710939 .30664063-.00048828127 .29166667-.007975261 .27034507-.01171875 .24267578-.01171875 .1977539-.01171875 .1595866-.0006510417 .12817383 .021484375 .09676107 .043619794 .07438151 .07185873 .061035158 .10620117 .0476888 .14054363 .041015626 .17578125 .041015626 .21191406 .041015626 .24869792 .04793294 .2840983 .061767579 .31811524 .07560221 .35213218 .09529623 .37695313 .12084961 .39257813 .146403 .40820313 .17423503 .4243978 .2043457 .4411621 .23445638 .45792643 .2643229 .4663086 .2939453 .4663086 .33528648 .4663086 .37467448 .4560547 .41210938 .43554688L.41015626 .5444336C.40950523 .58219406 .40852867 .6084798 .40722657 .623291 .40592448 .63810226 .40429688 .6468913 .40234376 .6496582 .40039063 .6524251 .39705406 .65445968 .39233399 .6557617 .38761393 .6570638 .36783854 .65771487 .3330078 .65771487L.32861329 .6621094M.41210938 .35205079C.3919271 .37483726 .36954753 .3922526 .3449707 .40429688 .3203939 .41634117 .2957357 .42236329 .2709961 .42236329 .24365235 .42236329 .21818035 .41495768 .19458008 .40014649 .17097982 .3853353 .15397136 .36336265 .14355469 .33422853 .13313802 .3050944 .12792969 .2734375 .12792969 .23925781 .12792969 .18229167 .14233399 .13655599 .17114258 .10205078 .19995117 .06754557 .23616536 .05029297 .27978517 .05029297 .3035482 .05029297 .32462565 .05574544 .34301759 .06665039 .36140953 .077555339 .37654624 .092285159 .38842774 .110839847 .40030924 .12939453 .40722657 .14794922 .4091797 .1665039 .4111328 .1850586 .41210938 .21907552 .41210938 .2685547V.35205079Z"/>
<path id="font_63_159" d="M.24902344-.0087890629 .21875 .067871097 .18261719 .15136719 .08251953 .38427735C.07600912 .3995768 .07023112 .40966798 .06518555 .41455079 .060139974 .4194336 .05501302 .42236329 .049804689 .42333985 .044596357 .4243164 .034179689 .42513023 .018554688 .42578126L.0146484379 .4296875V.4506836L.019042969 .45507813C.06461588 .45279948 .100748699 .45166017 .1274414 .45166017 .16520183 .45166017 .203125 .45279948 .24121094 .45507813L.24511719 .45117188V.4296875L.24121094 .42578126C.20735677 .4248047 .18766277 .42244468 .1821289 .41870118 .17659505 .41495768 .17382813 .41015626 .17382813 .40429688 .17382813 .39453126 .18033855 .37353517 .19335938 .3413086L.2529297 .1928711 .2998047 .08203125 .3486328 .1928711 .38916017 .29345704C.40478517 .33154298 .4148763 .3585612 .4194336 .37451173 .42399089 .39046226 .42626954 .40104167 .42626954 .40625 .42626954 .4124349 .4226888 .4169108 .41552735 .41967774 .40836589 .42244468 .39029948 .42447917 .36132813 .42578126L.35742188 .4296875V.4506836L.3618164 .45507813C.402181 .45279948 .43245445 .45166017 .45263673 .45166017 .4695638 .45166017 .49853517 .45279948 .5395508 .45507813L.5439453 .4506836V.4296875L.54003909 .42578126C.5208333 .42415367 .50805667 .42138673 .501709 .41748048 .49536134 .41357423 .48917643 .40600587 .4831543 .3947754 .47713218 .38354493 .4597982 .3486328 .43115235 .29003907L.38427735 .1899414C.37646485 .17301433 .34830729 .106770839 .2998047-.0087890629H.24902344Z"/>
<path id="font_63_495" d="M.125 .107910159C.140625 .107910159 .1542155 .102376308 .16577149 .091308597 .17732747 .08024088 .18310547 .06624349 .18310547 .049316408 .18310547 .033365888 .17740886 .01969401 .16601563 .008300781 .15462239-.003092448 .14095052-.0087890629 .125-.0087890629 .10872396-.0087890629 .09488932-.0031738282 .083496097 .008056641 .07210287 .01928711 .06640625 .033040365 .06640625 .049316408 .06640625 .065592449 .07210287 .079427089 .083496097 .09082031 .09488932 .10221354 .10872396 .107910159 .125 .107910159Z"/>
<clipPath id="clip_86">
<path transform="matrix(1,0,0,-1,0,648.12)" d="M.000006437 0H432V648.12H.000006437Z" fill-rule="evenodd"/>
</clipPath>
<clipPath id="clip_87">
<path transform="matrix(1,0,0,-1,0,648.12)" d="M.000006437 0H432V648.12H.000006437Z" fill-rule="evenodd"/>
</clipPath>
<path id="font_63_11" d="M.028808594 .6899414 .08984375 .6879883C.12988281 .6866862 .15608724 .68603518 .16845703 .68603518 .17952474 .68603518 .22623699 .6873372 .30859376 .6899414L.3125 .68652346V.6621094L.30859376 .6586914C.2861328 .65804037 .26879884 .6570638 .2565918 .6557617 .24438477 .65445968 .23551433 .65201827 .22998047 .6484375 .22444661 .64485678 .2207845 .6364746 .21899414 .623291 .21720378 .6101074 .2163086 .5917969 .2163086 .5683594L.21533203 .4560547V.22998047L.21582031 .13476563C.21614583 .09798177 .21712239 .07421875 .21875 .06347656 .22037761 .052734376 .22273763 .045572919 .22583008 .041992189 .22892253 .038411458 .23486328 .03540039 .24365235 .032958986 .2524414 .030517579 .27408854 .028645834 .30859376 .02734375L.3125 .024414063V0L.30859376-.00390625C.30696617-.00390625 .2783203-.0029296876 .22265625-.0009765625 .19954427-.00032552085 .18147786 0 .16845703 0 .15836589 0 .111816409-.0013020834 .028808594-.00390625L.024902344 0V.024414063L.028808594 .02734375C.05908203 .028645834 .07926432 .030273438 .08935547 .032226564 .09944662 .034179689 .10620117 .036702474 .10961914 .039794923 .11303711 .04288737 .11580404 .049479169 .11791992 .059570314 .120035808 .06966146 .12125651 .0921224 .12158203 .12695313L.12207031 .22998047V.4560547L.12109375 .55126956C.12076823 .5883789 .11987305 .6123047 .1184082 .6230469 .11694336 .63378909 .11466471 .6409505 .111572269 .64453127 .10847982 .648112 .10253906 .6510417 .09375 .6533203 .08496094 .65559896 .063313808 .65738937 .028808594 .6586914L.024902344 .6621094V.68652346L.028808594 .6899414M.17529297 .7260742V.7260742M.16845703-.029296875V-.029296875Z"/>
<path id="font_63_4" d="M.017578125 .6586914 .013671875 .6621094V.68652346L.017578125 .6899414C.07324219 .6873372 .11621094 .68603518 .14648438 .68603518 .15787761 .68603518 .20296224 .6873372 .28173829 .6899414 .3071289 .69059249 .32552085 .69091799 .33691407 .69091799 .38085938 .69091799 .4156901 .68652346 .44140626 .6777344 .4671224 .6689453 .48779298 .6534017 .50341799 .6311035 .51904299 .60880538 .52685549 .5834961 .52685549 .5551758 .52685549 .51904299 .51383468 .4855143 .48779298 .45458985 .4617513 .42366538 .4194336 .40152995 .36083985 .3881836 .3959961 .38492839 .42496745 .38020835 .4477539 .37402345 .47054038 .36783854 .49023438 .35831706 .50683596 .34545899 .5234375 .33260093 .53653976 .31591798 .5461426 .29541017 .5557454 .27490235 .5605469 .2511393 .5605469 .2241211 .5605469 .20296224 .5572917 .18147786 .55078127 .15966797 .5442708 .13785808 .5323079 .11621094 .5148926 .09472656 .4974772 .07324219 .47639976 .05485026 .45166017 .03955078 .42692057 .024251303 .40161134 .013183594 .37573243 .0063476564 .34985353-.00048828127 .31770835-.00390625 .27929688-.00390625 .27148438-.00390625 .24804688-.003092448 .20898438-.0014648438 .16569011-.00048828127 .14225261 0 .13867188 0 .11653646 0 .08935547-.0013020834 .057128908-.00390625L.053222658 0V.016113282L.057128908 .020996094C.07600912 .029459635 .08691406 .03531901 .08984375 .03857422 .09277344 .041829427 .09513346 .07063802 .09692383 .125 .098714198 .17936199 .099609378 .22086589 .099609378 .24951172V.42871095L.099121097 .5395508C.099121097 .56363937 .09879557 .58325198 .09814453 .5983887 .09749349 .6135254 .096598308 .62434896 .095458988 .6308594 .094319667 .6373698 .092447917 .64192709 .08984375 .64453127 .087239589 .64713546 .08357748 .6493327 .07885742 .65112307 .07413737 .6529134 .06608073 .65445968 .0546875 .6557617L.017578125 .6586914M.1928711 .40234376C.20914714 .40104167 .22753906 .40039063 .24804688 .40039063 .3154297 .40039063 .3623047 .4124349 .38867188 .43652345 .41503907 .46061198 .42822267 .49365235 .42822267 .53564456 .42822267 .5600586 .4231771 .58081057 .41308595 .5979004 .40299479 .61499026 .38712565 .62809249 .36547853 .63720706 .3438314 .6463216 .31445313 .6508789 .27734376 .6508789 .24707031 .6508789 .22037761 .6484375 .19726563 .6435547 .19433594 .6142578 .1928711 .56315109 .1928711 .49023438V.40234376M.19384766 .04638672C.21891277 .040527345 .2446289 .037597658 .2709961 .037597658 .31754557 .037597658 .3540039 .045084638 .3803711 .060058595 .40673829 .075032558 .42618815 .09578451 .4387207 .12231445 .45125328 .1488444 .45751954 .17773438 .45751954 .20898438 .45751954 .25585938 .44425456 .29337565 .4177246 .3215332 .39119468 .34969078 .33382163 .36376954 .24560547 .36376954 .23095703 .36376954 .2133789 .3631185 .1928711 .3618164V.1953125L.19384766 .04638672Z"/>
<path id="font_63_497" d="M.125 .453125C.14095052 .453125 .15462239 .44742839 .16601563 .43603517 .17740886 .42464195 .18310547 .41080729 .18310547 .39453126 .18310547 .37858073 .17740886 .36490885 .16601563 .35351563 .15462239 .3421224 .14095052 .33642579 .125 .33642579 .10872396 .33642579 .09488932 .3421224 .083496097 .35351563 .07210287 .36490885 .06640625 .37858073 .06640625 .39453126 .06640625 .41145835 .07218424 .42545573 .083740238 .43652345 .09529623 .44759117 .10904948 .453125 .125 .453125M.125 .107910159C.140625 .107910159 .1542155 .102376308 .16577149 .091308597 .17732747 .08024088 .18310547 .06624349 .18310547 .049316408 .18310547 .033365888 .17740886 .01969401 .16601563 .008300781 .15462239-.003092448 .14095052-.0087890629 .125-.0087890629 .10872396-.0087890629 .09488932-.0031738282 .083496097 .008056641 .07210287 .01928711 .06640625 .033040365 .06640625 .049316408 .06640625 .065592449 .07210287 .079427089 .083496097 .09082031 .09488932 .10221354 .10872396 .107910159 .125 .107910159Z"/>
<clipPath id="clip_88">
<path transform="matrix(1,0,0,-1,0,648.12)" d="M.000006437 0H432V648.12H.000006437Z" fill-rule="evenodd"/>
</clipPath>
<path id="font_63_351" d="M.064941409-.00390625V.0053710939C.1554362 .026204428 .2265625 .06599935 .2783203 .12475586 .33007813 .18351238 .35921226 .2553711 .36572267 .34033204 .3178711 .28336589 .2643229 .2548828 .20507813 .2548828 .16764324 .2548828 .13500977 .26383464 .107177738 .28173829 .0793457 .29964195 .05875651 .32291667 .045410158 .3515625 .0320638 .38020835 .025390625 .41373698 .025390625 .45214845 .025390625 .52278646 .04663086 .57942709 .08911133 .6220703 .1315918 .66471359 .1842448 .68603518 .24707031 .68603518 .31054688 .68603518 .3618978 .66308596 .40112306 .6171875 .4403483 .57128909 .45996095 .5052083 .45996095 .4189453 .45996095 .38085938 .45638023 .34431968 .44921876 .30932618 .44205729 .27433268 .4285482 .23844402 .4086914 .20166016 .38883464 .1648763 .36254884 .13069661 .32983399 .099121097 .29711915 .06754557 .26017253 .041259767 .21899414 .020263672 .17781575-.0007324219 .13720703-.0139973959 .09716797-.01953125L.064941409-.00390625M.10986328 .48388673C.10986328 .4555664 .11482748 .42781578 .12475586 .40063478 .13468425 .37345378 .14990235 .35245768 .17041016 .33764649 .19091797 .3228353 .21500652 .3154297 .24267578 .3154297 .28108726 .3154297 .31201173 .32836915 .33544923 .35424806 .35888673 .38012696 .37060548 .41878257 .37060548 .47021485 .37060548 .5236003 .35904948 .56730148 .3359375 .60131838 .31282554 .63533529 .28108726 .65234377 .24072266 .65234377 .20198567 .65234377 .17049153 .6380208 .14624024 .609375 .12198893 .5807292 .10986328 .5388997 .10986328 .48388673Z"/>
<path id="font_63_349" d="M.06591797-.00390625 .055664064 .0063476564C.06738281 .023925782 .09163412 .0616862 .12841797 .119628909L.21777344 .26220704 .3017578 .39941407 .375 .5253906C.390625 .5527344 .40299479 .5748698 .41210938 .5917969L.40722657 .5966797H.25585938C.21777344 .5966797 .18391927 .5960286 .15429688 .59472659 .12467448 .5934245 .10725912 .59155276 .10205078 .5891113 .096842449 .5866699 .093180339 .5836589 .09106445 .5800781 .08894857 .5764974 .08658854 .5641276 .083984378 .54296877L.07519531 .4741211 .07080078 .47021485H.05029297L.045898439 .4741211 .048339845 .60791018C.048339845 .62320968 .047526044 .6468099 .045898439 .67871096L.055664064 .68359377C.07356771 .6816406 .109944667 .6795247 .16479492 .6772461 .21964519 .67496749 .25634767 .6738281 .27490235 .6738281 .34098307 .6738281 .41308595 .67610678 .49121095 .68066409L.4951172 .6767578V.6513672L.4248047 .52685549C.38216148 .4506836 .3334961 .36043296 .2788086 .25610353 .2241211 .1517741 .1842448 .06640625 .15917969 0L.15429688-.00390625C.13574219-.0022786458 .12174479-.0014648438 .11230469-.0014648438 .09733073-.0014648438 .08186849-.0022786458 .06591797-.00390625Z"/>
<path id="font_63_350" d="M.1640625 .3461914C.12792969 .36539714 .100504558 .38745118 .08178711 .41235353 .063069667 .43725587 .053710939 .4674479 .053710939 .5029297 .053710939 .5527344 .07210287 .595459 .10888672 .6311035 .14567058 .66674807 .19580078 .6845703 .25927735 .6845703 .2915039 .6845703 .32137046 .6789551 .34887696 .6677246 .37638346 .65649417 .3976237 .6397298 .41259767 .61743167 .42757163 .5951335 .4350586 .5703125 .4350586 .54296877 .4350586 .51432296 .42626954 .4868978 .4086914 .46069337 .39111329 .43448893 .36002604 .4078776 .3154297 .38085938V.37646485C.35351563 .3582357 .38175456 .34277345 .40014649 .33007813 .41853843 .3173828 .43359376 .30021159 .4453125 .27856446 .45703126 .25691734 .46289063 .2319336 .46289063 .20361328 .46289063 .1648763 .45174156 .12768555 .42944337 .092041019 .40714518 .056396486 .37776695 .029296875 .3413086 .0107421879 .30485026-.0078125 .26708985-.017089844 .22802735-.017089844 .1710612-.017089844 .12402344-.0011393229 .08691406 .030761719 .049804689 .06266276 .03125 .10514323 .03125 .15820313 .03125 .20117188 .04402669 .23819988 .06958008 .2692871 .09513346 .30037437 .12662761 .32454429 .1640625 .34179688V.3461914M.27783204 .3930664C.31266276 .4148763 .33626304 .43676759 .3486328 .45874024 .3610026 .4807129 .3671875 .50439456 .3671875 .52978518 .3671875 .56722006 .3564453 .59684249 .33496095 .61865237 .31347657 .6404622 .28466798 .6513672 .24853516 .6513672 .21402996 .6513672 .18538411 .6416829 .16259766 .62231448 .1398112 .602946 .12841797 .5758464 .12841797 .5410156 .12841797 .51464846 .13582357 .4917806 .15063477 .4724121 .16544597 .4530436 .20784505 .42659507 .27783204 .3930664M.20361328 .32861329C.16520183 .3058268 .13850911 .2813314 .123535159 .25512696 .108561199 .22892253 .10107422 .19921875 .10107422 .16601563 .10107422 .11946615 .114095058 .08292643 .14013672 .056396486 .16617839 .029866538 .19970703 .016601563 .24072266 .016601563 .26871745 .016601563 .29410807 .023111979 .31689454 .036132814 .339681 .049153646 .35668946 .066975917 .36791993 .08959961 .3791504 .112223308 .38476563 .13688152 .38476563 .16357422 .38476563 .20198567 .3713379 .2319336 .34448243 .25341798 .31762696 .27490235 .27067057 .29996745 .20361328 .32861329Z"/>
<path id="font_63_348" d="M.421875 .67529299V.6694336C.38639323 .6619466 .34594728 .64420577 .3005371 .61621096 .25512696 .5882161 .21695964 .55061849 .18603516 .50341799 .15511067 .45621745 .13720703 .3992513 .13232422 .33251954 .14339192 .34033204 .15608724 .34977214 .17041016 .36083985 .18896485 .37483726 .20255535 .3844401 .21118164 .38964845 .21980794 .39485679 .23136394 .39941407 .24584961 .4033203 .2603353 .40722657 .27701823 .4091797 .29589845 .4091797 .3294271 .4091797 .35953776 .40177409 .38623048 .3869629 .4129232 .3721517 .43294273 .3503418 .44628907 .3215332 .4596354 .2927246 .4663086 .2591146 .4663086 .22070313 .4663086 .16634114 .453125 .12084961 .4267578 .084228519 .40039063 .047607423 .37239585 .021402995 .34277345 .0056152346 .31315104-.010172526 .27913413-.018066407 .24072266-.018066407 .17529297-.018066407 .12451172 .0064290368 .088378909 .055419923 .052246095 .104410808 .034179689 .16813152 .034179689 .24658203 .034179689 .29866538 .041748048 .3487142 .056884767 .39672853 .072021488 .44474284 .095052089 .48819987 .12597656 .5270996 .15690105 .5659993 .19637044 .60058596 .24438477 .6308594 .29239909 .6611328 .339681 .6816406 .38623048 .6923828L.421875 .67529299M.123046878 .20947266C.123046878 .1772461 .12768555 .14534505 .13696289 .11376953 .14624024 .08219401 .16113281 .05777995 .18164063 .040527345 .20214844 .02327474 .22623699 .0146484379 .25390626 .0146484379 .27766929 .0146484379 .29964195 .021321616 .31982423 .03466797 .3400065 .048014326 .35538737 .06892904 .3659668 .09741211 .37654624 .12589519 .38183595 .15592449 .38183595 .1875 .38183595 .21907552 .3766276 .24731446 .36621095 .2722168 .35579429 .29711915 .34065757 .31648765 .32080079 .33032228 .300944 .3441569 .27783204 .35107423 .25146485 .35107423 .2319336 .35107423 .21240235 .34635417 .1928711 .33691407 .17333985 .32747398 .1582845 .31673179 .14770508 .3046875 .13712566 .29264323 .1303711 .27986656 .1274414 .26635743 .12451172 .2528483 .123046878 .23388672 .123046878 .20947266Z"/>
<path id="font_63_343" d="M.07470703 .5517578 .06591797 .5546875 .061035158 .59472659 .06591797 .5996094C.098470058 .6090495 .13964844 .6241862 .18945313 .64501956 .23925781 .66585287 .27490235 .6818034 .29638673 .6928711L.30908204 .6879883C.3038737 .54541018 .30126954 .4597982 .30126954 .43115235V.25C.30126954 .20540364 .3017578 .16349285 .30273438 .12426758 .30371095 .08504232 .30517579 .06193034 .3071289 .05493164 .30908204 .04793294 .3124186 .04248047 .31713868 .03857422 .32185874 .03466797 .32845054 .032145185 .33691407 .03100586 .3453776 .029866538 .37060548 .028157553 .41259767 .025878907L.41601563 .021972657V0L.41259767-.00390625C.3413086-.0013020834 .29101563 0 .26171876 0 .23958333 0 .18538411-.0013020834 .099121097-.00390625L.095703128 0V.021972657L.099609378 .025878907C.1484375 .029459635 .1763509 .0320638 .18334961 .033691408 .19034831 .03531901 .1957194 .038167318 .19946289 .042236329 .20320638 .04630534 .20621746 .054036458 .2084961 .06542969 .21077474 .076822917 .21264649 .11051432 .21411133 .1665039 .21557617 .22249349 .2163086 .2511393 .2163086 .2524414V.44482423C.2163086 .5392253 .21606446 .5904948 .21557617 .5986328 .21508789 .6067708 .21223958 .61083987 .20703125 .61083987 .20572917 .61083987 .2039388 .61051437 .20166016 .6098633 .19938152 .6092122 .19222005 .60628256 .18017578 .6010742L.13183594 .57958987C.11165365 .5708008 .09261068 .56152346 .07470703 .5517578Z"/>
<clipPath id="clip_89">
<path transform="matrix(1,0,0,-1,0,648.12)" d="M.000006437 0H432V648.12H.000006437Z" fill-rule="evenodd"/>
</clipPath>
<clipPath id="clip_90">
<path transform="matrix(1,0,0,-1,0,648.12)" d="M.000006437 0H432V648.12H.000006437Z" fill-rule="evenodd"/>
</clipPath>
<clipPath id="clip_91">
<path transform="matrix(1,0,0,-1,0,648.12)" d="M.000006437 0H432V648.12H.000006437Z" fill-rule="evenodd"/>
</clipPath>
<clipPath id="clip_92">
<path transform="matrix(1,0,0,-1,0,648.12)" d="M.000006437 0H432V648.12H.000006437Z" fill-rule="evenodd"/>
</clipPath>
<clipPath id="clip_93">
<path transform="matrix(1,0,0,-1,0,648.12)" d="M.000006437 0H432V648.12H.000006437Z" fill-rule="evenodd"/>
</clipPath>
<clipPath id="clip_94">
<path transform="matrix(1,0,0,-1,0,648.12)" d="M.000006437 0H432V648.12H.000006437Z" fill-rule="evenodd"/>
</clipPath>
<clipPath id="clip_95">
<path transform="matrix(1,0,0,-1,0,648.12)" d="M.000006437 0H432V648.12H.000006437Z" fill-rule="evenodd"/>
</clipPath>
<clipPath id="clip_96">
<path transform="matrix(1,0,0,-1,0,648.12)" d="M.000006437 0H432V648.12H.000006437Z" fill-rule="evenodd"/>
</clipPath>
<clipPath id="clip_97">
<path transform="matrix(1,0,0,-1,0,648.12)" d="M.000006437 0H432V648.12H.000006437Z" fill-rule="evenodd"/>
</clipPath>
<clipPath id="clip_98">
<path transform="matrix(1,0,0,-1,0,648.12)" d="M.000006437 0H432V648.12H.000006437Z" fill-rule="evenodd"/>
</clipPath>
<clipPath id="clip_99">
<path transform="matrix(1,0,0,-1,0,648.12)" d="M.000006437 0H432V648.12H.000006437Z" fill-rule="evenodd"/>
</clipPath>
<clipPath id="clip_100">
<path transform="matrix(1,0,0,-1,0,648.12)" d="M.000006437 0H432V648.12H.000006437Z" fill-rule="evenodd"/>
</clipPath>
<clipPath id="clip_101">
<path transform="matrix(1,0,0,-1,0,648.12)" d="M.000006437 0H432V648.12H.000006437Z" fill-rule="evenodd"/>
</clipPath>
<clipPath id="clip_102">
<path transform="matrix(1,0,0,-1,0,648.12)" d="M.000006437 0H432V648.12H.000006437Z" fill-rule="evenodd"/>
</clipPath>
<clipPath id="clip_103">
<path transform="matrix(1,0,0,-1,0,648.12)" d="M.000006437 0H432V648.12H.000006437Z" fill-rule="evenodd"/>
</clipPath>
<clipPath id="clip_104">
<path transform="matrix(1,0,0,-1,0,648.12)" d="M.000006437 0H432V648.12H.000006437Z" fill-rule="evenodd"/>
</clipPath>
</defs>
<g>
<g clip-path="url(#clip_62)">
<use data-text="S" xlink:href="#font_63_21" transform="matrix(9.96,0,0,-9.96,189.05,33.119997)"/>
<use data-text="u" xlink:href="#font_63_158" transform="matrix(9.96,0,0,-9.96,194.31885,33.119997)"/>
<use data-text="s" xlink:href="#font_63_156" transform="matrix(9.96,0,0,-9.96,200.32472,33.119997)"/>
<use data-text="a" xlink:href="#font_63_138" transform="matrix(9.96,0,0,-9.96,204.54776,33.119997)"/>
<use data-text="n" xlink:href="#font_63_151" transform="matrix(9.96,0,0,-9.96,209.54767,33.119997)"/>
<use data-text="a" xlink:href="#font_63_138" transform="matrix(9.96,0,0,-9.96,215.30455,33.119997)"/>
<use data-text=" " xlink:href="#font_63_561" transform="matrix(9.96,0,0,-9.96,220.33435,33.119997)"/>
<use data-text="N" xlink:href="#font_63_16" transform="matrix(9.96,0,0,-9.96,222.84427,33.119997)"/>
<use data-text="o" xlink:href="#font_63_152" transform="matrix(9.96,0,0,-9.96,231.12104,33.119997)"/>
<use data-text="g" xlink:href="#font_63_144" transform="matrix(9.96,0,0,-9.96,236.51935,33.119997)"/>
<use data-text="u" xlink:href="#font_63_158" transform="matrix(9.96,0,0,-9.96,242.05712,33.119997)"/>
<use data-text="e" xlink:href="#font_63_142" transform="matrix(9.96,0,0,-9.96,248.06299,33.119997)"/>
<use data-text="i" xlink:href="#font_63_146" transform="matrix(9.96,0,0,-9.96,252.95336,33.119997)"/>
<use data-text="r" xlink:href="#font_63_155" transform="matrix(9.96,0,0,-9.96,255.85172,33.119997)"/>
<use data-text="a" xlink:href="#font_63_138" transform="matrix(9.96,0,0,-9.96,259.78593,33.119997)"/>
</g>
<g clip-path="url(#clip_64)">
<use data-text=" " xlink:href="#font_63_561" transform="matrix(9.96,0,0,-9.96,264.91,33.119997)"/>
</g>
<g clip-path="url(#clip_65)">
</g>
<g clip-path="url(#clip_66)">
<use data-text="3" xlink:href="#font_63_345" transform="matrix(11.04,0,0,-11.04,224.21,609.456)"/>
</g>
<g clip-path="url(#clip_67)">
<use data-text=" " xlink:href="#font_63_561" transform="matrix(11.04,0,0,-11.04,229.73,609.456)"/>
</g>
<g clip-path="url(#clip_68)">
</g>
<g clip-path="url(#clip_69)">
<use data-text=" " xlink:href="#font_70_3" transform="matrix(11.04,0,0,-11.04,64.944,622.656)"/>
</g>
<g clip-path="url(#clip_71)">
</g>
<g clip-path="url(#clip_72)">
<use data-text=" " xlink:href="#font_73_561" transform="matrix(14.04,0,0,-14.04,100.34,69.380008)"/>
</g>
<g clip-path="url(#clip_74)">
<use data-text=" " xlink:href="#font_73_561" transform="matrix(14.04,0,0,-14.04,100.34,88.21997)"/>
</g>
<g clip-path="url(#clip_75)">
<use data-text=" " xlink:href="#font_73_561" transform="matrix(14.04,0,0,-14.04,100.34,107.17999)"/>
</g>
<g clip-path="url(#clip_76)">
<use data-text=" " xlink:href="#font_63_561" transform="matrix(14.04,0,0,-14.04,244.63,126.02002)"/>
</g>
<g clip-path="url(#clip_77)">
<use data-text=" " xlink:href="#font_63_561" transform="matrix(14.04,0,0,-14.04,244.63,144.85999)"/>
</g>
<g clip-path="url(#clip_78)">
<use data-text=" " xlink:href="#font_63_561" transform="matrix(14.04,0,0,-14.04,244.63,163.82)"/>
</g>
<g clip-path="url(#clip_79)">
<use data-text=" " xlink:href="#font_63_561" transform="matrix(14.04,0,0,-14.04,244.63,182.66)"/>
</g>
<g clip-path="url(#clip_80)">
<use data-text=" " xlink:href="#font_63_561" transform="matrix(14.04,0,0,-14.04,244.63,201.62)"/>
</g>
<g clip-path="url(#clip_81)">
<use data-text=" " xlink:href="#font_63_561" transform="matrix(14.04,0,0,-14.04,244.63,220.48999)"/>
</g>
<g clip-path="url(#clip_82)">
<use data-text=" " xlink:href="#font_63_561" transform="matrix(14.04,0,0,-14.04,244.63,239.32999)"/>
</g>
<g clip-path="url(#clip_83)">
<use data-text="C" xlink:href="#font_63_5" transform="matrix(14.04,0,0,-14.04,135.02,258.29)"/>
<use data-text="o" xlink:href="#font_63_152" transform="matrix(14.04,0,0,-14.04,144.97437,258.29)"/>
<use data-text="p" xlink:href="#font_63_153" transform="matrix(14.04,0,0,-14.04,152.6402,258.29)"/>
<use data-text="y" xlink:href="#font_63_162" transform="matrix(14.04,0,0,-14.04,161.07823,258.29)"/>
<use data-text="r" xlink:href="#font_63_155" transform="matrix(14.04,0,0,-14.04,168.88448,258.29)"/>
<use data-text="i" xlink:href="#font_63_146" transform="matrix(14.04,0,0,-14.04,174.37412,258.29)"/>
<use data-text="g" xlink:href="#font_63_144" transform="matrix(14.04,0,0,-14.04,178.45975,258.29)"/>
<use data-text="h" xlink:href="#font_63_145" transform="matrix(14.04,0,0,-14.04,186.26599,258.29)"/>
<use data-text="t" xlink:href="#font_63_157" transform="matrix(14.04,0,0,-14.04,194.43727,258.29)"/>
<use data-text=" " xlink:href="#font_63_561" transform="matrix(14.04,0,0,-14.04,199.01432,258.29)"/>
<use data-text="&#x00a9;" xlink:href="#font_63_538" transform="matrix(14.04,0,0,-14.04,202.4541,258.29)"/>
<use data-text=" " xlink:href="#font_63_561" transform="matrix(14.04,0,0,-14.04,212.89987,258.29)"/>
<use data-text="2" xlink:href="#font_63_344" transform="matrix(14.04,0,0,-14.04,216.40987,258.29)"/>
<use data-text="0" xlink:href="#font_63_342" transform="matrix(14.04,0,0,-14.04,223.42987,258.29)"/>
<use data-text="2" xlink:href="#font_63_344" transform="matrix(14.04,0,0,-14.04,230.44988,258.29)"/>
<use data-text="4" xlink:href="#font_63_346" transform="matrix(14.04,0,0,-14.04,237.38564,258.29)"/>
<use data-text=" " xlink:href="#font_63_561" transform="matrix(14.04,0,0,-14.04,244.44776,258.29)"/>
<use data-text="S" xlink:href="#font_63_21" transform="matrix(14.04,0,0,-14.04,247.95775,258.29)"/>
<use data-text="u" xlink:href="#font_63_158" transform="matrix(14.04,0,0,-14.04,255.2445,258.29)"/>
<use data-text="s" xlink:href="#font_63_156" transform="matrix(14.04,0,0,-14.04,263.75276,258.29)"/>
<use data-text="a" xlink:href="#font_63_138" transform="matrix(14.04,0,0,-14.04,269.63554,258.29)"/>
<use data-text="n" xlink:href="#font_63_151" transform="matrix(14.04,0,0,-14.04,276.69764,258.29)"/>
<use data-text="a" xlink:href="#font_63_138" transform="matrix(14.04,0,0,-14.04,284.74253,258.29)"/>
<use data-text=" " xlink:href="#font_63_561" transform="matrix(14.04,0,0,-14.04,291.80464,258.29)"/>
<use data-text="N" xlink:href="#font_63_16" transform="matrix(14.04,0,0,-14.04,295.31465,258.29)"/>
<use data-text="o" xlink:href="#font_63_152" transform="matrix(14.04,0,0,-14.04,306.92573,258.29)"/>
<use data-text="g" xlink:href="#font_63_144" transform="matrix(14.04,0,0,-14.04,314.59156,258.29)"/>
<use data-text="u" xlink:href="#font_63_158" transform="matrix(14.04,0,0,-14.04,322.28547,258.29)"/>
<use data-text="e" xlink:href="#font_63_142" transform="matrix(14.04,0,0,-14.04,330.7937,258.29)"/>
<use data-text="i" xlink:href="#font_63_146" transform="matrix(14.04,0,0,-14.04,337.51887,258.29)"/>
<use data-text="r" xlink:href="#font_63_155" transform="matrix(14.04,0,0,-14.04,341.6045,258.29)"/>
<use data-text="a" xlink:href="#font_63_138" transform="matrix(14.04,0,0,-14.04,347.1503,258.29)"/>
</g>
<g clip-path="url(#clip_84)">
<use data-text=" " xlink:href="#font_63_561" transform="matrix(14.04,0,0,-14.04,354.22,258.29)"/>
</g>
<g clip-path="url(#clip_85)">
<use data-text="T" xlink:href="#font_63_22" transform="matrix(14.04,0,0,-14.04,154.37,277.13)"/>
<use data-text="o" xlink:href="#font_63_152" transform="matrix(14.04,0,0,-14.04,162.97652,277.13)"/>
<use data-text="d" xlink:href="#font_63_141" transform="matrix(14.04,0,0,-14.04,170.57216,277.13)"/>
<use data-text="o" xlink:href="#font_63_152" transform="matrix(14.04,0,0,-14.04,179.19272,277.13)"/>
<use data-text="s" xlink:href="#font_63_156" transform="matrix(14.04,0,0,-14.04,186.85855,277.13)"/>
<use data-text=" " xlink:href="#font_63_561" transform="matrix(14.04,0,0,-14.04,192.85363,277.13)"/>
<use data-text="o" xlink:href="#font_63_152" transform="matrix(14.04,0,0,-14.04,196.20919,277.13)"/>
<use data-text="s" xlink:href="#font_63_156" transform="matrix(14.04,0,0,-14.04,203.87503,277.13)"/>
<use data-text=" " xlink:href="#font_63_561" transform="matrix(14.04,0,0,-14.04,209.8701,277.13)"/>
<use data-text="d" xlink:href="#font_63_141" transform="matrix(14.04,0,0,-14.04,213.22566,277.13)"/>
<use data-text="i" xlink:href="#font_63_146" transform="matrix(14.04,0,0,-14.04,221.84622,277.13)"/>
<use data-text="r" xlink:href="#font_63_155" transform="matrix(14.04,0,0,-14.04,225.93186,277.13)"/>
<use data-text="e" xlink:href="#font_63_142" transform="matrix(14.04,0,0,-14.04,231.47766,277.13)"/>
<use data-text="i" xlink:href="#font_63_146" transform="matrix(14.04,0,0,-14.04,238.20282,277.13)"/>
<use data-text="t" xlink:href="#font_63_157" transform="matrix(14.04,0,0,-14.04,242.24634,277.13)"/>
<use data-text="o" xlink:href="#font_63_152" transform="matrix(14.04,0,0,-14.04,246.82338,277.13)"/>
<use data-text="s" xlink:href="#font_63_156" transform="matrix(14.04,0,0,-14.04,254.36287,277.13)"/>
<use data-text=" " xlink:href="#font_63_561" transform="matrix(14.04,0,0,-14.04,260.3439,277.13)"/>
<use data-text="r" xlink:href="#font_63_155" transform="matrix(14.04,0,0,-14.04,263.8539,277.13)"/>
<use data-text="e" xlink:href="#font_63_142" transform="matrix(14.04,0,0,-14.04,269.34358,277.13)"/>
<use data-text="s" xlink:href="#font_63_156" transform="matrix(14.04,0,0,-14.04,276.06874,277.13)"/>
<use data-text="e" xlink:href="#font_63_142" transform="matrix(14.04,0,0,-14.04,282.0217,277.13)"/>
<use data-text="r" xlink:href="#font_63_155" transform="matrix(14.04,0,0,-14.04,288.74687,277.13)"/>
<use data-text="v" xlink:href="#font_63_159" transform="matrix(14.04,0,0,-14.04,294.29267,277.13)"/>
<use data-text="a" xlink:href="#font_63_138" transform="matrix(14.04,0,0,-14.04,302.22526,277.13)"/>
<use data-text="d" xlink:href="#font_63_141" transform="matrix(14.04,0,0,-14.04,309.1891,277.13)"/>
<use data-text="o" xlink:href="#font_63_152" transform="matrix(14.04,0,0,-14.04,317.80964,277.13)"/>
<use data-text="s" xlink:href="#font_63_156" transform="matrix(14.04,0,0,-14.04,325.36314,277.13)"/>
<use data-text="." xlink:href="#font_63_495" transform="matrix(14.04,0,0,-14.04,331.34419,277.13)"/>
</g>
<g clip-path="url(#clip_86)">
<use data-text=" " xlink:href="#font_63_561" transform="matrix(14.04,0,0,-14.04,334.87,277.13)"/>
</g>
<g clip-path="url(#clip_87)">
<use data-text="I" xlink:href="#font_63_11" transform="matrix(14.04,0,0,-14.04,179.45,296.09)"/>
<use data-text="S" xlink:href="#font_63_21" transform="matrix(14.04,0,0,-14.04,184.1253,296.09)"/>
<use data-text="B" xlink:href="#font_63_4" transform="matrix(14.04,0,0,-14.04,191.44014,296.09)"/>
<use data-text="N" xlink:href="#font_63_16" transform="matrix(14.04,0,0,-14.04,200.0607,296.09)"/>
<use data-text=":" xlink:href="#font_63_497" transform="matrix(14.04,0,0,-14.04,211.72794,296.09)"/>
<use data-text=" " xlink:href="#font_63_561" transform="matrix(14.04,0,0,-14.04,215.18177,296.09)"/>
</g>
<g clip-path="url(#clip_88)">
<use data-text="9" xlink:href="#font_63_351" transform="matrix(14.04,0,0,-14.04,218.69,296.09)"/>
<use data-text="7" xlink:href="#font_63_349" transform="matrix(14.04,0,0,-14.04,225.75212,296.09)"/>
<use data-text="9" xlink:href="#font_63_351" transform="matrix(14.04,0,0,-14.04,232.71596,296.09)"/>
<use data-text="8" xlink:href="#font_63_350" transform="matrix(14.04,0,0,-14.04,239.6798,296.09)"/>
<use data-text="8" xlink:href="#font_63_350" transform="matrix(14.04,0,0,-14.04,246.74192,296.09)"/>
<use data-text="8" xlink:href="#font_63_350" transform="matrix(14.04,0,0,-14.04,253.70575,296.09)"/>
<use data-text="4" xlink:href="#font_63_346" transform="matrix(14.04,0,0,-14.04,260.6696,296.09)"/>
<use data-text="7" xlink:href="#font_63_349" transform="matrix(14.04,0,0,-14.04,267.7317,296.09)"/>
<use data-text="6" xlink:href="#font_63_348" transform="matrix(14.04,0,0,-14.04,274.69554,296.09)"/>
<use data-text="8" xlink:href="#font_63_350" transform="matrix(14.04,0,0,-14.04,281.75764,296.09)"/>
<use data-text="0" xlink:href="#font_63_342" transform="matrix(14.04,0,0,-14.04,288.72148,296.09)"/>
<use data-text="1" xlink:href="#font_63_343" transform="matrix(14.04,0,0,-14.04,295.6853,296.09)"/>
<use data-text="7" xlink:href="#font_63_349" transform="matrix(14.04,0,0,-14.04,302.7474,296.09)"/>
</g>
<g clip-path="url(#clip_89)">
<use data-text=" " xlink:href="#font_63_561" transform="matrix(14.04,0,0,-14.04,309.79,296.09)"/>
</g>
<g clip-path="url(#clip_90)">
<use data-text=" " xlink:href="#font_73_561" transform="matrix(14.04,0,0,-14.04,100.34,314.93)"/>
</g>
<g clip-path="url(#clip_91)">
<use data-text=" " xlink:href="#font_73_561" transform="matrix(14.04,0,0,-14.04,100.34,333.77)"/>
</g>
<g clip-path="url(#clip_92)">
<use data-text=" " xlink:href="#font_73_561" transform="matrix(14.04,0,0,-14.04,100.34,352.72999)"/>
</g>
<g clip-path="url(#clip_93)">
<use data-text=" " xlink:href="#font_73_561" transform="matrix(14.04,0,0,-14.04,100.34,371.59)"/>
</g>
<g clip-path="url(#clip_94)">
<use data-text=" " xlink:href="#font_73_561" transform="matrix(14.04,0,0,-14.04,100.34,390.55)"/>
</g>
<g clip-path="url(#clip_95)">
<use data-text=" " xlink:href="#font_73_561" transform="matrix(14.04,0,0,-14.04,100.34,409.39)"/>
</g>
<g clip-path="url(#clip_96)">
<use data-text=" " xlink:href="#font_73_561" transform="matrix(14.04,0,0,-14.04,100.34,428.22999)"/>
</g>
<g clip-path="url(#clip_97)">
<use data-text=" " xlink:href="#font_73_561" transform="matrix(14.04,0,0,-14.04,100.34,447.19)"/>
</g>
<g clip-path="url(#clip_98)">
<use data-text=" " xlink:href="#font_73_561" transform="matrix(14.04,0,0,-14.04,100.34,466.03)"/>
</g>
<g clip-path="url(#clip_99)">
<use data-text=" " xlink:href="#font_73_561" transform="matrix(14.04,0,0,-14.04,100.34,484.99)"/>
</g>
<g clip-path="url(#clip_100)">
<use data-text=" " xlink:href="#font_73_561" transform="matrix(14.04,0,0,-14.04,100.34,503.83003)"/>
</g>
<g clip-path="url(#clip_101)">
<use data-text=" " xlink:href="#font_73_561" transform="matrix(14.04,0,0,-14.04,100.34,522.7)"/>
</g>
<g clip-path="url(#clip_102)">
<use data-text=" " xlink:href="#font_73_561" transform="matrix(14.04,0,0,-14.04,100.34,541.66)"/>
</g>
<g clip-path="url(#clip_103)">
<use data-text=" " xlink:href="#font_73_561" transform="matrix(14.04,0,0,-14.04,100.34,560.496)"/>
</g>
<g clip-path="url(#clip_104)">
<use data-text=" " xlink:href="#font_73_561" transform="matrix(14.04,0,0,-14.04,100.34,579.456)"/>
</g>
</g>
</svg>
